<?xml version="1.0" encoding="UTF-8" standalone="no"?> <svg xmlns:inkscape="http://www.inkscape.org/namespaces/inkscape" xmlns:sodipodi="http://sodipodi.sourceforge.net/DTD/sodipodi-0.dtd" xmlns:xlink="http://www.w3.org/1999/xlink" xmlns="http://www.w3.org/2000/svg" xmlns:svg="http://www.w3.org/2000/svg" version="1.1" id="Layer_1" x="0px" y="0px" viewBox="0 0 1000 1000" xml:space="preserve" sodipodi:docname="csp_crest_sq.svg" width="1000" height="1000" inkscape:version="1.1 (c68e22c387, 2021-05-23)"><defs id="defs309"></defs> <pattern x="-745.1" y="-420" width="19.3" height="19.3" patternUnits="userSpaceOnUse" id="New_Pattern_Swatch_1" viewBox="0 -19.3 19.3 19.3" overflow="visible"> <g id="g6"> <polygon fill="none" points="0,0 19.3,0 19.3,-19.3 0,-19.3 " id="polygon2"></polygon> <polygon fill="#F1E46B" points="19.3,0 0,0 0,-19.3 19.3,-19.3 " id="polygon4"></polygon> </g> </pattern> <g id="g304" transform="matrix(2.1079258,0,0,2.1079258,206.99831,2.4000008e-7)"> <path fill="#282266" d="M 139,0 C 138.2,0.4 3.8,65.7 0,237.2 3.8,408.7 138.2,474 139,474.4 139.8,474 274.1,408.7 278,237.2 274.1,65.7 139.8,0.4 139,0 Z" id="path9"></path> <path fill="#eca920" d="m 139,8.1 c 12.4,6.5 39,24.2 63.7,51.6 19.2,21.3 34.6,45.3 45.8,71.2 14,32.4 21.6,68.2 22.5,106.2 -0.9,38 -8.4,73.7 -22.5,106.2 -11.2,26 -26.7,50 -45.8,71.2 C 178,442 151.4,459.6 139,466.1 126.6,459.6 100,441.9 75.3,414.5 56.1,393.2 40.7,369.2 29.5,343.3 15.5,310.9 7.9,275.1 7,237.1 c 0.9,-38 8.4,-73.7 22.5,-106.2 11.2,-26 26.7,-50 45.8,-71.2 24.6,-27.4 51.2,-45 63.7,-51.6 m 0,-5.3 C 138.2,3.2 6,67.8 2.2,237.2 6,406.6 138.2,471.2 139,471.6 139.8,471.2 272,406.6 275.8,237.2 272,67.8 139.8,3.2 139,2.8 Z" id="path11"></path> <path fill="#eca920" d="m 137.5,60.4 m 0,-5.6 C 137,55.1 49.2,105.3 46.7,237.2 49.2,369 137,419.3 137.5,419.6 138,419.3 225.8,369.1 228.3,237.2 225.8,105.4 138,55.1 137.5,54.8 Z" id="path13"></path> <pattern id="SVGID_1_" xlink:href="#New_Pattern_Swatch_1" patternTransform="matrix(0.6198 0 0 0.6365 -2551.0757 -2377.3589)"> </pattern> <path fill="url(#SVGID_1_)" d="m 137.5,411.9 c -4.1,-2.5 -22.3,-14.8 -41,-39.8 C 77.4,346.5 54.4,302.3 53.2,236.5 53.5,220.4 55.1,204.7 58,189.9 l 159,-0.2 c 2.9,14.9 4.5,30.7 4.8,46.9 -1.2,65.7 -24.2,110 -43.3,135.6 -18.7,24.9 -36.9,37.1 -41,39.7 z" id="path16"></path> <path fill="#010101" d="M 223.4,235.3 C 221.1,109.2 138,61.1 137.5,60.8 137,61.1 54,109.2 51.6,235.3 c 0,0.2 0,0.4 0,0.6 0,0.2 0,0.4 0,0.6 2.4,128.1 85.4,177 85.9,177.3 0.5,-0.3 83.5,-49.1 85.9,-177.3 0,-0.2 0,-0.4 0,-0.6 0,-0.2 0,-0.4 0,-0.6 z M 96.5,101.9 c 16,-21.1 33.3,-34.5 41,-39.2 7.7,4.6 25,18.1 41,39.2 14,18.5 30.1,46.8 38.2,86.2 l -158.4,0.2 c 8.1,-39.5 24.2,-68 38.2,-86.4 z m 41,308.1 c -0.8,-0.5 -1.9,-1.2 -3.1,-2.2 1.9,1.3 3.1,2 3.1,2 0.1,0 1.2,-0.7 3.1,-2 -1.2,0.9 -2.3,1.7 -3.1,2.2 z m 41,-41.2 c -16,21.1 -33.3,34.5 -41,39.2 -7.7,-4.6 -25,-18.1 -41,-39.2 -3.2,-4.3 -6.6,-9.1 -9.9,-14.4 -0.4,-0.7 -0.8,-1.5 -1.3,-2.2 l 51.5,-56.7 52.4,57.6 c -0.2,0.4 -0.5,0.8 -0.7,1.2 -3.4,5.4 -6.8,10.2 -10,14.5 z M 204.4,321.2 136.8,247 70.1,320.2 C 61.6,297.6 55.3,269.9 54.7,236.5 55,221 56.5,205.8 59.2,191.4 l 156.4,-0.2 c 2.7,14.4 4.3,29.6 4.6,45.2 -0.6,34 -7.1,62.1 -15.8,84.8 z" id="path18"></path> <g id="g24"> <path fill="#eca920" d="m 187.5,316.3 c -0.2,-0.2 -0.3,-0.5 -0.4,-0.8 -0.2,-0.7 -0.2,-1.5 -0.2,-2.2 0,-0.5 0.1,-1.1 0.1,-1.6 -0.1,-1 -0.7,-1.9 -1.2,-2.8 -0.6,-1 -0.8,-2 -1.3,-3 -0.8,-1.6 -2.1,-2.9 -3.3,-4.2 -1.3,-1.4 -2.5,-2.9 -3.9,-4.4 -1.5,-1.6 -2.9,-3.2 -4.6,-4.6 -1.7,-1.3 -3.2,-2.8 -4.8,-4.2 -0.5,-0.5 -1.1,-1.1 -1.7,-1.4 -0.1,0 -0.2,-0.1 -0.3,-0.1 -0.3,0 -0.4,0.3 -0.4,0.6 -0.1,0.6 -0.1,1.2 -0.1,1.8 0,0.4 0,0.9 0.1,1.3 0.2,0.5 0.5,0.9 0.8,1.2 0.9,1.1 2.1,2.2 2.8,3.4 0.5,0.8 1.2,1.5 2.1,2 0.6,0.4 1.3,0.7 1.9,1 0,0 -1.7,-0.5 -2.3,-0.8 -0.7,-0.3 -2.2,-1.5 -2.6,-1.9 -0.4,-0.4 -1,-1.1 -1.3,-1.6 -0.6,-0.9 -1.6,-1.3 -2.4,-1.9 -1,-0.8 -2.1,-1.8 -3.1,-2.7 -1.7,-1.4 -3.3,-2.6 -5,-4 -1.6,-1.3 -3,-2.6 -5.1,-3 -0.2,0 -0.7,0.2 -0.9,0.3 -0.1,0.1 -0.1,0.2 -0.2,0.3 -0.5,1.3 0.5,2.1 1.3,2.9 1,1 2.1,2 3.2,3 1.1,0.9 6,5.2 6.6,5.7 0.6,0.5 2.8,2.3 2.8,2.7 0,0.5 -0.9,0.4 -1.1,0.1 -0.3,-0.4 -13.3,-11.4 -13.8,-11.9 -1,-0.8 -2.4,-1.7 -3.7,-1.7 -0.3,0 -0.5,0.1 -0.7,0.3 -0.1,0.2 -0.1,0.4 -0.1,0.6 0.1,0.9 0.5,1.7 1.1,2.4 0.6,0.7 1.4,1.3 2,1.9 0.7,0.6 1.3,1.2 2,1.9 2.9,2.7 5.7,5.5 8.4,8.4 0.7,0.8 1.6,1.5 2.2,2.4 0.1,0.1 0.2,0.3 0.2,0.4 0,0.1 0,0.1 0,0.2 0,0.2 -0.2,0.2 -0.4,0.2 -0.6,0.1 -1.2,-0.8 -1.7,-1.3 -0.4,-0.4 -0.8,-0.8 -1.1,-1.1 -0.7,-0.7 -1.4,-1.4 -2.1,-2.2 -1.4,-1.4 -2.8,-2.8 -4.3,-4.2 -0.7,-0.7 -1.4,-1.3 -2,-2 -0.6,-0.6 -1.3,-1.3 -2.1,-1.6 -0.4,-0.2 -0.8,-0.2 -1.3,-0.2 -0.2,0 -0.3,0 -0.5,0.1 -0.1,0.1 -0.2,0.2 -0.2,0.4 -0.7,2.7 2.3,5.3 3.9,7 1.6,1.7 3.2,3.4 4.9,5 1.4,1.4 2.7,2.8 4.1,4.1 0.3,0.2 0.5,0.5 0.8,0.7 0.2,0.2 0.5,0.6 0.3,0.8 -0.2,0.1 -0.4,0 -0.6,-0.1 -2.9,-2.3 -5.1,-5.2 -7.9,-7.5 -0.2,-0.2 -0.5,-0.4 -0.7,-0.5 -0.1,-0.1 -0.2,-0.1 -0.4,-0.2 -0.2,0 -0.5,0.2 -0.6,0.4 -0.1,0.2 -0.1,0.5 0,0.7 0.3,0.8 0.9,1.3 1.4,2 1.4,1.9 2.8,3.7 4.5,5.4 1.2,1.2 2.4,2.4 3.5,3.6 1.1,1.3 2.1,2.7 3.3,3.9 2.4,2.5 5.2,4.7 8.3,6.4 1.8,1 3.7,1.9 5.7,2.4 1.2,0.3 2.4,0.3 3.6,0.3 0.8,0 2.4,0.2 3.1,-0.3 0.1,-0.1 0.2,-0.2 0.3,-0.3 1.4,-1.6 2.9,-3.3 4.3,-4.9 0.5,-0.5 1,-1.1 1.5,-1.6 0.3,-0.8 -0.3,-1 -0.7,-1.4 0.1,0.1 0.1,0.1 0,0 z m -13.8,-2.6 c -0.1,0 -0.1,0 -0.2,-0.1 -0.1,-0.1 -0.2,-0.3 -0.2,-0.5 -0.1,-0.6 -0.1,-1.1 0.1,-1.6 0,-0.1 0.1,-0.2 0.1,-0.2 0.1,0 0.1,0 0.2,0 0.2,0 0.5,0.1 0.7,0.3 0.1,0.1 0.2,0.2 0.2,0.4 0.1,0.5 -0.1,1 -0.1,1.5 0,0.1 -0.1,0.3 -0.2,0.3 -0.1,0.1 -0.2,0.1 -0.3,0 -0.1,-0.1 -0.2,-0.1 -0.3,-0.1 z m 6.3,5.3 c -0.1,0.1 -0.4,0.2 -0.6,0.2 -0.6,0 -1,-0.5 -1.5,-0.8 -0.7,-0.6 -1.4,-1 -2.1,-1.6 -0.6,-0.5 -1.4,-1.2 -1.5,-2.1 0,-0.2 0.1,-0.5 0.3,-0.5 0.3,-0.1 0.6,0.2 0.8,0.5 1,1.4 2.3,2.5 3.8,3.2 0.2,0.1 0.4,0.2 0.6,0.4 0.3,0.1 0.4,0.3 0.2,0.7 0.1,-0.1 0.1,-0.1 0,0 z" id="path20"></path> <path fill="#eca920" d="m 86.1,316.3 c 0.2,-0.2 0.3,-0.5 0.4,-0.8 0.2,-0.7 0.2,-1.5 0.2,-2.2 0,-0.5 -0.1,-1.1 -0.1,-1.6 0.1,-1 0.7,-1.9 1.2,-2.8 0.6,-1 0.8,-2 1.3,-3 0.8,-1.6 2.1,-2.9 3.3,-4.2 1.3,-1.4 2.5,-2.9 3.9,-4.4 1.5,-1.6 2.9,-3.2 4.6,-4.6 1.7,-1.3 3.2,-2.8 4.8,-4.2 0.5,-0.5 1.1,-1.1 1.7,-1.4 0.1,0 0.2,-0.1 0.3,-0.1 0.3,0 0.4,0.3 0.4,0.6 0.1,0.6 0.1,1.2 0.1,1.8 0,0.4 0,0.9 -0.1,1.3 -0.2,0.5 -0.5,0.9 -0.8,1.2 -0.9,1.1 -2.1,2.2 -2.8,3.4 -0.5,0.8 -1.2,1.5 -2.1,2 -0.6,0.4 -1.3,0.7 -1.9,1 0,0 1.7,-0.5 2.3,-0.8 0.7,-0.3 2.2,-1.5 2.6,-1.9 0.4,-0.4 1,-1.1 1.3,-1.6 0.6,-0.9 1.6,-1.3 2.4,-1.9 1,-0.8 2.1,-1.8 3.1,-2.7 1.7,-1.4 3.3,-2.6 5,-4 1.6,-1.3 3,-2.6 5.1,-3 0.2,0 0.7,0.2 0.9,0.3 0.1,0.1 0.1,0.2 0.2,0.3 0.5,1.3 -0.5,2.1 -1.3,2.9 -1,1 -2.1,2 -3.2,3 -1.1,0.9 -6,5.2 -6.6,5.7 -0.6,0.5 -2.8,2.3 -2.8,2.7 0,0.5 0.9,0.4 1.1,0.1 0.3,-0.4 13.3,-11.4 13.8,-11.9 1,-0.8 2.4,-1.7 3.7,-1.7 0.3,0 0.5,0.1 0.7,0.3 0.1,0.2 0.1,0.4 0.1,0.6 -0.1,0.9 -0.5,1.7 -1.1,2.4 -0.6,0.7 -1.4,1.3 -2,1.9 -0.7,0.6 -1.3,1.2 -2,1.9 -2.9,2.7 -5.7,5.5 -8.4,8.4 -0.7,0.8 -1.6,1.5 -2.2,2.4 -0.1,0.1 -0.2,0.3 -0.2,0.4 0,0.1 0,0.1 0,0.2 0,0.2 0.2,0.2 0.4,0.2 0.6,0.1 1.2,-0.8 1.7,-1.3 0.4,-0.4 0.8,-0.8 1.1,-1.1 0.7,-0.7 1.4,-1.4 2.1,-2.2 1.4,-1.4 2.8,-2.8 4.3,-4.2 0.7,-0.7 1.4,-1.3 2,-2 0.6,-0.6 1.3,-1.3 2.1,-1.6 0.4,-0.2 0.8,-0.2 1.3,-0.2 0.2,0 0.3,0 0.5,0.1 0.1,0.1 0.2,0.2 0.2,0.4 0.7,2.7 -2.3,5.3 -3.9,7 -1.6,1.7 -3.2,3.4 -4.9,5 -1.4,1.4 -2.7,2.8 -4.1,4.1 -0.3,0.2 -0.5,0.5 -0.8,0.7 -0.2,0.2 -0.5,0.6 -0.3,0.8 0.2,0.1 0.4,0 0.6,-0.1 2.9,-2.3 5.1,-5.2 7.9,-7.5 0.2,-0.2 0.5,-0.4 0.7,-0.5 0.1,-0.1 0.2,-0.1 0.4,-0.2 0.2,0 0.5,0.2 0.6,0.4 0.1,0.2 0.1,0.5 0,0.7 -0.3,0.8 -0.9,1.3 -1.4,2 -1.4,1.9 -2.8,3.7 -4.5,5.4 -1.2,1.2 -2.4,2.4 -3.5,3.6 -1.1,1.3 -2.1,2.7 -3.3,3.9 -2.4,2.5 -5.2,4.7 -8.3,6.4 -1.8,1 -3.7,1.9 -5.7,2.4 -1.2,0.3 -2.4,0.3 -3.6,0.3 -0.8,0 -2.4,0.2 -3.1,-0.3 -0.1,-0.1 -0.2,-0.2 -0.3,-0.3 -1.4,-1.6 -2.9,-3.3 -4.3,-4.9 -0.5,-0.5 -1,-1.1 -1.5,-1.6 -0.3,-0.9 0.3,-1 0.7,-1.4 0,0.1 0,0 0,0 z m 13.8,-2.7 c 0.1,0 0.1,0 0.2,-0.1 0.1,-0.1 0.2,-0.3 0.2,-0.5 0.1,-0.6 0.1,-1.1 -0.1,-1.6 0,-0.1 -0.1,-0.2 -0.1,-0.2 -0.1,0 -0.1,0 -0.2,0 -0.2,0 -0.5,0.1 -0.7,0.3 -0.1,0.1 -0.2,0.2 -0.2,0.4 -0.1,0.5 0.1,1 0.1,1.5 0,0.1 0.1,0.3 0.2,0.3 0.1,0.1 0.2,0.1 0.3,0 0.1,0 0.2,0 0.3,-0.1 z m -6.3,5.3 c 0.1,0.1 0.4,0.2 0.6,0.2 0.6,0 1,-0.5 1.5,-0.8 0.7,-0.6 1.4,-1 2.1,-1.6 0.6,-0.5 1.4,-1.2 1.5,-2.1 0,-0.2 -0.1,-0.5 -0.3,-0.5 -0.3,-0.1 -0.6,0.2 -0.8,0.5 -1,1.4 -2.3,2.5 -3.8,3.2 -0.2,0.1 -0.4,0.2 -0.6,0.4 -0.2,0.2 -0.4,0.4 -0.2,0.7 0,0 0,0 0,0 z" id="path22"></path> </g> <g id="g58"> <path fill="#eca920" d="m 62.4,386.4 c -0.4,-1.4 -0.7,-2.1 -0.8,-2.3 -0.2,-0.3 -0.6,-0.5 -0.9,-0.5 -0.4,0 -0.7,0 -1,0.2 l -0.5,-0.7 5.6,-4.1 0.5,0.7 c -0.8,1.5 -1.3,2.9 -1.5,4 -0.4,2.2 -0.1,4 1.1,5.6 1.3,1.7 2.9,2.5 4.8,2.2 1.9,-0.3 4.1,-1.3 6.4,-3 1.7,-1.3 3,-2.5 3.8,-3.8 1.5,-2.3 1.4,-4.6 -0.2,-6.8 -1,-1.3 -2.2,-2.3 -3.8,-3 -0.9,-0.4 -2.1,-0.7 -3.6,-0.9 v -1.2 c 1.8,0.3 3.2,0.6 4.2,1 1.8,0.8 3.4,2 4.6,3.7 1.9,2.6 2.7,5.2 2.6,8 -0.2,3.1 -1.6,5.6 -4.2,7.5 -2.6,1.9 -5.4,2.5 -8.4,1.9 -2.8,-0.6 -5.1,-2.2 -6.9,-4.7 -0.7,-1.2 -1.4,-2.4 -1.8,-3.8 z" id="path26"></path> <path fill="#eca920" d="m 72.9,368.3 c -0.5,-0.7 -0.9,-1.2 -1.2,-1.4 -0.6,-0.4 -1.2,-0.3 -2,0.1 l -12.6,7.2 c -0.7,0.4 -1.1,0.9 -1.1,1.5 0,0.4 0.2,1 0.6,1.9 l -0.7,0.4 -5.4,-9.5 0.7,-0.4 c 0.5,0.8 0.9,1.3 1.3,1.5 0.6,0.4 1.2,0.4 2,-0.1 l 5.4,-3.1 -3.8,-6.7 -5.4,3.1 c -0.7,0.4 -1.1,1 -1.1,1.6 0,0.4 0.2,1 0.7,1.9 l -0.7,0.4 -5.5,-9.5 0.7,-0.4 c 0.5,0.8 1,1.3 1.3,1.5 0.5,0.4 1.2,0.3 1.9,-0.1 L 60.6,351 c 0.8,-0.4 1.1,-1 1.1,-1.7 0,-0.4 -0.2,-1 -0.6,-1.8 l 0.7,-0.4 5.4,9.5 -0.7,0.4 c -0.5,-0.8 -0.9,-1.3 -1.3,-1.5 -0.6,-0.4 -1.2,-0.3 -2,0.1 l -6,3.4 3.8,6.7 6,-3.4 c 0.8,-0.4 1.1,-1 1.1,-1.7 0,-0.4 -0.3,-1 -0.7,-1.8 l 0.7,-0.4 5.4,9.5 z" id="path28"></path> <path fill="#eca920" d="m 60,345.4 c -0.4,-0.7 -0.9,-1.1 -1.6,-1.3 -0.5,-0.1 -1.4,-0.2 -2.8,-0.2 L 37.8,343.8 37.4,343 48.9,330.2 c 1.3,-1.4 2.1,-2.4 2.4,-3 0.3,-0.6 0.3,-1.2 0,-1.9 l 0.7,-0.3 4.1,9.6 -0.7,0.3 c -0.5,-0.9 -0.8,-1.6 -1.1,-1.8 -0.2,-0.3 -0.6,-0.3 -1.1,-0.1 -0.2,0.1 -0.5,0.3 -0.9,0.7 -0.2,0.2 -0.5,0.5 -0.8,0.8 l -1.3,1.5 2.9,6.7 c 1.3,0 2.1,-0.1 2.5,-0.1 0.8,0 1.4,-0.1 1.7,-0.3 0.4,-0.2 0.6,-0.6 0.5,-1.2 0,-0.4 -0.2,-0.9 -0.5,-1.6 l 0.7,-0.3 2.6,6.1 z m -10.5,-8.7 -5.1,5.6 0.1,0.2 7.5,-0.1 z" id="path30"></path> <path fill="#eca920" d="m 50.4,322.9 c -0.4,-1 -0.8,-1.7 -1.2,-2 -0.4,-0.3 -1.2,-0.3 -2.2,0.1 l -12.6,3.9 c -1.1,0.3 -1.7,0.8 -1.9,1.3 -0.1,0.4 -0.1,1.1 0.2,2.2 l -0.7,0.2 -3.1,-9.9 c -0.6,-2.1 -1,-3.8 -1,-5.2 0,-2.7 1.1,-4.4 3.2,-5.1 1.5,-0.5 3,-0.2 4.3,0.8 1,0.8 1.7,1.7 2.3,2.7 l 6.1,-9.1 c 0.2,-0.2 0.3,-0.5 0.3,-0.7 0,-0.2 0,-0.5 -0.1,-0.7 l 0.7,-0.2 2,6.4 -6.6,10 v 0 l 5.6,-1.7 c 1,-0.3 1.6,-0.7 1.9,-1.2 0.2,-0.5 0.2,-1.3 -0.1,-2.3 l 0.7,-0.2 3.3,10.4 z m -13.6,-9 c -0.8,-0.7 -2.1,-0.8 -3.8,-0.2 -1.1,0.3 -1.9,0.8 -2.5,1.3 -0.9,0.9 -1.1,2.1 -0.6,3.6 0.3,0.8 0.5,1.3 0.8,1.5 0.3,0.2 0.6,0.2 1.1,0.1 l 7.2,-2.3 c -0.7,-1.9 -1.4,-3.3 -2.2,-4 z" id="path32"></path> <path fill="#eca920" d="m 24.5,304.1 -4.1,-19 5.9,-1.3 0.2,0.9 c -2,0.8 -3.3,1.9 -3.7,3.5 -0.2,0.9 -0.2,2.1 0.1,3.7 l 15.4,-3.3 c 1.1,-0.2 1.7,-0.6 2,-1.1 0.3,-0.5 0.3,-1.4 0,-2.7 l 0.7,-0.2 2.4,11.3 -0.7,0.2 c -0.3,-1.2 -0.6,-2 -1.1,-2.3 -0.4,-0.3 -1.2,-0.4 -2.3,-0.2 l -15.4,3.3 c 0.4,1.5 0.8,2.7 1.4,3.4 1.1,1.3 2.7,1.9 4.8,1.6 l 0.2,0.9 z" id="path34"></path> <path fill="#eca920" d="m 39.5,277.8 -0.8,0.1 c -0.1,-0.9 -0.3,-1.6 -0.6,-1.9 -0.4,-0.6 -1,-0.8 -1.8,-0.7 L 22,277.2 c -0.9,0.1 -1.4,0.5 -1.6,1.1 -0.1,0.4 -0.2,1 -0.1,2 l -0.8,0.1 -2.3,-18.5 6,-0.7 0.1,0.8 c -1.9,0.6 -3.1,1.5 -3.7,2.6 -0.6,1.1 -0.7,2.9 -0.4,5.5 0.1,1 0.3,1.6 0.5,1.8 0.2,0.2 0.6,0.3 1.2,0.3 l 6.9,-0.9 c -0.2,-1.8 -0.7,-3 -1.4,-3.6 -0.7,-0.6 -1.9,-0.9 -3.6,-1.1 l -0.1,-0.8 10,-1.3 0.1,0.8 c -1.7,0.4 -2.8,1.1 -3.4,1.8 -0.6,0.8 -0.8,2.1 -0.6,3.9 l 7.2,-0.9 c 0.6,-0.1 1,-0.3 1.2,-0.7 0.2,-0.4 0.2,-1.1 0.1,-2.2 -0.3,-2 -0.8,-3.7 -1.7,-4.9 -0.9,-1.2 -2.4,-2.2 -4.6,-2.9 l -0.1,-0.9 6.3,0.5 z" id="path36"></path> <path fill="#eca920" d="m 36,255.2 c -0.1,-1.1 -0.3,-1.8 -0.7,-2.2 -0.3,-0.4 -1.1,-0.6 -2.2,-0.5 L 20,253 c -1.1,0 -1.9,0.3 -2.2,0.8 -0.2,0.3 -0.3,1 -0.4,2.1 h -0.8 l -0.4,-10.4 c -0.1,-2.2 0.1,-3.9 0.4,-5.3 0.7,-2.6 2.2,-4 4.4,-4.1 1.6,-0.1 2.9,0.6 3.9,1.9 0.7,1 1.2,2.1 1.5,3.2 l 8.2,-7.2 c 0.2,-0.2 0.4,-0.4 0.4,-0.6 0.1,-0.2 0.1,-0.5 0.1,-0.7 h 0.7 l 0.3,6.7 -9,7.9 v 0 l 5.8,-0.2 c 1,0 1.7,-0.3 2.1,-0.7 0.3,-0.4 0.5,-1.2 0.5,-2.3 h 0.8 L 36.7,255 Z M 25.2,243 c -0.6,-0.9 -1.8,-1.3 -3.7,-1.2 -1.2,0 -2.1,0.3 -2.7,0.6 -1.1,0.6 -1.6,1.8 -1.6,3.3 0,0.9 0.2,1.4 0.4,1.7 0.2,0.3 0.5,0.4 1,0.4 l 7.6,-0.3 c -0.1,-2.1 -0.5,-3.6 -1,-4.5 z" id="path38"></path> <path fill="#eca920" d="m 36.2,230.9 -0.8,-0.1 c 0,-0.9 0,-1.6 -0.2,-2 -0.3,-0.6 -0.8,-1 -1.7,-1 l -14.4,-1.2 c -0.9,-0.1 -1.5,0.2 -1.8,0.8 -0.2,0.3 -0.4,1 -0.5,1.9 l -0.8,-0.1 1.5,-18.5 6,0.5 -0.1,0.8 c -1.9,0.3 -3.3,0.8 -4.1,1.8 -0.8,0.9 -1.3,2.7 -1.5,5.3 -0.1,1 0,1.6 0.1,1.9 0.2,0.3 0.5,0.4 1.1,0.5 l 6.9,0.6 c 0.2,-1.8 0,-3.1 -0.6,-3.8 -0.6,-0.7 -1.7,-1.3 -3.4,-1.8 l 0.1,-0.8 10,0.8 -0.1,0.8 c -1.7,0.1 -2.9,0.5 -3.7,1.1 -0.8,0.7 -1.2,1.9 -1.4,3.7 l 7.2,0.6 c 0.6,0.1 1.1,-0.1 1.3,-0.4 0.3,-0.3 0.4,-1 0.5,-2.1 0.2,-2.1 -0.1,-3.8 -0.7,-5.1 -0.6,-1.4 -1.9,-2.6 -3.9,-3.8 l 0.1,-0.9 6.1,1.8 z" id="path40"></path> <path fill="#eca920" d="m 37.4,208.1 c 0.1,-0.8 0.1,-1.4 0,-1.8 -0.2,-0.7 -0.7,-1.1 -1.5,-1.2 l -14.5,-2.5 c -0.8,-0.1 -1.3,0.1 -1.7,0.6 -0.2,0.3 -0.5,0.9 -0.7,1.7 l -0.7,-0.1 1.7,-9.7 c 0.7,-3.9 2.1,-6.8 4.4,-8.5 2.1,-1.6 4.6,-2.1 7.6,-1.6 2.7,0.5 4.8,1.8 6.3,4 1.7,2.5 2.3,5.5 1.6,9.2 l -1.7,10.1 z m 0.7,-8.3 c 0.3,-0.2 0.5,-0.6 0.6,-1.3 0.3,-1.9 0,-3.5 -1.1,-5 -1,-1.4 -3.3,-2.4 -6.8,-3 -2.1,-0.4 -3.9,-0.3 -5.5,0.1 -2.6,0.6 -4.1,2.2 -4.5,4.7 -0.1,0.8 -0.1,1.4 0.2,1.7 0.2,0.2 0.6,0.4 1.2,0.5 l 14.5,2.5 c 0.7,0.1 1.1,0 1.4,-0.2 z" id="path42"></path> <path fill="#eca920" d="m 38.4,171.7 0.3,-0.9 c 2.3,0.2 4.1,-0.2 5.4,-1 1.3,-0.8 2.2,-1.9 2.6,-3.3 0.4,-1.4 0.4,-2.5 -0.1,-3.2 -0.5,-0.8 -1.1,-1.3 -1.8,-1.5 -0.9,-0.3 -1.6,-0.2 -2.4,0.3 -0.5,0.3 -1.2,1 -2.1,2 l -1.5,1.7 c -1.5,1.7 -2.8,2.8 -4,3.3 -1.1,0.5 -2.4,0.6 -3.7,0.2 -1.4,-0.4 -2.5,-1.4 -3.4,-2.8 -0.9,-1.4 -1,-3.2 -0.3,-5.4 0.3,-1.1 0.8,-2.1 1.5,-3.1 0.6,-0.9 1,-1.5 1,-1.6 0.1,-0.3 0.1,-0.6 -0.1,-0.8 -0.1,-0.2 -0.3,-0.4 -0.6,-0.5 l 0.3,-0.9 6.2,1.9 -0.3,0.9 c -1.6,0 -3,0.3 -4.4,1 -1.4,0.7 -2.2,1.8 -2.7,3.2 -0.3,1 -0.3,1.9 0,2.7 0.3,0.8 0.9,1.2 1.6,1.5 0.9,0.3 1.7,0.2 2.3,-0.2 0.6,-0.4 1.7,-1.4 3.1,-3.1 l 1.8,-2 c 0.8,-0.9 1.6,-1.5 2.3,-2 1.4,-0.8 2.9,-1 4.4,-0.5 1.4,0.4 2.6,1.5 3.5,3.1 0.9,1.6 1,3.7 0.1,6.4 -0.2,0.6 -0.4,1.2 -0.7,1.8 -0.3,0.6 -0.7,1.2 -1.1,1.7 l -0.4,0.5 c -0.1,0.1 -0.2,0.3 -0.2,0.4 -0.1,0.1 -0.1,0.2 -0.1,0.3 -0.1,0.3 -0.1,0.6 0.1,0.7 0.1,0.2 0.3,0.3 0.6,0.5 l -0.3,0.9 z" id="path44"></path> <path fill="#eca920" d="m 41.7,130.7 c 2.7,-1.3 5.5,-1.3 8.4,-0.1 2.9,1.2 4.8,3.2 5.8,6 1,2.7 0.8,5.6 -0.4,8.6 -1.3,3.2 -3.4,5.4 -6.2,6.6 -2.6,1.1 -5.2,1.1 -7.9,0 -2.9,-1.2 -4.9,-3.2 -5.9,-5.9 -1.1,-2.8 -0.9,-5.7 0.3,-8.8 1.4,-3.1 3.3,-5.2 5.9,-6.4 z m 11.1,8 c -1.1,-1 -2.8,-1.9 -4.9,-2.8 -2.9,-1.2 -5.3,-1.7 -7.2,-1.3 -1.9,0.3 -3.2,1.3 -3.8,2.9 -0.9,2.3 -0.3,4.3 1.8,6.2 1.1,1 2.8,1.9 4.9,2.8 2.1,0.9 4,1.4 5.5,1.5 2.8,0.2 4.7,-0.8 5.6,-3.1 0.8,-2.4 0.2,-4.4 -1.9,-6.2 z" id="path46"></path> <path fill="#eca920" d="m 50.9,108.3 c 1.1,-1 1.6,-1.5 1.7,-1.7 0.2,-0.4 0.2,-0.7 0.1,-1.1 -0.1,-0.4 -0.3,-0.6 -0.6,-0.9 l 0.4,-0.8 6.1,3.4 -0.4,0.7 c -1.7,0 -3.1,0.1 -4.3,0.4 -2.1,0.5 -3.7,1.7 -4.6,3.3 -1,1.9 -1,3.7 0,5.3 1.1,1.6 2.9,3.1 5.4,4.5 1.9,1 3.5,1.6 5,1.8 2.7,0.4 4.8,-0.6 6.1,-3 0.8,-1.5 1.2,-3 1.1,-4.7 0,-1 -0.3,-2.2 -0.7,-3.7 l 1.1,-0.5 c 0.5,1.7 0.8,3.2 0.9,4.3 0.1,2 -0.4,3.9 -1.4,5.7 -1.5,2.8 -3.6,4.7 -6.2,5.8 -2.8,1.2 -5.7,0.9 -8.6,-0.6 -2.8,-1.6 -4.6,-3.8 -5.3,-6.8 -0.6,-2.8 -0.2,-5.5 1.3,-8.3 1,-1.1 1.8,-2.2 2.9,-3.1 z" id="path48"></path> <path fill="#eca920" d="m 72.1,110.1 c 0.5,-0.8 0.8,-1.4 0.8,-1.8 0.1,-0.7 -0.2,-1.3 -0.9,-1.8 l -12,-8 C 59.3,98 58.6,97.9 58,98.3 57.6,98.5 57.2,99 56.6,99.8 L 56,99.4 62.3,90 l 0.6,0.4 c -0.5,0.9 -0.8,1.5 -0.9,1.9 -0.1,0.7 0.2,1.3 1,1.8 l 12,8 c 0.7,0.5 1.3,0.6 1.8,0.3 0.5,-0.3 1.1,-0.8 1.6,-1.7 l 0.6,0.4 -6.3,9.4 z" id="path50"></path> <path fill="#eca920" d="m 80.4,98.9 -0.6,-0.5 c 0.6,-0.7 0.9,-1.3 1,-1.8 0.1,-0.7 -0.1,-1.3 -0.8,-1.8 l -11.3,-9 c -0.7,-0.5 -1.3,-0.7 -2,-0.4 -0.4,0.2 -0.9,0.6 -1.5,1.3 l -0.6,-0.5 11.6,-14.6 4.7,3.7 -0.5,0.6 C 78.6,75 77.2,74.8 76,75.1 c -1.2,0.3 -2.6,1.5 -4.2,3.5 -0.6,0.8 -0.9,1.3 -0.9,1.7 0,0.3 0.2,0.7 0.6,1 l 5.4,4.3 c 1.2,-1.4 1.7,-2.6 1.6,-3.5 -0.1,-0.9 -0.7,-2 -1.8,-3.3 l 0.5,-0.6 7.9,6.3 -0.5,0.6 c -1.5,-0.9 -2.7,-1.3 -3.7,-1.1 -1,0.2 -2,0.9 -3.2,2.3 l 5.7,4.5 c 0.5,0.4 0.9,0.5 1.3,0.4 0.4,-0.1 0.9,-0.6 1.6,-1.5 1.3,-1.6 2,-3.2 2.3,-4.6 0.2,-1.5 -0.1,-3.2 -1.1,-5.3 l 0.6,-0.7 4,4.9 z" id="path52"></path> <path fill="#eca920" d="m 80.3,66.8 13.6,-13.9 4.3,4.2 -0.6,0.7 c -1.8,-1.3 -3.4,-1.7 -5,-1.2 -0.9,0.3 -1.9,1 -3,2.1 l 11.3,11 c 0.8,0.8 1.5,1.1 2,1.1 0.5,0 1.3,-0.5 2.2,-1.5 l 0.5,0.5 -8,8.2 -0.6,-0.5 c 0.9,-0.9 1.3,-1.6 1.4,-2.2 0,-0.6 -0.3,-1.2 -1.1,-2 L 86,62.4 c -1.1,1.2 -1.8,2.2 -2,3.1 -0.5,1.7 -0.1,3.3 1.3,4.9 l -0.6,0.7 z" id="path54"></path> <path fill="#eca920" d="m 105.9,42.6 0.5,0.6 c -0.8,0.8 -1.3,1.3 -1.5,1.5 -0.2,0.3 -0.2,0.5 0,0.8 0.1,0.1 0.2,0.2 0.3,0.3 0.1,0.1 0.4,0.2 0.9,0.4 l 7.8,2.8 v 0 l -0.7,-6.3 c 0,-0.4 -0.1,-0.8 -0.2,-1.4 -0.2,-0.8 -0.4,-1.3 -0.6,-1.6 -0.3,-0.4 -0.7,-0.5 -1.2,-0.4 -0.3,0.1 -0.9,0.5 -1.7,1.1 l -0.5,-0.6 5.5,-4.5 0.5,0.6 c -0.3,0.4 -0.6,0.7 -0.8,1 -0.2,0.4 -0.3,0.8 -0.2,1.3 l 1.1,11.1 3.5,4.2 c 0.7,0.9 1.3,1.3 1.9,1.3 0.5,0 1.2,-0.4 2.2,-1.1 l 0.5,0.6 -8.6,7.1 -0.5,-0.6 c 0.9,-0.8 1.4,-1.4 1.5,-2 0.1,-0.5 -0.2,-1.2 -0.9,-2 L 111.9,53.4 101,49.6 c -0.7,-0.3 -1.4,-0.3 -2,-0.1 -0.4,0.1 -0.8,0.3 -1.1,0.5 l -0.5,-0.6 z" id="path56"></path> </g> <g id="g90"> <path fill="#eca920" d="m 181.2,56.1 c 0.3,3 -0.6,5.6 -2.7,7.9 -2.1,2.3 -4.6,3.5 -7.6,3.5 -2.9,0 -5.6,-1.1 -8,-3.3 -2.6,-2.3 -3.9,-5 -4.1,-8 -0.2,-2.8 0.7,-5.3 2.6,-7.4 2.1,-2.3 4.6,-3.5 7.5,-3.6 3,-0.1 5.7,1 8.2,3.3 2.4,2.2 3.8,4.7 4.1,7.6 z M 170,63.9 c 1.3,-0.7 2.8,-2 4.3,-3.7 2.1,-2.4 3.3,-4.5 3.7,-6.4 0.3,-1.9 -0.2,-3.4 -1.5,-4.6 -1.8,-1.6 -4,-1.8 -6.4,-0.4 -1.3,0.7 -2.7,2 -4.2,3.7 -1.6,1.7 -2.6,3.3 -3.2,4.7 -1.1,2.6 -0.8,4.7 1.1,6.3 1.6,1.6 3.7,1.7 6.2,0.4 z" id="path60"></path> <path fill="#eca920" d="m 174.3,73 c 0.6,0.7 1.2,1.1 1.6,1.2 0.6,0.2 1.3,0.1 1.9,-0.5 l 10.7,-9.6 c 0.6,-0.6 0.9,-1.2 0.7,-1.8 -0.1,-0.4 -0.5,-1 -1.1,-1.7 l 0.6,-0.5 12.3,13.6 -4.5,4 -0.5,-0.6 c 1.1,-1.5 1.6,-2.9 1.6,-4.1 -0.1,-1.2 -1,-2.7 -2.7,-4.6 -0.6,-0.7 -1.1,-1.1 -1.4,-1.1 -0.3,-0.1 -0.7,0.1 -1.1,0.5 l -5.1,4.6 c 1.1,1.3 2.2,2 3.1,2 0.9,0 2.1,-0.4 3.5,-1.2 l 0.5,0.6 -7.5,6.7 -0.5,-0.6 c 1.1,-1.2 1.6,-2.4 1.7,-3.3 0.1,-1 -0.4,-2.1 -1.6,-3.4 l -5.2,4.6 c -0.7,0.6 -0.9,1.2 -0.7,1.8 0.2,0.6 0.7,1.3 1.5,2.2 l -0.6,0.5 -7.8,-8.7 z" id="path62"></path> <path fill="#eca920" d="m 193.6,95.6 c 0.7,0.8 1.2,1.3 1.7,1.4 0.5,0.1 1.2,-0.1 2,-0.7 l 10.9,-7.4 c 0.9,-0.6 1.4,-1.2 1.4,-1.7 0,-0.5 -0.2,-1.2 -0.7,-2.1 l 0.6,-0.4 5.9,8.6 c 1.6,2.3 2.4,4.2 2.5,5.9 0.1,1.7 -0.6,3 -2.3,4.2 -0.8,0.6 -1.7,0.8 -2.8,0.9 -1,0 -2.1,-0.4 -3.3,-1.1 -0.9,-0.6 -1.6,-1.3 -2.2,-2 -0.6,-0.8 -1.5,-1.9 -2.6,-3.5 l -4.6,3.1 c -0.9,0.6 -1.4,1.2 -1.4,1.7 -0.1,0.5 0.2,1.2 0.8,2.2 l -0.6,0.4 L 193,96 Z m 14.8,4.1 c 1.1,0.5 2.4,0.2 4.1,-0.9 1.1,-0.8 1.9,-1.6 2.3,-2.5 0.4,-0.9 0.2,-1.9 -0.6,-3 -0.4,-0.5 -0.7,-0.9 -1,-1 -0.3,-0.2 -0.6,-0.1 -0.9,0.1 l -6.6,4.5 c 1.2,1.6 2,2.5 2.7,2.8 z" id="path64"></path> <path fill="#eca920" d="m 205.4,112.9 c 0.4,0.7 0.8,1.2 1.2,1.5 0.6,0.4 1.2,0.4 2,0 l 12.7,-6.9 c 0.7,-0.4 1.1,-0.9 1.1,-1.5 0,-0.4 -0.2,-1 -0.6,-1.9 l 0.7,-0.4 5.2,9.6 -0.7,0.4 c -0.5,-0.8 -0.9,-1.3 -1.2,-1.6 -0.6,-0.4 -1.2,-0.4 -2,0 l -5.4,2.9 3.7,6.8 5.4,-2.9 c 0.8,-0.4 1.1,-0.9 1.1,-1.6 0,-0.4 -0.2,-1 -0.6,-1.9 l 0.7,-0.4 5.2,9.7 -0.7,0.4 c -0.5,-0.8 -0.9,-1.3 -1.3,-1.5 -0.5,-0.4 -1.2,-0.3 -1.9,0.1 l -12.7,6.9 c -0.8,0.4 -1.1,1 -1.1,1.7 0,0.4 0.2,1 0.6,1.8 l -0.7,0.4 -5.2,-9.7 0.7,-0.4 c 0.5,0.8 0.9,1.3 1.2,1.6 0.6,0.4 1.2,0.4 2,0 l 6.1,-3.3 -3.7,-6.8 -6.1,3.3 c -0.8,0.4 -1.1,1 -1.1,1.7 0,0.4 0.2,1 0.6,1.8 l -0.7,0.4 -5.2,-9.6 z" id="path66"></path> <path fill="#eca920" d="m 239.8,138.8 -0.7,0.3 c -0.5,-1 -0.8,-1.6 -1,-1.9 -0.2,-0.3 -0.5,-0.3 -0.7,-0.2 -0.1,0 -0.3,0.1 -0.4,0.2 -0.1,0.1 -0.3,0.3 -0.7,0.7 l -5,6.6 v 0 l 6.2,1.2 c 0.4,0.1 0.8,0.2 1.4,0.2 0.8,0.1 1.3,0 1.7,-0.1 0.5,-0.2 0.7,-0.5 0.7,-1 0,-0.3 -0.2,-1 -0.5,-2 l 0.7,-0.3 2.7,6.6 -0.7,0.3 c -0.3,-0.4 -0.5,-0.8 -0.7,-1 -0.3,-0.3 -0.7,-0.5 -1.1,-0.6 l -10.9,-2.2 -5.1,2.1 c -1.1,0.4 -1.7,0.9 -1.8,1.4 -0.1,0.5 0,1.3 0.4,2.4 l -0.7,0.3 -4.2,-10.4 0.7,-0.3 c 0.5,1.1 1,1.8 1.4,2 0.5,0.2 1.2,0.1 2.2,-0.3 l 4.1,-1.6 7,-9.2 c 0.5,-0.6 0.7,-1.2 0.7,-1.8 0,-0.4 -0.1,-0.8 -0.2,-1.2 l 0.7,-0.3 z" id="path68"></path> <path fill="#eca920" d="m 232.9,157.8 0.3,0.9 c -2,1.1 -3.3,2.4 -3.9,3.8 -0.6,1.4 -0.7,2.8 -0.3,4.2 0.4,1.4 1,2.3 1.9,2.6 0.8,0.4 1.6,0.5 2.4,0.2 0.9,-0.3 1.5,-0.8 1.8,-1.5 0.2,-0.5 0.4,-1.5 0.6,-2.9 l 0.3,-2.2 c 0.3,-2.2 0.8,-3.9 1.5,-5 0.7,-1.1 1.6,-1.8 2.9,-2.2 1.4,-0.4 2.9,-0.3 4.4,0.4 1.5,0.7 2.6,2.2 3.3,4.3 0.3,1.1 0.5,2.2 0.5,3.4 0,1.1 0,1.8 0.1,1.9 0.1,0.3 0.3,0.5 0.5,0.6 0.2,0.1 0.5,0.1 0.8,0.1 l 0.3,0.9 -6.2,1.9 -0.3,-0.9 c 1.3,-0.8 2.3,-1.9 3.1,-3.3 0.7,-1.3 0.9,-2.7 0.4,-4.2 -0.3,-1 -0.8,-1.8 -1.5,-2.2 -0.7,-0.4 -1.4,-0.5 -2.2,-0.3 -0.9,0.3 -1.5,0.8 -1.8,1.4 -0.3,0.7 -0.6,2.1 -0.9,4.3 l -0.4,2.6 c -0.2,1.2 -0.5,2.1 -0.8,2.9 -0.7,1.5 -1.9,2.4 -3.4,2.9 -1.4,0.4 -3,0.2 -4.6,-0.6 -1.6,-0.8 -2.9,-2.6 -3.7,-5.3 -0.2,-0.6 -0.3,-1.3 -0.4,-1.9 -0.1,-0.7 -0.1,-1.3 -0.1,-2 v -0.7 c 0,-0.2 0,-0.3 0,-0.4 0,-0.1 0,-0.2 -0.1,-0.3 -0.1,-0.3 -0.2,-0.5 -0.5,-0.6 -0.2,-0.1 -0.5,-0.1 -0.8,-0.1 l -0.3,-0.9 z" id="path70"></path> <path fill="#eca920" d="m 232.2,177.7 c 0.2,0.9 0.5,1.5 0.7,1.9 0.4,0.6 1.1,0.8 2,0.6 L 249,177 c 0.9,-0.2 1.4,-0.6 1.5,-1.3 0.1,-0.4 0.1,-1.1 -0.1,-2 l 0.7,-0.2 2.5,11 -0.7,0.2 c -0.3,-1 -0.5,-1.6 -0.8,-2 -0.4,-0.5 -1.1,-0.7 -1.9,-0.5 l -14.1,3.2 c -0.8,0.2 -1.3,0.6 -1.5,1.1 -0.2,0.6 -0.1,1.3 0.1,2.3 l -0.7,0.2 -2.5,-11 z" id="path72"></path> <path fill="#eca920" d="m 255.1,208.8 c -1.6,2.5 -4,4 -7.1,4.4 -3.1,0.5 -5.8,-0.3 -8.1,-2.2 -2.2,-1.9 -3.6,-4.4 -4.1,-7.6 -0.5,-3.4 0.1,-6.3 1.9,-8.8 1.7,-2.3 3.9,-3.7 6.7,-4.1 3.1,-0.5 5.8,0.2 8.1,2 2.3,1.8 3.7,4.4 4.2,7.8 0.6,3.3 0,6.1 -1.6,8.5 z m -13.6,-1.2 c 1.5,0.3 3.4,0.2 5.7,-0.1 3.1,-0.5 5.4,-1.3 6.9,-2.6 1.5,-1.3 2,-2.7 1.8,-4.5 -0.4,-2.4 -1.9,-3.9 -4.7,-4.4 -1.5,-0.3 -3.4,-0.2 -5.6,0.1 -2.3,0.3 -4.1,0.8 -5.5,1.5 -2.5,1.3 -3.6,3.1 -3.2,5.5 0.3,2.6 1.8,4 4.6,4.5 z" id="path74"></path> <path fill="#eca920" d="m 258.5,216.8 1.1,19.4 -6,0.4 -0.1,-0.9 c 2.1,-0.4 3.5,-1.4 4.2,-2.9 0.4,-0.8 0.5,-2.1 0.5,-3.7 l -15.7,0.9 c -1.1,0.1 -1.8,0.3 -2.1,0.7 -0.3,0.4 -0.5,1.3 -0.4,2.6 h -0.8 l -0.7,-11.5 h 0.8 c 0.1,1.3 0.3,2.1 0.7,2.5 0.4,0.4 1.1,0.6 2.2,0.5 l 15.7,-0.9 c -0.1,-1.6 -0.4,-2.8 -0.9,-3.6 -0.9,-1.5 -2.4,-2.3 -4.5,-2.4 l -0.1,-0.9 z" id="path76"></path> <path fill="#eca920" d="m 240.2,240.2 c 0,0.9 0,1.5 0.2,1.8 0.3,0.6 0.8,1 1.7,1 l 14.4,1 c 0.8,0.1 1.4,-0.2 1.8,-0.7 0.2,-0.3 0.4,-0.9 0.5,-1.9 l 0.8,0.1 -0.7,10.9 -0.8,-0.1 c 0,-0.9 -0.1,-1.6 -0.2,-2 -0.3,-0.6 -0.8,-1 -1.7,-1 l -6.2,-0.4 -0.5,7.7 6.2,0.4 c 0.9,0.1 1.5,-0.2 1.8,-0.7 0.2,-0.3 0.4,-1 0.5,-2 l 0.8,0.1 -0.7,11 -0.8,-0.1 c 0,-0.9 -0.1,-1.6 -0.2,-2 -0.3,-0.6 -0.8,-0.9 -1.7,-1 l -14.4,-1 c -0.9,-0.1 -1.5,0.2 -1.8,0.8 -0.2,0.4 -0.4,1 -0.4,1.8 l -0.8,-0.1 0.7,-11 0.8,0.1 c 0,0.9 0,1.6 0.2,2 0.3,0.6 0.8,1 1.7,1 l 6.9,0.5 0.5,-7.7 -6.9,-0.5 c -0.9,-0.1 -1.5,0.2 -1.9,0.9 -0.2,0.4 -0.3,1 -0.4,1.9 l -0.8,-0.1 0.7,-10.9 z" id="path78"></path> <path fill="#eca920" d="m 237.5,266.4 0.7,0.1 c -0.1,0.9 -0.1,1.6 0,2 0.2,0.6 0.7,1 1.6,1.2 l 14.3,2.3 c 0.9,0.1 1.5,-0.1 1.9,-0.6 0.2,-0.3 0.5,-0.9 0.6,-1.9 l 0.7,0.1 -2.9,18.4 -5.9,-0.9 0.1,-0.8 c 2,-0.1 3.4,-0.6 4.2,-1.4 0.9,-0.9 1.5,-2.6 1.9,-5.1 0.2,-1 0.2,-1.6 0,-1.9 -0.2,-0.3 -0.5,-0.5 -1.1,-0.6 l -6.8,-1.1 c -0.3,1.8 -0.2,3.1 0.3,3.8 0.5,0.7 1.6,1.4 3.2,2 l -0.1,0.8 -10,-1.6 0.1,-0.8 c 1.7,0 3,-0.2 3.8,-0.8 0.8,-0.6 1.3,-1.8 1.6,-3.6 l -7.1,-1.1 c -0.6,-0.1 -1.1,0 -1.4,0.3 -0.3,0.3 -0.5,1 -0.7,2.1 -0.3,2 -0.2,3.8 0.3,5.2 0.5,1.4 1.7,2.8 3.6,4.1 l -0.1,0.9 -5.9,-2.3 z" id="path80"></path> <path fill="#eca920" d="m 234.6,289 c -0.2,1.1 -0.2,1.8 0,2.3 0.2,0.5 0.9,0.8 1.9,1.1 l 12.8,3.3 c 1.1,0.3 1.9,0.2 2.4,-0.1 0.3,-0.2 0.6,-0.9 1,-1.9 l 0.7,0.2 -2.6,10.1 c -0.5,2.1 -1.2,3.7 -1.9,4.9 -1.5,2.3 -3.3,3.2 -5.4,2.6 -1.6,-0.4 -2.6,-1.4 -3.2,-2.9 -0.4,-1.2 -0.6,-2.3 -0.5,-3.5 l -9.9,4.5 c -0.3,0.1 -0.5,0.3 -0.6,0.4 -0.1,0.2 -0.2,0.4 -0.3,0.7 l -0.7,-0.2 1.7,-6.5 10.9,-5 v 0 l -5.7,-1.5 c -1,-0.3 -1.7,-0.3 -2.2,0 -0.4,0.3 -0.8,1 -1.1,2 l -0.7,-0.2 2.7,-10.6 z m 6.9,14.8 c 0.3,1 1.3,1.7 3.2,2.2 1.1,0.3 2,0.3 2.8,0.2 1.2,-0.3 2.1,-1.2 2.5,-2.8 0.2,-0.8 0.3,-1.4 0.1,-1.7 -0.1,-0.3 -0.4,-0.5 -0.9,-0.6 l -7.4,-1.9 c -0.4,2.1 -0.6,3.6 -0.3,4.6 z" id="path82"></path> <path fill="#eca920" d="m 228.4,312.9 c -0.2,0.7 -0.1,1.4 0.3,2.1 0.3,0.4 0.9,1.1 1.9,2.1 l 12.8,12.4 -0.3,0.8 -17.2,1.3 c -1.9,0.2 -3.2,0.3 -3.8,0.5 -0.6,0.2 -1,0.6 -1.3,1.3 l -0.7,-0.3 3.6,-9.8 0.7,0.3 c -0.3,1 -0.5,1.7 -0.5,2 0,0.4 0.2,0.6 0.7,0.8 0.2,0.1 0.6,0.1 1.1,0.1 0.3,0 0.7,0 1.1,0 l 2,-0.1 2.5,-6.8 c -0.9,-0.9 -1.6,-1.4 -1.9,-1.7 -0.6,-0.5 -1.1,-0.9 -1.4,-1 -0.4,-0.1 -0.8,0 -1.2,0.6 -0.2,0.3 -0.5,0.8 -0.7,1.5 l -0.7,-0.3 2.3,-6.2 z m 1.7,13.5 7.6,-0.5 0.1,-0.3 -5.5,-5.1 z" id="path84"></path> <path fill="#eca920" d="m 219.7,335.8 c -0.4,1 -0.5,1.7 -0.4,2.2 0.2,0.5 0.7,0.9 1.7,1.4 l 11.9,5.8 c 1,0.5 1.7,0.6 2.2,0.4 0.4,-0.2 0.9,-0.8 1.5,-1.7 l 0.7,0.3 -4.5,9.4 c -1.2,2.5 -2.5,4.2 -3.9,5.1 -1.4,0.9 -3,1 -4.8,0.1 -0.9,-0.4 -1.6,-1.1 -2.1,-2 -0.5,-0.9 -0.7,-2 -0.7,-3.4 0.1,-1 0.3,-2 0.7,-2.9 0.4,-0.9 1,-2.2 1.8,-4 l -5,-2.4 c -1,-0.5 -1.7,-0.6 -2.2,-0.4 -0.5,0.2 -1,0.8 -1.5,1.8 l -0.7,-0.3 4.7,-9.7 z m 3.8,14.9 c 0.1,1.2 1,2.2 2.8,3.1 1.2,0.6 2.3,0.8 3.3,0.8 1,-0.1 1.8,-0.8 2.4,-2 0.3,-0.6 0.4,-1 0.4,-1.3 0,-0.3 -0.2,-0.6 -0.6,-0.7 l -7.2,-3.5 c -0.7,1.7 -1.1,2.9 -1.1,3.6 z" id="path86"></path> <path fill="#eca920" d="m 221.5,374 -0.6,-0.4 c 0.5,-1 0.8,-1.6 0.9,-1.9 0.1,-0.3 0,-0.6 -0.3,-0.7 -0.1,-0.1 -0.3,-0.1 -0.4,-0.2 -0.2,0 -0.5,-0.1 -0.9,-0.1 l -8.3,-0.1 v 0 l 2.7,5.7 c 0.2,0.4 0.4,0.8 0.6,1.2 0.4,0.7 0.8,1.1 1.1,1.3 0.4,0.3 0.9,0.3 1.2,0 0.3,-0.2 0.7,-0.7 1.3,-1.6 l 0.6,0.4 -3.7,6 -0.6,-0.4 c 0.2,-0.5 0.3,-0.9 0.4,-1.2 0,-0.4 0,-0.9 -0.2,-1.3 l -4.7,-10.1 -4.7,-2.9 c -1,-0.6 -1.7,-0.8 -2.2,-0.6 -0.5,0.2 -1.1,0.8 -1.7,1.7 l -0.6,-0.4 5.9,-9.5 0.6,0.4 c -0.6,1 -0.9,1.8 -0.8,2.3 0.1,0.5 0.6,1.1 1.5,1.6 l 3.7,2.3 11.5,0.2 c 0.8,0 1.4,-0.2 1.9,-0.5 0.3,-0.2 0.6,-0.5 0.8,-0.8 l 0.6,0.4 z" id="path88"></path> </g> <g id="g116"> <g id="g102"> <path fill="#eca920" d="m 97.9,410.5 c -0.7,0.7 -1.5,1.3 -2.2,1.7 -0.7,0.4 -1.4,0.7 -2.1,0.7 -0.7,0.1 -1.3,0 -1.9,-0.2 -0.6,-0.2 -1.1,-0.6 -1.6,-1.1 l -1.9,-1.9 9,-9 1.9,1.9 c 0.5,0.5 0.8,1 1.1,1.6 0.2,0.6 0.3,1.2 0.2,1.9 -0.1,0.7 -0.3,1.4 -0.8,2.1 -0.4,0.9 -1,1.6 -1.7,2.3 z M 97,409.7 c 0.6,-0.6 1.1,-1.2 1.5,-1.8 0.3,-0.6 0.6,-1.1 0.7,-1.7 0.1,-0.5 0.1,-1 -0.1,-1.4 -0.1,-0.4 -0.4,-0.8 -0.7,-1.2 l -1,-1 -7.4,7.4 1,1 c 0.3,0.3 0.7,0.6 1.2,0.7 0.4,0.1 0.9,0.2 1.4,0.1 0.5,-0.1 1.1,-0.3 1.7,-0.7 0.5,-0.3 1.1,-0.8 1.7,-1.4 z" id="path92"></path> <path fill="#eca920" d="m 95.9,417.5 9,-9 0.9,0.9 -9,9 z" id="path94"></path> <path fill="#eca920" d="m 103.8,425.3 c -0.5,-0.2 -1,-0.6 -1.4,-1 -0.5,-0.5 -0.8,-1.1 -1,-1.7 -0.2,-0.6 -0.2,-1.3 -0.1,-1.9 0.1,-0.6 0.4,-1.4 0.8,-2.1 0.4,-0.7 1,-1.4 1.7,-2.1 0.7,-0.7 1.4,-1.2 2.1,-1.7 0.7,-0.4 1.4,-0.7 2.1,-0.9 0.7,-0.2 1.3,-0.2 1.9,0 0.6,0.1 1.2,0.5 1.6,0.9 0.4,0.4 0.8,0.9 0.9,1.5 0.2,0.5 0.2,1.1 0.1,1.7 h -1.2 c 0.1,-0.5 0.1,-0.9 0,-1.3 -0.1,-0.4 -0.3,-0.8 -0.6,-1.1 -0.4,-0.4 -0.8,-0.6 -1.3,-0.7 -0.5,-0.1 -1,0 -1.5,0.2 -0.5,0.2 -1.1,0.4 -1.6,0.8 -0.6,0.4 -1.1,0.8 -1.6,1.4 -0.6,0.6 -1,1.1 -1.4,1.7 -0.4,0.6 -0.6,1.1 -0.8,1.6 -0.2,0.5 -0.2,1 -0.1,1.5 0.1,0.5 0.3,0.9 0.7,1.3 0.3,0.3 0.5,0.5 0.8,0.6 0.3,0.1 0.6,0.2 0.8,0.2 l 3,-3 -1.3,-1.3 0.8,-0.8 2.1,2.1 -4.3,4.3 c -0.3,0.1 -0.8,0 -1.2,-0.2 z" id="path96"></path> <path fill="#eca920" d="m 111.3,432.9 4.3,-10.6 v 0 l -7.5,7.5 -0.8,-0.8 9,-9 1.1,1.1 -4.4,10.6 v 0 l 7.5,-7.5 0.8,0.8 -9,9 z" id="path98"></path> <path fill="#eca920" d="m 119.1,440.7 1.7,-2.8 -2.8,-2.8 -2.8,1.7 -0.9,-0.9 11.2,-6.7 1.2,1.2 -6.8,11.2 z m 6.3,-10 v 0 l -6.5,3.9 2.5,2.5 z" id="path100"></path> </g> <g id="g114"> <path fill="#eca920" d="m 160.4,433.3 c 0.4,0.4 0.7,0.8 0.9,1.2 0.2,0.4 0.3,0.8 0.3,1.2 0,0.4 -0.1,0.8 -0.2,1.2 -0.2,0.4 -0.4,0.7 -0.7,1 -0.4,0.4 -0.9,0.8 -1.5,1 -0.6,0.2 -1.1,0.2 -1.7,0.2 l -0.1,-1.1 c 0.5,0.1 0.9,0 1.4,-0.1 0.4,-0.1 0.8,-0.4 1.1,-0.7 0.4,-0.4 0.6,-0.9 0.6,-1.4 0,-0.6 -0.3,-1.1 -0.8,-1.6 -0.3,-0.2 -0.5,-0.4 -0.8,-0.5 -0.3,-0.1 -0.6,-0.2 -0.8,-0.2 -0.3,0 -0.6,0 -0.9,0.1 -0.3,0.1 -0.6,0.1 -0.9,0.2 -0.4,0.1 -0.7,0.2 -1.1,0.3 -0.4,0.1 -0.7,0.1 -1.1,0.1 -0.4,0 -0.7,-0.1 -1.1,-0.3 -0.4,-0.2 -0.7,-0.4 -1.1,-0.8 -0.4,-0.4 -0.7,-0.8 -0.9,-1.2 -0.2,-0.4 -0.3,-0.8 -0.3,-1.3 0,-0.4 0.1,-0.8 0.3,-1.2 0.2,-0.4 0.4,-0.7 0.7,-1 0.4,-0.4 0.8,-0.7 1.3,-0.9 0.5,-0.2 0.9,-0.2 1.4,-0.2 l 0.1,1.1 c -0.4,-0.1 -0.8,0 -1.1,0.1 -0.3,0.1 -0.6,0.3 -0.9,0.6 -0.2,0.2 -0.3,0.4 -0.4,0.6 -0.1,0.2 -0.2,0.5 -0.2,0.7 0,0.3 0.1,0.5 0.2,0.8 0.1,0.3 0.3,0.6 0.6,0.9 0.3,0.2 0.5,0.4 0.8,0.5 0.3,0.1 0.5,0.2 0.8,0.2 0.3,0 0.5,0 0.8,-0.1 0.3,-0.1 0.6,-0.1 0.8,-0.2 0.3,-0.1 0.7,-0.2 1.1,-0.3 0.4,-0.1 0.8,-0.1 1.1,-0.1 0.4,0 0.8,0.1 1.1,0.3 0.5,0.3 0.9,0.6 1.2,0.9 z" id="path104"></path> <path fill="#eca920" d="m 165.1,433.1 -8.8,-8.7 3.5,-3.6 0.8,0.8 -2.7,2.7 3.1,3.1 2.5,-2.5 0.7,0.7 -2.5,2.5 3.4,3.4 2.8,-2.8 0.8,0.8 z" id="path106"></path> <path fill="#eca920" d="m 173.6,424.5 c -0.4,0.4 -0.9,0.7 -1.5,0.9 -0.6,0.2 -1.2,0.2 -1.8,0 -0.6,-0.1 -1.3,-0.4 -2,-0.8 -0.7,-0.4 -1.4,-0.9 -2.1,-1.6 -0.7,-0.7 -1.2,-1.3 -1.6,-2 -0.4,-0.7 -0.7,-1.4 -0.9,-2 -0.1,-0.7 -0.1,-1.3 0,-1.8 0.1,-0.6 0.4,-1.1 0.9,-1.5 0.4,-0.4 0.9,-0.7 1.5,-0.9 0.6,-0.1 1.2,-0.1 1.9,0 0.7,0.1 1.3,0.4 2,0.8 0.7,0.4 1.4,0.9 2,1.6 0.4,0.4 0.8,0.9 1.1,1.3 0.3,0.5 0.6,0.9 0.8,1.4 0.2,0.5 0.3,0.9 0.4,1.3 0.1,0.4 0,0.8 -0.1,1.1 v 0 l 1.8,-1.8 0.8,0.7 z m -2.5,-6.5 c -0.5,-0.5 -1,-0.9 -1.6,-1.3 -0.5,-0.4 -1.1,-0.6 -1.6,-0.8 -0.5,-0.2 -1,-0.2 -1.4,-0.1 -0.4,0.1 -0.8,0.2 -1.1,0.6 -0.3,0.3 -0.5,0.7 -0.6,1.1 -0.1,0.4 0,0.9 0.2,1.4 0.2,0.5 0.4,1 0.8,1.6 0.4,0.5 0.8,1.1 1.3,1.6 0.5,0.5 1.1,0.9 1.6,1.3 0.5,0.3 1.1,0.6 1.6,0.8 0.5,0.2 1,0.2 1.4,0.1 0.4,-0.1 0.8,-0.3 1.1,-0.6 0.3,-0.3 0.5,-0.7 0.5,-1.2 0,-0.5 0,-0.9 -0.2,-1.4 -0.2,-0.5 -0.4,-1 -0.8,-1.6 -0.3,-0.5 -0.7,-1 -1.2,-1.5 z" id="path108"></path> <path fill="#eca920" d="m 181.9,412.5 c 0.3,0.5 0.5,1 0.6,1.5 0.1,0.5 0.1,1 -0.1,1.5 -0.2,0.5 -0.5,1 -0.9,1.5 -0.5,0.5 -0.9,0.8 -1.4,0.9 -0.5,0.2 -1,0.2 -1.5,0.1 -0.5,-0.1 -1,-0.3 -1.5,-0.6 -0.5,-0.3 -1,-0.7 -1.4,-1.2 l -5.7,-5.7 0.9,-0.9 5.6,5.6 c 0.3,0.3 0.7,0.6 1,0.9 0.4,0.3 0.7,0.5 1.1,0.6 0.4,0.1 0.7,0.1 1.1,0.1 0.4,-0.1 0.7,-0.3 1,-0.6 0.3,-0.3 0.5,-0.7 0.6,-1 0.1,-0.3 0,-0.7 -0.1,-1.1 -0.1,-0.4 -0.3,-0.7 -0.6,-1.1 -0.3,-0.4 -0.6,-0.7 -0.9,-1 l -5.6,-5.6 0.9,-0.9 5.7,5.7 c 0.5,0.3 0.9,0.8 1.2,1.3 z" id="path110"></path> <path fill="#eca920" d="m 186.5,411.4 -8.8,-8.7 0.9,-0.9 8.8,8.7 z" id="path112"></path> </g> </g> <path fill="#bb5064" d="m 131.4,325.2 c -0.1,0.1 -0.2,0.2 -0.3,0.4 -0.1,0.2 -0.3,0.3 -0.5,0.4 -0.1,0.1 -0.2,0.1 -0.3,0.1 -0.4,0 -0.4,-0.6 -0.4,-0.9 0,-0.4 -0.1,-0.7 -0.3,-1 -0.3,-0.4 -0.4,-0.2 -0.2,-0.6 0.3,-0.6 1.1,-1.3 1.7,-1.4 0.3,-0.1 0.7,-0.1 1,-0.2 0.4,-0.1 0.7,-0.2 1,-0.2 0.6,-0.1 1.2,0 1.8,0 0.1,0 0.2,0 0.3,0 0.2,-0.1 0.3,-0.4 0.4,-0.6 0.1,-0.2 0.4,-0.3 0.6,-0.3 0.6,-0.3 1.2,-0.6 1.7,-1 0.5,-0.4 0.9,-0.4 1.5,-0.4 0.7,0.1 1.4,0.2 2.1,0.3 0.5,0.1 1.1,0.2 1.6,0.3 0.6,0.2 1.1,0.6 1.6,0.9 1.1,0.6 2.4,1.2 3.6,1.2 0.3,0 0.5,0.3 0.5,0.3 0,0 0,0.8 0,1 -0.1,0.3 -0.2,0.7 -0.3,1 -0.2,0.4 -0.5,0.7 -0.8,0.9 -0.9,0.7 -1.8,1.6 -2.5,2.5 -0.1,0.1 -0.1,0.1 -0.1,0.2 0,0.1 0,0.1 0,0.2 0.2,0.8 0.4,1.6 0.3,2.5 -0.1,0.5 0,1.3 -0.3,1.7 -0.1,0.1 -0.8,1.2 -0.8,1.4 0,0.8 -0.2,1.7 -0.4,2.5 -0.1,0.4 -0.8,1.6 -0.4,2 0.3,0.3 0.4,0.9 0.4,1 0,0.1 -0.4,0.7 -0.4,1 -0.1,0.8 -0.3,1.8 0,2.6 0.1,0.3 0.3,0.6 0.4,0.9 0.3,0.7 0.3,1.6 0.5,2.4 0.1,0.9 0.2,1.8 0.3,2.7 0,0.5 0,1 0.1,1.4 0.1,0.6 0.2,1.1 0.4,1.6 0.5,1.5 1,3 1.5,4.6 0.4,1.6 0.7,3.3 1.4,4.9 1.3,3 3.1,5.6 5.5,7.9 0.4,0.4 0.8,0.8 1.3,1 0.4,0.2 0.8,0.2 1.2,0.3 0.5,0.1 1,0.2 1.6,0.1 0.5,0 1,-0.2 1.5,-0.5 0.5,-0.3 1,-0.6 1.4,-1.1 0.4,-0.6 0.6,-1.3 0.6,-2 0,-0.7 -0.1,-1.4 -0.3,-2.1 -0.1,-0.4 -0.3,-0.8 -0.5,-1.1 -0.2,-0.2 -0.3,-0.4 -0.5,-0.6 -0.2,-0.2 -0.4,-0.4 -0.6,-0.5 -0.3,-0.1 -0.6,-0.1 -0.9,-0.2 -0.3,0 -0.6,0 -0.8,0.1 -0.6,0.2 -0.6,1.1 -0.6,1.7 0,0.1 0,0.2 0,0.3 -0.1,0.3 -0.5,0.4 -0.8,0.4 -0.3,-0.1 -0.6,-0.3 -0.8,-0.6 -0.4,-0.5 -0.8,-1.2 -1,-1.9 -0.1,-0.3 -0.1,-0.5 -0.3,-0.7 -0.1,-0.2 -0.3,-0.4 -0.4,-0.5 -0.5,-0.5 -1,-0.9 -1.6,-1.2 -0.2,-0.1 -0.4,-0.2 -0.5,-0.4 -0.1,-0.1 0,-0.3 0,-0.4 0,-0.5 0.1,-1 0,-1.6 0,-0.6 -0.1,-1.3 -0.1,-1.9 -0.1,-0.7 -0.1,-1.5 -0.2,-2.2 -0.1,-0.5 -0.2,-1.1 -0.4,-1.6 -0.2,-0.4 -0.5,-0.7 -0.8,-1 -0.1,-0.1 -0.7,-0.7 -0.6,-0.9 0,-0.1 1.1,0.5 1.2,0.6 0.6,0.4 1,1 1.3,1.7 0.2,0.5 0.5,1 0.7,1.6 0.1,0.3 0.2,0.5 0.4,0.8 0.2,0.3 0.5,0.3 0.8,0.6 -0.1,-0.8 -0.1,-1.6 -0.1,-2.3 0.1,-1.3 0.1,-2.5 0.7,-3.7 1,-2 2.9,-3.1 4.6,-4.3 0.5,-0.3 0.9,-0.7 1.2,-1.2 0.3,-0.5 0.3,-1.1 0.1,-1.7 -0.2,-0.5 -0.5,-1 -0.9,-1.4 -0.2,-0.2 -0.3,-0.3 -0.5,-0.4 -0.2,-0.1 -0.4,-0.1 -0.5,-0.1 -1.1,-0.1 -2.1,0.1 -3.2,0.4 0,0 0.3,-0.5 0.4,-0.6 0.2,-0.2 0.5,-0.4 0.8,-0.6 0.6,-0.3 1.2,-0.6 1.9,-0.6 0.7,-0.1 1.5,-0.1 2.3,0.1 0.3,0.1 0.8,0.1 1.1,0.2 0.1,0 0.7,0.5 0.8,0.5 0.3,-0.4 0.3,-1.1 0.3,-1.6 0,-0.4 0,-0.8 -0.1,-1.1 0,-0.1 -0.4,-0.9 -0.5,-0.9 0.8,0.2 1.3,0.8 1.9,1.4 1.1,1.2 1.9,2.7 1.1,4.6 -0.3,0.7 -0.8,1.3 -1.3,2 -0.1,0.1 -0.1,0.2 -0.1,0.3 0,0.1 0.1,0.1 0.1,0.2 0.5,0.5 1.7,0.5 2.2,0.1 0.2,-0.2 0.4,-0.5 0.5,-0.8 0.3,-0.7 0.6,-1.5 0.5,-2.3 0,-0.7 -0.2,-1.3 -0.1,-2 0.1,-0.8 0.6,-1.6 1.2,-2.1 0.8,-0.6 1.9,-0.4 2.8,-0.2 -0.6,-0.1 -1.5,0.7 -1.9,1.1 -0.5,0.6 -0.7,1.4 -0.6,2.1 0.1,0.9 0.3,1.8 0.5,2.7 0.1,0.7 0.1,1.3 -0.1,2 -0.1,0.3 -0.2,0.7 -0.4,1 -0.3,0.3 -0.6,0.4 -0.8,0.7 -0.3,0.4 -0.1,0.9 0.1,1.4 0.3,0.6 0.4,1.2 0.1,1.8 -0.2,0.6 -0.7,1.1 -1.2,1.4 -1,0.5 -2.1,0.5 -3.2,0.2 0.6,0.1 1.3,-0.2 1.7,-0.6 0.2,-0.2 0.4,-0.4 0.4,-0.7 0.2,-1.1 -0.9,-2.3 -1.7,-2.8 -1.9,-1.3 -4.5,-0.6 -6.1,0.9 -1.3,1.2 -1.9,3.1 -1.8,4.9 0.1,0.8 0.2,1.9 0.6,2.6 0.7,1.2 1.7,2.2 2.7,3.3 1,1.2 2,2.3 3.1,3.5 0.9,1 1.8,2.1 2.2,3.5 0.7,2.5 0,5.4 -1.9,7.2 -0.8,0.8 -1.8,1.4 -2.9,1.9 -1.7,0.8 -3.5,1.3 -5.4,1.1 -1.5,-0.1 -2.9,-0.6 -4.1,-1.4 -0.3,-0.2 -2.8,-1.7 -2.5,-2.2 -0.4,0.8 -0.8,1.6 -1.3,2.3 -0.6,0.7 -1.2,1.2 -1.6,2 -0.4,0.7 -0.6,1.6 -0.3,2.4 0.1,0.3 0.3,0.5 0.4,0.8 0.4,0.6 0.9,1.3 1.5,1.8 0.5,0.4 1.1,0.5 1.5,0.8 0.7,0.5 0.3,1.1 0.5,1.8 0.2,0.7 0.7,1.2 0.7,1.9 0,0.2 -0.1,0.5 -0.1,0.7 0,0.3 0.2,0.5 0.4,0.7 0.6,0.6 1.3,0.9 2.1,1.1 0.2,0 -0.3,2 -0.3,2.2 -0.4,2.4 -2.1,4.1 -4,5.5 -0.8,0.6 -1.7,1.2 -2.5,1.9 -0.7,0.5 -1.8,1.3 -2.1,2.2 0,0.1 -0.4,1 -0.4,1 -0.4,-0.6 -0.3,-1 0,-1.6 0.1,-0.3 0.2,-0.7 0,-0.9 -0.2,-0.2 -0.5,-0.3 -0.7,-0.3 -0.3,0 -0.6,0 -0.9,0.1 -0.8,0.3 -1,1.2 -1.3,1.8 0.1,-0.1 -0.2,-0.6 -0.2,-0.7 -0.1,-0.4 0,-0.8 0.1,-1.1 0.1,-0.2 0.1,-0.4 0.1,-0.6 0,-0.2 -0.1,-0.3 -0.1,-0.5 0,-0.1 -0.1,-0.2 -0.1,-0.2 -0.1,-0.1 -0.2,-0.1 -0.3,-0.2 -0.2,-0.1 -0.3,-0.1 -0.5,-0.1 -0.5,0 -0.9,1 -1.1,1.4 0,-0.1 -0.1,-0.3 -0.1,-0.4 -0.1,-0.6 0.1,-1.1 0.4,-1.7 0.3,-0.5 0.8,-0.8 1.2,-1.1 0.1,0 0.1,-0.1 0.2,-0.2 0,-0.1 0,-0.1 0,-0.2 -0.1,-0.2 -0.2,-0.4 -0.4,-0.5 -0.2,-0.1 -0.5,-0.1 -0.7,-0.1 -0.1,0 -0.4,0 -0.4,0 0.4,-0.4 1.1,-0.6 1.6,-0.7 0.3,0 0.7,0 1,0 0.4,0 0.7,-0.1 1.1,-0.2 0.7,-0.2 1.4,-0.7 2,-1.2 0.2,-0.2 0.3,-0.4 0.4,-0.6 0,-0.2 0,-0.4 0,-0.6 0,-0.4 0,-0.8 -0.1,-1.2 -0.1,-0.4 -0.1,-0.8 -0.2,-1.2 -0.2,-0.8 -0.5,-1.5 -0.9,-2.2 -0.2,-0.3 -0.4,-0.6 -0.6,-0.9 -0.1,-0.1 -0.2,-0.3 -0.4,-0.4 -0.8,-0.8 -1.8,-1.3 -2.8,-1.6 -0.7,-0.2 -1.4,-0.3 -2,-0.6 -0.7,-0.3 -1.3,-0.8 -1.8,-1.3 -0.3,-0.3 -0.5,-0.5 -0.7,-0.9 -0.1,-0.3 -0.1,-0.6 -0.1,-0.9 0,-1 0,-2 0.2,-3 0.1,-0.5 0.2,-1 0.3,-1.5 0.1,-0.4 0.3,-0.8 0.4,-1.2 0,-0.2 -0.1,-0.4 -0.2,-0.5 -0.1,-0.1 -0.3,-0.1 -0.5,-0.1 -0.5,-0.1 -1.1,-0.1 -1.6,-0.1 -0.4,0 -1.1,-0.2 -1.2,0.3 -0.3,1 -0.2,2.1 -0.1,3.2 0.1,0.9 0.1,1.8 0.2,2.7 0.1,1.4 0.1,2.7 0,4.1 0,0 0,0.1 0,0.1 0,0 -0.1,0 -0.1,0 -1,0.2 -2.1,0.4 -3.1,0.8 -2,0.7 -4,1.1 -6.1,0.9 -0.4,0 -0.8,-0.1 -1.1,0 -0.5,0.2 -0.8,0.6 -1.2,0.9 -0.3,0.3 -0.9,0.7 -1.3,0.8 0.1,-0.1 0.2,-0.8 0.2,-1 0.1,-0.5 0.4,-0.9 0.3,-1.4 0,-0.1 -0.1,-0.3 -0.2,-0.3 -0.1,-0.1 -0.2,-0.1 -0.3,-0.1 -1.2,-0.3 -2.1,0.6 -3.1,1 0.4,-0.7 0.7,-1.3 1.1,-2 0.1,-0.2 0.2,-0.3 0.2,-0.5 0,-0.2 -0.1,-0.3 -0.2,-0.4 -0.3,-0.4 -0.6,-0.8 -1,-1 -0.7,-0.4 -1.4,-0.1 -2.2,0 0.5,-0.3 1.1,-0.6 1.7,-0.8 0.3,-0.1 0.6,-0.2 0.9,-0.3 0.2,-0.1 0.6,-0.1 0.8,-0.2 0.1,-0.1 0.2,-0.2 0.2,-0.4 0.1,-0.3 0.2,-0.6 0.2,-0.8 0,-0.2 -0.1,-0.5 -0.3,-0.7 -0.2,-0.2 -0.5,-0.3 -0.6,-0.5 0,0 0.5,0.1 0.6,0.1 0.3,0.1 0.5,0.2 0.8,0.4 0.5,0.3 0.9,0.7 1.3,1.1 0.4,0.3 0.7,0.7 1.2,0.9 0.5,0.3 1.2,0.2 1.7,0 0.6,-0.2 1.1,-0.2 1.7,-0.3 0.5,0 1.1,-0.2 1.4,-0.7 0.1,-0.2 0.2,-0.5 0.2,-0.7 0,-0.6 -0.2,-1.2 -0.4,-1.8 -0.4,-1 -0.7,-2.1 -1.3,-3 -0.6,-0.9 -1.2,-1.8 -1.6,-2.8 -0.4,-1.1 -0.6,-2.3 -0.3,-3.5 0.1,-0.5 0.3,-0.9 0.7,-1.2 0.2,-0.2 0.4,-0.3 0.6,-0.5 1.4,-0.9 2.9,-1.4 4.5,-1.7 1.7,-0.3 3.4,-0.6 5.1,-0.5 0.5,0 1,0.1 1.5,0.2 0.6,0.1 1.2,0.3 1.8,0.5 0.3,0.1 1,0.6 1.2,0.1 0.3,-0.8 0.3,-1.8 -0.2,-2.5 -0.2,-0.4 -0.6,-0.6 -0.9,-0.9 -0.5,-0.4 -0.9,-0.9 -1.3,-1.3 -0.7,-0.5 -1.5,-0.8 -2.2,-1.4 -0.3,-0.2 -0.5,-0.4 -0.6,-0.7 -0.1,-0.2 -0.2,-0.5 -0.2,-0.7 0,-0.2 -0.2,-0.5 -0.2,-0.7 -0.1,0.2 -0.3,0.4 -0.5,0.6 -0.3,0.2 -0.7,0.3 -1.1,0.5 -0.8,0.4 -1.6,0.7 -2.3,1 -1.6,0.7 -3.2,1.2 -4.8,1.7 -3.2,1 -6.6,1.6 -10,1.7 -0.8,0 -1.7,-0.3 -2.5,0 -0.9,0.4 -1,1.4 -1.2,2.2 -0.3,-0.4 -0.4,-1 -0.5,-1.5 -0.1,-0.5 0,-1.2 -0.4,-1.6 -0.1,-0.1 -0.2,-0.1 -0.4,-0.1 -0.4,0 -0.8,0 -1.1,0.3 -0.2,0.2 -0.9,0.9 -1,1.1 -0.2,-1 0.5,-2 0.6,-3 0,-0.1 0,-0.2 0,-0.3 0,-0.1 -0.1,-0.2 -0.2,-0.2 -0.3,-0.2 -0.6,-0.2 -0.9,-0.2 -0.3,0.1 -0.7,0.2 -0.9,0.3 -0.2,0.1 0.2,-0.4 0.2,-0.4 0.1,-0.1 0.2,-0.3 0.4,-0.4 0.3,-0.2 0.6,-0.4 0.9,-0.5 0.8,-0.4 2,-0.8 2,-1.9 0,-0.4 -0.2,-0.8 -0.4,-1.1 -0.1,-0.2 -0.5,-0.7 -0.8,-0.8 0.5,0.1 1.1,0.2 1.5,0.5 0.3,0.3 0.4,0.7 0.7,1 0.5,0.6 1.2,0.6 1.9,0.6 0.8,0.1 1.6,0.2 2.5,0.1 0.4,-0.1 0.9,-0.3 1.3,-0.5 0.4,-0.2 0.8,-0.3 1.2,-0.5 0.9,-0.4 1.8,-1 2.6,-1.5 0.3,-0.2 0.5,-0.4 0.8,-0.5 0.3,-0.1 0.6,-0.2 0.8,-0.3 1,-0.3 2,-0.4 3.1,-0.5 0.1,0 0.1,0 0.2,0 0,0 0.1,-0.1 0.1,-0.1 0.6,-0.5 0.9,-1 1.2,-1.7 -0.2,0.4 -1.4,0.1 -1.7,0 -1,-0.2 -1.9,-0.7 -2.8,-1.1 -2,-1.1 -3.9,-2.6 -5,-4.6 -0.2,-0.4 -0.4,-0.8 -0.6,-1.1 -0.3,-0.6 -0.6,-1.1 -0.9,-1.7 -0.2,-0.5 -0.3,-1.1 -0.4,-1.7 -0.2,-0.6 -0.4,-1.2 -0.7,-1.7 -0.1,-0.3 -0.3,-0.5 -0.5,-0.7 -0.8,-0.8 -2,-1.7 -3.1,-1.7 0.4,-0.1 0.7,-0.2 1.1,-0.3 0.7,-0.2 1.3,-0.4 1.9,-0.8 0.3,-0.2 0.4,-0.7 0.4,-1.1 0,-0.2 -0.1,-0.3 -0.2,-0.5 -0.2,-0.4 -0.5,-0.7 -0.7,-1.1 -0.1,-0.1 -0.2,-0.3 -0.4,-0.4 -0.1,-0.1 -0.3,-0.5 -0.4,-0.5 0.2,0.1 0.5,0.2 0.7,0.3 0.6,0.2 1.1,0.4 1.6,0.7 0.4,0.2 1.3,0.6 1.7,0.2 0.1,-0.1 0.1,-0.3 0.1,-0.5 0,-0.8 0.1,-1.7 0,-2.5 0,-0.3 0.2,0 0.3,0.2 0.4,0.5 0.6,1.2 0.9,1.8 0.4,0.8 1,1.4 1.9,1.1 0.7,-0.2 1.1,-1 1.3,-1.6 0,0 0,1.2 0,1.2 -0.1,0.5 -0.4,0.8 -0.6,1.2 -0.4,0.5 -0.6,1.2 -0.5,1.9 0.2,1.7 1.1,3.1 1.9,4.5 0.4,0.7 0.8,1.4 1.4,2 0.4,0.4 0.9,0.8 1.3,1.2 0.3,0.4 0.6,1 1,1.3 0.7,0.6 2.2,0.6 2.9,0 0.2,-0.2 0.3,-0.4 0.4,-0.6 0.5,-0.8 1,-1.5 1.3,-2.3 0.4,-0.9 0.6,-1.8 1,-2.7 0.2,-0.5 0.4,-1.1 0.6,-1.6 0.1,-0.2 0.2,-0.4 0.3,-0.7 0.5,-1 1.4,-1.6 2.4,-2.1 0.6,-0.4 1.2,-0.5 1.8,-0.8 -0.6,-0.3 -1.2,0 -1.8,0 -0.4,0 -0.8,-0.1 -1.1,-0.4 -0.2,-0.2 -0.4,-0.4 -0.5,-0.7 -0.2,-0.3 -0.3,-0.6 -0.3,-0.9 0,-0.3 0,-0.5 0,-0.8 0,-0.3 0,-0.7 -0.2,-0.9 -0.1,-0.3 -0.4,-0.5 -0.5,-0.8 0,-0.1 0,-0.3 -0.1,-0.4 -0.1,-0.2 -0.4,-0.3 -0.6,-0.3 -0.6,-0.1 -1.1,-0.2 -1.7,0 -0.3,0.1 -0.7,0.2 -1,0 -0.1,-0.1 -0.2,-0.2 -0.3,-0.3 -0.4,-0.6 -0.9,-1.3 -1.4,-1.8 -0.1,-0.1 -0.3,-0.3 -0.4,-0.4 -0.3,-0.4 -0.4,-0.9 -0.5,-1.4 0.1,0.2 0.3,0.3 0.4,0.4 0.2,0.1 0.4,0.4 0.5,0.6 0.2,0.3 0.3,0.5 0.5,0.8 0.2,0.4 0.6,0.6 0.9,0.9 0.5,0.3 1,0.5 1.6,0.6 0.5,0.1 1.1,0 1.6,0 0.9,0.1 1.7,0.6 2.2,1.3 0.5,0.7 0.9,1.2 1.9,1.1 0.7,-0.1 1.3,-0.6 1.8,-1.1 0.4,-0.3 0.7,-0.7 0.8,-1.2 0.2,-0.6 -0.1,-1.2 -0.5,-1.7 -0.4,-0.4 -1,-0.7 -1.6,-0.8 -0.5,-0.1 -1,-0.2 -1.5,-0.1 -0.6,-1 -0.8,-0.9 -1,-0.7 z" id="path118"></path> <path fill="#bb5064" d="m 88.1,202.1 c -0.1,0.1 -0.2,0.2 -0.3,0.4 -0.1,0.2 -0.3,0.3 -0.5,0.4 -0.1,0.1 -0.2,0.1 -0.3,0.1 -0.4,0 -0.4,-0.6 -0.4,-0.9 0,-0.4 -0.1,-0.7 -0.3,-1 -0.3,-0.4 -0.4,-0.2 -0.2,-0.6 0.3,-0.6 1.1,-1.3 1.7,-1.4 0.3,-0.1 0.7,-0.1 1,-0.2 0.4,-0.1 0.7,-0.2 1,-0.2 0.6,-0.1 1.2,0 1.8,0 0.1,0 0.2,0 0.3,0 0.2,-0.1 0.3,-0.4 0.4,-0.6 0.1,-0.2 0.4,-0.3 0.6,-0.3 0.6,-0.3 1.2,-0.6 1.7,-1 0.5,-0.4 0.9,-0.4 1.5,-0.4 0.7,0.1 1.4,0.2 2.1,0.3 0.5,0.1 1.1,0.2 1.6,0.3 0.6,0.2 1.1,0.6 1.6,0.9 1.1,0.6 2.4,1.2 3.6,1.2 0.3,0 0.5,0.3 0.5,0.3 0,0 0,0.8 0,1 -0.1,0.3 -0.2,0.7 -0.3,1 -0.2,0.4 -0.5,0.7 -0.8,0.9 -0.9,0.7 -1.8,1.6 -2.5,2.5 -0.1,0.1 -0.1,0.1 -0.1,0.2 0,0.1 0,0.1 0,0.2 0.2,0.8 0.4,1.6 0.3,2.5 -0.1,0.5 0,1.3 -0.3,1.7 -0.1,0.1 -0.8,1.2 -0.8,1.4 0,0.8 -0.2,1.7 -0.4,2.5 -0.1,0.4 -0.8,1.6 -0.4,2 0.3,0.3 0.4,0.9 0.4,1 0,0.1 -0.4,0.7 -0.4,1 -0.1,0.8 -0.3,1.8 0,2.6 0.1,0.3 0.3,0.6 0.4,0.9 0.3,0.7 0.3,1.6 0.5,2.4 0.1,0.9 0.2,1.8 0.3,2.7 0,0.5 0,1 0.1,1.4 0.1,0.6 0.2,1.1 0.4,1.6 0.5,1.5 1,3 1.5,4.6 0.4,1.6 0.7,3.3 1.4,4.9 1.3,3 3.1,5.6 5.5,7.9 0.4,0.4 0.8,0.8 1.3,1 0.4,0.2 0.8,0.2 1.2,0.3 0.5,0.1 1,0.2 1.6,0.1 0.5,0 1,-0.2 1.5,-0.5 0.5,-0.3 1,-0.6 1.4,-1.1 0.4,-0.6 0.6,-1.3 0.6,-2 0,-0.7 -0.1,-1.4 -0.3,-2.1 -0.1,-0.4 -0.3,-0.8 -0.5,-1.1 -0.2,-0.2 -0.3,-0.4 -0.5,-0.6 -0.2,-0.2 -0.4,-0.4 -0.6,-0.5 -0.3,-0.1 -0.6,-0.1 -0.9,-0.2 -0.3,0 -0.6,0 -0.8,0.1 -0.6,0.2 -0.6,1.1 -0.6,1.7 0,0.1 0,0.2 0,0.3 -0.1,0.3 -0.5,0.4 -0.8,0.4 -0.3,-0.1 -0.6,-0.3 -0.8,-0.6 -0.4,-0.5 -0.8,-1.2 -1,-1.9 -0.1,-0.3 -0.1,-0.5 -0.3,-0.7 -0.1,-0.2 -0.3,-0.4 -0.4,-0.5 -0.5,-0.5 -1,-0.9 -1.6,-1.2 -0.2,-0.1 -0.4,-0.2 -0.5,-0.4 -0.1,-0.1 0,-0.3 0,-0.4 0,-0.5 0.1,-1 0,-1.6 0,-0.6 -0.1,-1.3 -0.1,-1.9 -0.1,-0.7 -0.1,-1.5 -0.2,-2.2 -0.1,-0.5 -0.2,-1.1 -0.4,-1.6 -0.2,-0.4 -0.5,-0.7 -0.8,-1 -0.1,-0.1 -0.7,-0.7 -0.6,-0.9 0,-0.1 1.1,0.5 1.2,0.6 0.6,0.4 1,1 1.3,1.7 0.2,0.5 0.5,1 0.7,1.6 0.1,0.3 0.2,0.5 0.4,0.8 0.2,0.3 0.5,0.3 0.8,0.6 -0.1,-0.8 -0.1,-1.6 -0.1,-2.3 0.1,-1.3 0.1,-2.5 0.7,-3.7 1,-2 2.9,-3.1 4.6,-4.3 0.5,-0.3 0.9,-0.7 1.2,-1.2 0.3,-0.5 0.3,-1.1 0.1,-1.7 -0.2,-0.5 -0.5,-1 -0.9,-1.4 -0.2,-0.2 -0.3,-0.3 -0.5,-0.4 -0.2,-0.1 -0.4,-0.1 -0.5,-0.1 -1.1,-0.1 -2.1,0.1 -3.2,0.4 0,0 0.3,-0.5 0.4,-0.6 0.2,-0.2 0.5,-0.4 0.8,-0.6 0.6,-0.3 1.2,-0.6 1.9,-0.6 0.7,-0.1 1.5,-0.1 2.3,0.1 0.3,0.1 0.8,0.1 1.1,0.2 0.1,0 0.7,0.5 0.8,0.5 0.3,-0.4 0.3,-1.1 0.3,-1.6 0,-0.4 0,-0.8 -0.1,-1.1 0,-0.1 -0.4,-0.9 -0.5,-0.9 0.8,0.2 1.3,0.8 1.9,1.4 1.1,1.2 1.9,2.7 1.1,4.6 -0.3,0.7 -0.8,1.3 -1.3,2 -0.1,0.1 -0.1,0.2 -0.1,0.3 0,0.1 0.1,0.1 0.1,0.2 0.5,0.5 1.7,0.5 2.2,0.1 0.2,-0.2 0.4,-0.5 0.5,-0.8 0.3,-0.7 0.6,-1.5 0.5,-2.3 0,-0.7 -0.2,-1.3 -0.1,-2 0.1,-0.8 0.6,-1.6 1.2,-2.1 0.8,-0.6 1.9,-0.4 2.8,-0.2 -0.6,-0.1 -1.5,0.7 -1.9,1.1 -0.5,0.6 -0.7,1.4 -0.6,2.1 0.1,0.9 0.3,1.8 0.5,2.7 0.1,0.7 0.1,1.3 -0.1,2 -0.1,0.3 -0.2,0.7 -0.4,1 -0.3,0.3 -0.6,0.4 -0.8,0.7 -0.3,0.4 -0.1,0.9 0.1,1.4 0.3,0.6 0.4,1.2 0.1,1.8 -0.2,0.6 -0.7,1.1 -1.2,1.4 -1,0.5 -2.1,0.5 -3.2,0.2 0.6,0.1 1.3,-0.2 1.7,-0.6 0.2,-0.2 0.4,-0.4 0.4,-0.7 0.2,-1.1 -0.9,-2.3 -1.7,-2.8 -1.9,-1.3 -4.5,-0.6 -6.1,0.9 -1.3,1.2 -1.9,3.1 -1.8,4.9 0.1,0.8 0.2,1.9 0.6,2.6 0.7,1.2 1.7,2.2 2.7,3.3 1,1.2 2,2.3 3.1,3.5 0.9,1 1.8,2.1 2.2,3.5 0.7,2.5 0,5.4 -1.9,7.2 -0.8,0.8 -1.8,1.4 -2.9,1.9 -1.7,0.8 -3.5,1.3 -5.4,1.1 -1.5,-0.1 -2.9,-0.6 -4.1,-1.4 -0.3,-0.2 -2.8,-1.7 -2.5,-2.2 -0.4,0.8 -0.8,1.6 -1.3,2.3 -0.6,0.7 -1.2,1.2 -1.6,2 -0.4,0.7 -0.6,1.6 -0.3,2.4 0.1,0.3 0.3,0.5 0.4,0.8 0.4,0.6 0.9,1.3 1.5,1.8 0.5,0.4 1.1,0.5 1.5,0.8 0.7,0.5 0.3,1.1 0.5,1.8 0.2,0.7 0.7,1.2 0.7,1.9 0,0.2 -0.1,0.5 -0.1,0.7 0,0.3 0.2,0.5 0.4,0.7 0.6,0.6 1.3,0.9 2.1,1.1 0.2,0 -0.3,2 -0.3,2.2 -0.4,2.4 -2.1,4.1 -4,5.5 -0.8,0.6 -1.7,1.2 -2.5,1.9 -0.7,0.5 -1.8,1.3 -2.1,2.2 0,0.1 -0.4,1 -0.4,1 -0.4,-0.6 -0.3,-1 0,-1.6 0.1,-0.3 0.2,-0.7 0,-0.9 -0.2,-0.2 -0.5,-0.3 -0.7,-0.3 -0.3,0 -0.6,0 -0.9,0.1 -0.8,0.3 -1,1.2 -1.3,1.8 0.1,-0.1 -0.2,-0.6 -0.2,-0.7 -0.1,-0.4 0,-0.8 0.1,-1.1 0.1,-0.2 0.1,-0.4 0.1,-0.6 0,-0.2 -0.1,-0.3 -0.1,-0.5 0,-0.1 -0.1,-0.2 -0.1,-0.2 -0.1,-0.1 -0.2,-0.1 -0.3,-0.2 -0.2,-0.1 -0.3,-0.1 -0.5,-0.1 -0.5,0 -0.9,1 -1.1,1.4 0,-0.1 -0.1,-0.3 -0.1,-0.4 -0.1,-0.6 0.1,-1.1 0.4,-1.7 0.3,-0.5 0.8,-0.8 1.2,-1.1 0.1,0 0.1,-0.1 0.2,-0.2 0,-0.1 0,-0.1 0,-0.2 -0.1,-0.2 -0.2,-0.4 -0.4,-0.5 -0.2,-0.1 -0.5,-0.1 -0.7,-0.1 -0.1,0 -0.4,0 -0.4,0 0.4,-0.4 1.1,-0.6 1.6,-0.7 0.3,0 0.7,0 1,0 0.4,0 0.7,-0.1 1.1,-0.2 0.7,-0.2 1.4,-0.7 2,-1.2 0.2,-0.2 0.3,-0.4 0.4,-0.6 0,-0.2 0,-0.4 0,-0.6 0,-0.4 0,-0.8 -0.1,-1.2 0,-0.4 -0.1,-0.8 -0.2,-1.2 -0.2,-0.8 -0.5,-1.5 -0.9,-2.2 -0.2,-0.3 -0.4,-0.6 -0.6,-0.9 -0.1,-0.1 -0.2,-0.3 -0.4,-0.4 -0.8,-0.8 -1.8,-1.3 -2.8,-1.6 -0.7,-0.2 -1.4,-0.3 -2,-0.6 -0.7,-0.3 -1.3,-0.8 -1.8,-1.3 -0.3,-0.3 -0.5,-0.5 -0.7,-0.9 -0.1,-0.3 -0.1,-0.6 -0.1,-0.9 0,-1 0,-2 0.2,-3 0.1,-0.5 0.2,-1 0.3,-1.5 0.1,-0.4 0.3,-0.8 0.4,-1.2 0,-0.2 -0.1,-0.4 -0.2,-0.5 -0.1,-0.1 -0.3,-0.1 -0.5,-0.1 -0.5,-0.1 -1.1,-0.1 -1.6,-0.1 -0.4,0 -1.1,-0.2 -1.2,0.3 -0.3,1 -0.2,2.1 -0.1,3.2 0.1,0.9 0.1,1.8 0.2,2.7 0.1,1.4 0.1,2.7 0,4.1 0,0 0,0.1 0,0.1 0,0 -0.1,0 -0.1,0 -1,0.2 -2.1,0.4 -3.1,0.8 -2,0.7 -4,1.1 -6.1,0.9 -0.4,0 -0.8,-0.1 -1.1,0 -0.5,0.2 -0.8,0.6 -1.2,0.9 -0.3,0.3 -0.9,0.7 -1.3,0.8 0.1,-0.1 0.2,-0.8 0.2,-1 0.1,-0.5 0.4,-0.9 0.3,-1.4 0,-0.1 -0.1,-0.3 -0.2,-0.3 -0.1,-0.1 -0.2,-0.1 -0.3,-0.1 -1.2,-0.3 -2.1,0.6 -3.1,1 0.4,-0.7 0.7,-1.3 1.1,-2 0.1,-0.2 0.2,-0.3 0.2,-0.5 0,-0.2 -0.1,-0.3 -0.2,-0.4 -0.3,-0.4 -0.6,-0.8 -1,-1 -0.7,-0.4 -1.4,-0.1 -2.2,0 0.5,-0.3 1.1,-0.6 1.7,-0.8 0.3,-0.1 0.6,-0.2 0.9,-0.3 0.2,-0.1 0.6,-0.1 0.8,-0.2 0.1,-0.1 0.2,-0.2 0.2,-0.4 0.1,-0.3 0.2,-0.6 0.2,-0.8 0,-0.2 -0.1,-0.5 -0.3,-0.7 -0.2,-0.2 -0.5,-0.3 -0.6,-0.5 0,0 0.5,0.1 0.6,0.1 0.3,0.1 0.5,0.2 0.8,0.4 0.5,0.3 0.9,0.7 1.3,1.1 0.4,0.3 0.7,0.7 1.2,0.9 0.5,0.3 1.2,0.2 1.7,0 0.6,-0.2 1.1,-0.2 1.7,-0.3 0.5,0 1.1,-0.2 1.4,-0.7 0.1,-0.2 0.2,-0.5 0.2,-0.7 0,-0.6 -0.2,-1.2 -0.4,-1.8 -0.4,-1 -0.7,-2.1 -1.3,-3 -0.6,-0.9 -1.2,-1.8 -1.6,-2.8 -0.4,-1.1 -0.6,-2.3 -0.3,-3.5 0.1,-0.5 0.3,-0.9 0.7,-1.2 0.2,-0.2 0.4,-0.3 0.6,-0.5 1.4,-0.9 2.9,-1.4 4.5,-1.7 1.7,-0.3 3.4,-0.6 5.1,-0.5 0.5,0 1,0.1 1.5,0.2 0.6,0.1 1.2,0.3 1.8,0.5 0.3,0.1 1,0.6 1.2,0.1 0.3,-0.8 0.3,-1.8 -0.2,-2.5 -0.2,-0.4 -0.6,-0.6 -0.9,-0.9 -0.5,-0.4 -0.9,-0.9 -1.3,-1.3 -0.7,-0.5 -1.5,-0.8 -2.2,-1.4 -0.3,-0.2 -0.5,-0.4 -0.6,-0.7 -0.1,-0.2 -0.2,-0.5 -0.2,-0.7 0,-0.2 -0.2,-0.5 -0.2,-0.7 -0.1,0.2 -0.3,0.4 -0.5,0.6 -0.3,0.2 -0.7,0.3 -1.1,0.5 -0.8,0.4 -1.6,0.7 -2.3,1 -1.6,0.7 -3.2,1.2 -4.8,1.7 -3.2,1 -6.6,1.6 -10,1.7 -0.8,0 -1.7,-0.3 -2.5,0 -0.9,0.4 -1,1.4 -1.2,2.2 -0.3,-0.4 -0.4,-1 -0.5,-1.5 -0.1,-0.5 0,-1.2 -0.4,-1.6 -0.1,-0.1 -0.2,-0.1 -0.4,-0.1 -0.4,0 -0.8,0 -1.1,0.3 -0.2,0.2 -0.9,0.9 -1,1.1 -0.2,-1 0.5,-2 0.6,-3 0,-0.1 0,-0.2 0,-0.3 0,-0.1 -0.1,-0.2 -0.2,-0.2 -0.3,-0.2 -0.6,-0.2 -0.9,-0.2 -0.3,0.1 -0.7,0.2 -0.9,0.3 -0.2,0.1 0.2,-0.4 0.2,-0.4 0.1,-0.1 0.2,-0.3 0.4,-0.4 0.3,-0.2 0.6,-0.4 0.9,-0.5 0.8,-0.4 2,-0.8 2,-1.9 0,-0.4 -0.2,-0.8 -0.4,-1.1 -0.1,-0.2 -0.5,-0.7 -0.8,-0.8 0.5,0.1 1.1,0.2 1.5,0.5 0.3,0.3 0.4,0.7 0.7,1 0.5,0.6 1.2,0.6 1.9,0.6 0.8,0.1 1.6,0.2 2.5,0.1 0.4,-0.1 0.9,-0.3 1.3,-0.5 0.4,-0.2 0.8,-0.3 1.2,-0.5 0.9,-0.4 1.8,-1 2.6,-1.5 0.3,-0.2 0.5,-0.4 0.8,-0.5 0.3,-0.1 0.6,-0.2 0.8,-0.3 1,-0.3 2,-0.4 3.1,-0.5 0.1,0 0.1,0 0.2,0 0,0 0.1,-0.1 0.1,-0.1 0.6,-0.5 0.9,-1 1.2,-1.7 -0.2,0.4 -1.4,0.1 -1.7,0 -1,-0.2 -1.9,-0.7 -2.8,-1.1 -2,-1.1 -3.9,-2.6 -5,-4.6 -0.2,-0.4 -0.4,-0.8 -0.6,-1.1 -0.3,-0.6 -0.6,-1.1 -0.9,-1.7 -0.2,-0.5 -0.3,-1.1 -0.4,-1.7 -0.2,-0.6 -0.4,-1.2 -0.7,-1.7 -0.1,-0.3 -0.3,-0.5 -0.5,-0.7 -0.8,-0.8 -2,-1.7 -3.1,-1.7 0.4,-0.1 0.7,-0.2 1.1,-0.3 0.7,-0.2 1.3,-0.4 1.9,-0.8 0.3,-0.2 0.4,-0.7 0.4,-1.1 0,-0.2 -0.1,-0.3 -0.2,-0.5 -0.2,-0.4 -0.5,-0.7 -0.7,-1.1 -0.1,-0.1 -0.2,-0.3 -0.4,-0.4 -0.1,-0.1 -0.3,-0.5 -0.4,-0.5 0.2,0.1 0.5,0.2 0.7,0.3 0.6,0.2 1.1,0.4 1.6,0.7 0.4,0.2 1.3,0.6 1.7,0.2 0.1,-0.1 0.1,-0.3 0.1,-0.5 0,-0.8 0.1,-1.7 0,-2.5 0,-0.3 0.2,0 0.3,0.2 0.4,0.5 0.6,1.2 0.9,1.8 0.4,0.8 1,1.4 1.9,1.1 0.7,-0.2 1.1,-1 1.3,-1.6 0,0 0,1.2 0,1.2 -0.1,0.5 -0.4,0.8 -0.6,1.2 -0.4,0.5 -0.6,1.2 -0.5,1.9 0.2,1.7 1.1,3.1 1.9,4.5 0.4,0.7 0.8,1.4 1.4,2 0.4,0.4 0.9,0.8 1.3,1.2 0.3,0.4 0.6,1 1,1.3 0.7,0.6 2.2,0.6 2.9,0 0.2,-0.2 0.3,-0.4 0.4,-0.6 0.5,-0.8 1,-1.5 1.3,-2.3 0.4,-0.9 0.6,-1.8 1,-2.7 0.2,-0.5 0.4,-1.1 0.6,-1.6 0.1,-0.2 0.2,-0.4 0.3,-0.7 0.5,-1 1.4,-1.6 2.4,-2.1 0.6,-0.4 1.2,-0.5 1.8,-0.8 -0.6,-0.3 -1.2,0 -1.8,0 -0.4,0 -0.8,-0.1 -1.1,-0.4 -0.2,-0.2 -0.4,-0.4 -0.5,-0.7 -0.2,-0.3 -0.3,-0.6 -0.3,-0.9 0,-0.3 0,-0.5 0,-0.8 0,-0.3 0,-0.7 -0.2,-0.9 -0.1,-0.3 -0.4,-0.5 -0.5,-0.8 0,-0.1 0,-0.3 -0.1,-0.4 -0.1,-0.2 -0.4,-0.3 -0.6,-0.3 -0.6,-0.1 -1.1,-0.2 -1.7,0 -0.3,0.1 -0.7,0.2 -1,0 -0.1,-0.1 -0.2,-0.2 -0.3,-0.3 -0.4,-0.6 -0.9,-1.3 -1.4,-1.8 -0.1,-0.1 -0.3,-0.3 -0.4,-0.4 -0.3,-0.4 -0.4,-0.9 -0.5,-1.4 0.1,0.2 0.3,0.3 0.4,0.4 0.2,0.1 0.4,0.4 0.5,0.6 0.2,0.3 0.3,0.5 0.5,0.8 0.2,0.4 0.6,0.6 0.9,0.9 0.5,0.3 1,0.5 1.6,0.6 0.5,0.1 1.1,0 1.6,0 0.9,0.1 1.7,0.6 2.2,1.3 0.5,0.7 0.9,1.2 1.9,1.1 0.7,-0.1 1.3,-0.6 1.8,-1.1 0.4,-0.3 0.7,-0.7 0.8,-1.2 0.2,-0.6 -0.1,-1.2 -0.5,-1.7 -0.4,-0.4 -1,-0.7 -1.6,-0.8 -0.5,-0.1 -1,-0.2 -1.5,-0.1 -0.6,-1 -0.8,-0.9 -1,-0.7 z" id="path120"></path> <path fill="#bb5064" d="m 174.8,202.1 c -0.1,0.1 -0.2,0.2 -0.3,0.4 -0.1,0.2 -0.3,0.3 -0.5,0.4 -0.1,0.1 -0.2,0.1 -0.3,0.1 -0.4,0 -0.4,-0.6 -0.4,-0.9 0,-0.4 -0.1,-0.7 -0.3,-1 -0.3,-0.4 -0.4,-0.2 -0.2,-0.6 0.3,-0.6 1.1,-1.3 1.7,-1.4 0.3,-0.1 0.7,-0.1 1,-0.2 0.4,-0.1 0.7,-0.2 1,-0.2 0.6,-0.1 1.2,0 1.8,0 0.1,0 0.2,0 0.3,0 0.2,-0.1 0.3,-0.4 0.4,-0.6 0.1,-0.2 0.4,-0.3 0.6,-0.3 0.6,-0.3 1.2,-0.6 1.7,-1 0.5,-0.4 0.9,-0.4 1.5,-0.4 0.7,0.1 1.4,0.2 2.1,0.3 0.5,0.1 1.1,0.2 1.6,0.3 0.6,0.2 1.1,0.6 1.6,0.9 1.1,0.6 2.4,1.2 3.6,1.2 0.3,0 0.5,0.3 0.5,0.3 0,0 0,0.8 0,1 -0.1,0.3 -0.2,0.7 -0.3,1 -0.2,0.4 -0.5,0.7 -0.8,0.9 -0.9,0.7 -1.8,1.6 -2.5,2.5 -0.1,0.1 -0.1,0.1 -0.1,0.2 0,0.1 0,0.1 0,0.2 0.2,0.8 0.4,1.6 0.3,2.5 -0.1,0.5 0,1.3 -0.3,1.7 -0.1,0.1 -0.8,1.2 -0.8,1.4 0,0.8 -0.2,1.7 -0.4,2.5 -0.1,0.4 -0.8,1.6 -0.4,2 0.3,0.3 0.4,0.9 0.4,1 0,0.1 -0.4,0.7 -0.4,1 -0.1,0.8 -0.3,1.8 0,2.6 0.1,0.3 0.3,0.6 0.4,0.9 0.3,0.7 0.3,1.6 0.5,2.4 0.1,0.9 0.2,1.8 0.3,2.7 0,0.5 0,1 0.1,1.4 0.1,0.6 0.2,1.1 0.4,1.6 0.5,1.5 1,3 1.5,4.6 0.4,1.6 0.7,3.3 1.4,4.9 1.3,3 3.1,5.6 5.5,7.9 0.4,0.4 0.8,0.8 1.3,1 0.4,0.2 0.8,0.2 1.2,0.3 0.5,0.1 1,0.2 1.6,0.1 0.5,0 1,-0.2 1.5,-0.5 0.5,-0.3 1,-0.6 1.4,-1.1 0.4,-0.6 0.6,-1.3 0.6,-2 0,-0.7 -0.1,-1.4 -0.3,-2.1 -0.1,-0.4 -0.3,-0.8 -0.5,-1.1 -0.2,-0.2 -0.3,-0.4 -0.5,-0.6 -0.2,-0.2 -0.4,-0.4 -0.6,-0.5 -0.3,-0.1 -0.6,-0.1 -0.9,-0.2 -0.3,0 -0.6,0 -0.8,0.1 -0.6,0.2 -0.6,1.1 -0.6,1.7 0,0.1 0,0.2 0,0.3 -0.1,0.3 -0.5,0.4 -0.8,0.4 -0.3,-0.1 -0.6,-0.3 -0.8,-0.6 -0.4,-0.5 -0.8,-1.2 -1,-1.9 -0.1,-0.3 -0.1,-0.5 -0.3,-0.7 -0.1,-0.2 -0.3,-0.4 -0.4,-0.5 -0.5,-0.5 -1,-0.9 -1.6,-1.2 -0.2,-0.1 -0.4,-0.2 -0.5,-0.4 -0.1,-0.1 0,-0.3 0,-0.4 0,-0.5 0.1,-1 0,-1.6 0,-0.6 -0.1,-1.3 -0.1,-1.9 -0.1,-0.7 -0.1,-1.5 -0.2,-2.2 -0.1,-0.5 -0.2,-1.1 -0.4,-1.6 -0.2,-0.4 -0.5,-0.7 -0.8,-1 -0.1,-0.1 -0.7,-0.7 -0.6,-0.9 0,-0.1 1.1,0.5 1.2,0.6 0.6,0.4 1,1 1.3,1.7 0.2,0.5 0.5,1 0.7,1.6 0.1,0.3 0.2,0.5 0.4,0.8 0.2,0.3 0.5,0.3 0.8,0.6 -0.1,-0.8 -0.1,-1.6 -0.1,-2.3 0.1,-1.3 0.1,-2.5 0.7,-3.7 1,-2 2.9,-3.1 4.6,-4.3 0.5,-0.3 0.9,-0.7 1.2,-1.2 0.3,-0.5 0.3,-1.1 0.1,-1.7 -0.2,-0.5 -0.5,-1 -0.9,-1.4 -0.2,-0.2 -0.3,-0.3 -0.5,-0.4 -0.2,-0.1 -0.4,-0.1 -0.5,-0.1 -1.1,-0.1 -2.1,0.1 -3.2,0.4 0,0 0.3,-0.5 0.4,-0.6 0.2,-0.2 0.5,-0.4 0.8,-0.6 0.6,-0.3 1.2,-0.6 1.9,-0.6 0.7,-0.1 1.5,-0.1 2.3,0.1 0.3,0.1 0.8,0.1 1.1,0.2 0.1,0 0.7,0.5 0.8,0.5 0.3,-0.4 0.3,-1.1 0.3,-1.6 0,-0.4 0,-0.8 -0.1,-1.1 0,-0.1 -0.4,-0.9 -0.5,-0.9 0.8,0.2 1.3,0.8 1.9,1.4 1.1,1.2 1.9,2.7 1.1,4.6 -0.3,0.7 -0.8,1.3 -1.3,2 -0.1,0.1 -0.1,0.2 -0.1,0.3 0,0.1 0.1,0.1 0.1,0.2 0.5,0.5 1.7,0.5 2.2,0.1 0.2,-0.2 0.4,-0.5 0.5,-0.8 0.3,-0.7 0.6,-1.5 0.5,-2.3 0,-0.7 -0.2,-1.3 -0.1,-2 0.1,-0.8 0.6,-1.6 1.2,-2.1 0.8,-0.6 1.9,-0.4 2.8,-0.2 -0.6,-0.1 -1.5,0.7 -1.9,1.1 -0.5,0.6 -0.7,1.4 -0.6,2.1 0.1,0.9 0.3,1.8 0.5,2.7 0.1,0.7 0.1,1.3 -0.1,2 -0.1,0.3 -0.2,0.7 -0.4,1 -0.3,0.3 -0.6,0.4 -0.8,0.7 -0.3,0.4 -0.1,0.9 0.1,1.4 0.3,0.6 0.4,1.2 0.1,1.8 -0.2,0.6 -0.7,1.1 -1.2,1.4 -1,0.5 -2.1,0.5 -3.2,0.2 0.6,0.1 1.3,-0.2 1.7,-0.6 0.2,-0.2 0.4,-0.4 0.4,-0.7 0.2,-1.1 -0.9,-2.3 -1.7,-2.8 -1.9,-1.3 -4.5,-0.6 -6.1,0.9 -1.3,1.2 -1.9,3.1 -1.8,4.9 0.1,0.8 0.2,1.9 0.6,2.6 0.7,1.2 1.7,2.2 2.7,3.3 1,1.2 2,2.3 3.1,3.5 0.9,1 1.8,2.1 2.2,3.5 0.7,2.5 0,5.4 -1.9,7.2 -0.8,0.8 -1.8,1.4 -2.9,1.9 -1.7,0.8 -3.5,1.3 -5.4,1.1 -1.5,-0.1 -2.9,-0.6 -4.1,-1.4 -0.3,-0.2 -2.8,-1.7 -2.5,-2.2 -0.4,0.8 -0.8,1.6 -1.3,2.3 -0.6,0.7 -1.2,1.2 -1.6,2 -0.4,0.7 -0.6,1.6 -0.3,2.4 0.1,0.3 0.3,0.5 0.4,0.8 0.4,0.6 0.9,1.3 1.5,1.8 0.5,0.4 1.1,0.5 1.5,0.8 0.7,0.5 0.3,1.1 0.5,1.8 0.2,0.7 0.7,1.2 0.7,1.9 0,0.2 -0.1,0.5 -0.1,0.7 0,0.3 0.2,0.5 0.4,0.7 0.6,0.6 1.3,0.9 2.1,1.1 0.2,0 -0.3,2 -0.3,2.2 -0.4,2.4 -2.1,4.1 -4,5.5 -0.8,0.6 -1.7,1.2 -2.5,1.9 -0.7,0.5 -1.8,1.3 -2.1,2.2 0,0.1 -0.4,1 -0.4,1 -0.4,-0.6 -0.3,-1 0,-1.6 0.1,-0.3 0.2,-0.7 0,-0.9 -0.2,-0.2 -0.5,-0.3 -0.7,-0.3 -0.3,0 -0.6,0 -0.9,0.1 -0.8,0.3 -1,1.2 -1.3,1.8 0.1,-0.1 -0.2,-0.6 -0.2,-0.7 -0.1,-0.4 0,-0.8 0.1,-1.1 0.1,-0.2 0.1,-0.4 0.1,-0.6 0,-0.2 -0.1,-0.3 -0.1,-0.5 0,-0.1 -0.1,-0.2 -0.1,-0.2 -0.1,-0.1 -0.2,-0.1 -0.3,-0.2 -0.2,-0.1 -0.3,-0.1 -0.5,-0.1 -0.5,0 -0.9,1 -1.1,1.4 0,-0.1 -0.1,-0.3 -0.1,-0.4 -0.1,-0.6 0.1,-1.1 0.4,-1.7 0.3,-0.5 0.8,-0.8 1.2,-1.1 0.1,0 0.1,-0.1 0.2,-0.2 0,-0.1 0,-0.1 0,-0.2 -0.1,-0.2 -0.2,-0.4 -0.4,-0.5 -0.2,-0.1 -0.5,-0.1 -0.7,-0.1 -0.1,0 -0.4,0 -0.4,0 0.4,-0.4 1.1,-0.6 1.6,-0.7 0.3,0 0.7,0 1,0 0.4,0 0.7,-0.1 1.1,-0.2 0.7,-0.2 1.4,-0.7 2,-1.2 0.2,-0.2 0.3,-0.4 0.4,-0.6 0,-0.2 0,-0.4 0,-0.6 0,-0.4 0,-0.8 -0.1,-1.2 0,-0.4 -0.1,-0.8 -0.2,-1.2 -0.2,-0.8 -0.5,-1.5 -0.9,-2.2 -0.2,-0.3 -0.4,-0.6 -0.6,-0.9 -0.1,-0.1 -0.2,-0.3 -0.4,-0.4 -0.8,-0.8 -1.8,-1.3 -2.8,-1.6 -0.7,-0.2 -1.4,-0.3 -2,-0.6 -0.7,-0.3 -1.3,-0.8 -1.8,-1.3 -0.3,-0.3 -0.5,-0.5 -0.7,-0.9 -0.1,-0.3 -0.1,-0.6 -0.1,-0.9 0,-1 0,-2 0.2,-3 0.1,-0.5 0.2,-1 0.3,-1.5 0.1,-0.4 0.3,-0.8 0.4,-1.2 0,-0.2 -0.1,-0.4 -0.2,-0.5 -0.1,-0.1 -0.3,-0.1 -0.5,-0.1 -0.5,-0.1 -1.1,-0.1 -1.6,-0.1 -0.4,0 -1.1,-0.2 -1.2,0.3 -0.3,1 -0.2,2.1 -0.1,3.2 0.1,0.9 0.1,1.8 0.2,2.7 0.1,1.4 0.1,2.7 0,4.1 0,0 0,0.1 0,0.1 0,0 -0.1,0 -0.1,0 -1,0.2 -2.1,0.4 -3.1,0.8 -2,0.7 -4,1.1 -6.1,0.9 -0.4,0 -0.8,-0.1 -1.1,0 -0.5,0.2 -0.8,0.6 -1.2,0.9 -0.3,0.3 -0.9,0.7 -1.3,0.8 0.1,-0.1 0.2,-0.8 0.2,-1 0.1,-0.5 0.4,-0.9 0.3,-1.4 0,-0.1 -0.1,-0.3 -0.2,-0.3 -0.1,-0.1 -0.2,-0.1 -0.3,-0.1 -1.2,-0.3 -2.1,0.6 -3.1,1 0.4,-0.7 0.7,-1.3 1.1,-2 0.1,-0.2 0.2,-0.3 0.2,-0.5 0,-0.2 -0.1,-0.3 -0.2,-0.4 -0.3,-0.4 -0.6,-0.8 -1,-1 -0.7,-0.4 -1.4,-0.1 -2.2,0 0.5,-0.3 1.1,-0.6 1.7,-0.8 0.3,-0.1 0.6,-0.2 0.9,-0.3 0.2,-0.1 0.6,-0.1 0.8,-0.2 0.1,-0.1 0.2,-0.2 0.2,-0.4 0.1,-0.3 0.2,-0.6 0.2,-0.8 0,-0.2 -0.1,-0.5 -0.3,-0.7 -0.2,-0.2 -0.5,-0.3 -0.6,-0.5 0,0 0.5,0.1 0.6,0.1 0.3,0.1 0.5,0.2 0.8,0.4 0.5,0.3 0.9,0.7 1.3,1.1 0.4,0.3 0.7,0.7 1.2,0.9 0.5,0.3 1.2,0.2 1.7,0 0.6,-0.2 1.1,-0.2 1.7,-0.3 0.5,0 1.1,-0.2 1.4,-0.7 0.1,-0.2 0.2,-0.5 0.2,-0.7 0,-0.6 -0.2,-1.2 -0.4,-1.8 -0.4,-1 -0.7,-2.1 -1.3,-3 -0.6,-0.9 -1.2,-1.8 -1.6,-2.8 -0.4,-1.1 -0.6,-2.3 -0.3,-3.5 0.1,-0.5 0.3,-0.9 0.7,-1.2 0.2,-0.2 0.4,-0.3 0.6,-0.5 1.4,-0.9 2.9,-1.4 4.5,-1.7 1.7,-0.3 3.4,-0.6 5.1,-0.5 0.5,0 1,0.1 1.5,0.2 0.6,0.1 1.2,0.3 1.8,0.5 0.3,0.1 1,0.6 1.2,0.1 0.3,-0.8 0.3,-1.8 -0.2,-2.5 -0.2,-0.4 -0.6,-0.6 -0.9,-0.9 -0.5,-0.4 -0.9,-0.9 -1.3,-1.3 -0.7,-0.5 -1.5,-0.8 -2.2,-1.4 -0.3,-0.2 -0.5,-0.4 -0.6,-0.7 -0.1,-0.2 -0.2,-0.5 -0.2,-0.7 0,-0.2 -0.2,-0.5 -0.2,-0.7 -0.1,0.2 -0.3,0.4 -0.5,0.6 -0.3,0.2 -0.7,0.3 -1.1,0.5 -0.8,0.4 -1.6,0.7 -2.3,1 -1.6,0.7 -3.2,1.2 -4.8,1.7 -3.2,1 -6.6,1.6 -10,1.7 -0.8,0 -1.7,-0.3 -2.5,0 -0.9,0.4 -1,1.4 -1.2,2.2 -0.3,-0.4 -0.4,-1 -0.5,-1.5 -0.1,-0.5 0,-1.2 -0.4,-1.6 -0.1,-0.1 -0.2,-0.1 -0.4,-0.1 -0.4,0 -0.8,0 -1.1,0.3 -0.2,0.2 -0.9,0.9 -1,1.1 -0.2,-1 0.5,-2 0.6,-3 0,-0.1 0,-0.2 0,-0.3 0,-0.1 -0.1,-0.2 -0.2,-0.2 -0.3,-0.2 -0.6,-0.2 -0.9,-0.2 -0.3,0.1 -0.7,0.2 -0.9,0.3 -0.2,0.1 0.2,-0.4 0.2,-0.4 0.1,-0.1 0.2,-0.3 0.4,-0.4 0.3,-0.2 0.6,-0.4 0.9,-0.5 0.8,-0.4 2,-0.8 2,-1.9 0,-0.4 -0.2,-0.8 -0.4,-1.1 -0.1,-0.2 -0.5,-0.7 -0.8,-0.8 0.5,0.1 1.1,0.2 1.5,0.5 0.3,0.3 0.4,0.7 0.7,1 0.5,0.6 1.2,0.6 1.9,0.6 0.8,0.1 1.6,0.2 2.5,0.1 0.4,-0.1 0.9,-0.3 1.3,-0.5 0.4,-0.2 0.8,-0.3 1.2,-0.5 0.9,-0.4 1.8,-1 2.6,-1.5 0.3,-0.2 0.5,-0.4 0.8,-0.5 0.3,-0.1 0.6,-0.2 0.8,-0.3 1,-0.3 2,-0.4 3.1,-0.5 0.1,0 0.1,0 0.2,0 0,0 0.1,-0.1 0.1,-0.1 0.6,-0.5 0.9,-1 1.2,-1.7 -0.2,0.4 -1.4,0.1 -1.7,0 -1,-0.2 -1.9,-0.7 -2.8,-1.1 -2,-1.1 -3.9,-2.6 -5,-4.6 -0.2,-0.4 -0.4,-0.8 -0.6,-1.1 -0.3,-0.6 -0.6,-1.1 -0.9,-1.7 -0.2,-0.5 -0.3,-1.1 -0.4,-1.7 -0.2,-0.6 -0.4,-1.2 -0.7,-1.7 -0.1,-0.3 -0.3,-0.5 -0.5,-0.7 -0.8,-0.8 -2,-1.7 -3.1,-1.7 0.4,-0.1 0.7,-0.2 1.1,-0.3 0.7,-0.2 1.3,-0.4 1.9,-0.8 0.3,-0.2 0.4,-0.7 0.4,-1.1 0,-0.2 -0.1,-0.3 -0.2,-0.5 -0.2,-0.4 -0.5,-0.7 -0.7,-1.1 -0.1,-0.1 -0.2,-0.3 -0.4,-0.4 -0.1,-0.1 -0.3,-0.5 -0.4,-0.5 0.2,0.1 0.5,0.2 0.7,0.3 0.6,0.2 1.1,0.4 1.6,0.7 0.4,0.2 1.3,0.6 1.7,0.2 0.1,-0.1 0.1,-0.3 0.1,-0.5 0,-0.8 0.1,-1.7 0,-2.5 0,-0.3 0.2,0 0.3,0.2 0.4,0.5 0.6,1.2 0.9,1.8 0.4,0.8 1,1.4 1.9,1.1 0.7,-0.2 1.1,-1 1.3,-1.6 0,0 0,1.2 0,1.2 -0.1,0.5 -0.4,0.8 -0.6,1.2 -0.4,0.5 -0.6,1.2 -0.5,1.9 0.2,1.7 1.1,3.1 1.9,4.5 0.4,0.7 0.8,1.4 1.4,2 0.4,0.4 0.9,0.8 1.3,1.2 0.3,0.4 0.6,1 1,1.3 0.7,0.6 2.2,0.6 2.9,0 0.2,-0.2 0.3,-0.4 0.4,-0.6 0.5,-0.8 1,-1.5 1.3,-2.3 0.4,-0.9 0.6,-1.8 1,-2.7 0.2,-0.5 0.4,-1.1 0.6,-1.6 0.1,-0.2 0.2,-0.4 0.3,-0.7 0.5,-1 1.4,-1.6 2.4,-2.1 0.6,-0.4 1.2,-0.5 1.8,-0.8 -0.6,-0.3 -1.2,0 -1.8,0 -0.4,0 -0.8,-0.1 -1.1,-0.4 -0.2,-0.2 -0.4,-0.4 -0.5,-0.7 -0.2,-0.3 -0.3,-0.6 -0.3,-0.9 0,-0.3 0,-0.5 0,-0.8 0,-0.3 0,-0.7 -0.2,-0.9 -0.1,-0.3 -0.4,-0.5 -0.5,-0.8 0,-0.1 0,-0.3 -0.1,-0.4 -0.1,-0.2 -0.4,-0.3 -0.6,-0.3 -0.6,-0.1 -1.1,-0.2 -1.7,0 -0.3,0.1 -0.7,0.2 -1,0 -0.1,-0.1 -0.2,-0.2 -0.3,-0.3 -0.4,-0.6 -0.9,-1.3 -1.4,-1.8 -0.1,-0.1 -0.3,-0.3 -0.4,-0.4 -0.3,-0.4 -0.4,-0.9 -0.5,-1.4 0.1,0.2 0.3,0.3 0.4,0.4 0.2,0.1 0.4,0.4 0.5,0.6 0.2,0.3 0.3,0.5 0.5,0.8 0.2,0.4 0.6,0.6 0.9,0.9 0.5,0.3 1,0.5 1.6,0.6 0.5,0.1 1.1,0 1.6,0 0.9,0.1 1.7,0.6 2.2,1.3 0.5,0.7 0.9,1.2 1.9,1.1 0.7,-0.1 1.3,-0.6 1.8,-1.1 0.4,-0.3 0.7,-0.7 0.8,-1.2 0.2,-0.6 -0.1,-1.2 -0.5,-1.7 -0.4,-0.4 -1,-0.7 -1.6,-0.8 -0.5,-0.1 -1,-0.2 -1.5,-0.1 -0.7,-1 -0.8,-0.9 -1,-0.7 z" id="path122"></path> <g id="g302"> <g id="g238"> <g id="g226"> <path fill="#010101" d="m 200.4,164 c 2.3,1.6 4.7,3.2 7.1,4.7 0.3,0.2 1,0.7 1.4,0.3 0.6,-0.6 -0.9,-1.3 -1.2,-1.5 -1.1,-0.7 -2.1,-1.6 -3.2,-2.4 -1.5,-1.2 -3,-2.2 -4.6,-3.3 -1.5,-1 -3,-2.2 -4.4,-3.3 -2.7,-2 -5.3,-4.1 -8,-6 -0.3,-0.2 -0.4,-0.5 0,-0.8 h 0.1 c 1.5,-0.5 3.1,-0.3 4.7,-0.3 0.2,0 0.4,0 0.7,-0.1 0.6,-0.4 0.8,-0.6 0.2,-1 -0.4,0 -1.2,-0.8 -1.5,-1.1 -0.5,-0.4 -1.1,-0.7 -1.6,-1.1 -1.1,-0.8 -2.2,-1.5 -3.3,-2.3 -2.1,-1.5 -4.2,-2.9 -6.3,-4.4 -1.5,-1.1 -3.1,-2.1 -4.7,-3.1 -3.3,-2.2 -6.5,-4.7 -9.9,-6.5 -0.5,-0.3 -1,-0.7 -1.5,-1 0,-0.2 -0.1,-0.4 -0.1,-0.7 1.4,0.8 2.7,1.5 4.1,2.3 0.4,0 0.9,0.5 1.3,0 0.4,-0.3 0,-0.5 -0.1,-0.7 -0.1,-0.3 -2,-1 -2.3,-1.2 -1.1,-0.5 -2.2,-1 -3.2,-1.6 -1.1,-0.6 -2.1,-1.2 -3.3,-1.5 -0.3,-0.1 -0.7,-0.1 -1,-0.4 -0.2,-0.1 -0.3,-0.3 -0.5,-0.5 -0.6,-0.5 -1.4,-0.6 -2.1,-0.8 -0.7,-0.2 -1.5,-0.7 -1.5,-1.5 0,-0.2 0.1,-0.5 0,-0.6 -0.1,-0.1 -0.2,-0.2 -0.3,-0.2 -1.5,-0.8 -2.9,-1.5 -4.4,-2.3 -0.4,-0.2 -0.7,-0.4 -1.1,-0.5 -0.5,-0.2 -1.1,-0.3 -1.5,-0.6 -1.2,-0.6 -2,-2.5 -2.6,-3.7 -0.7,-1.5 -1,-3.2 -0.7,-4.9 0,-2.6 -1.8,-4 -3.5,-5.6 -1.5,-0.7 -3,-1.3 -4.7,-1.6 -5,-0.6 -8.3,1.4 -10.1,6.1 0,0.1 0,0.2 0,0.3 0,0.5 -0.1,1 -0.1,1.6 0,0.5 0,1 0,1.5 0,0.5 0,1 0.1,1.5 0.5,0.7 0.4,1.5 0.4,2.3 0.2,1.4 1.2,2.7 0.2,4.2 v 0.2 c 0.6,0.1 0.7,0.5 0.6,1 0,0.5 -0.2,0.9 -0.7,1.1 -0.7,0.7 -0.9,1.9 -1.9,2.3 -0.9,0.9 -1.9,1.7 -3.3,2 0.7,-0.8 1.4,-1.6 2.1,-2.4 0.3,-0.5 0.9,-0.9 0.8,-1.6 -0.4,0.2 -0.7,0.4 -1.1,0.5 -0.3,0.1 -0.6,0.7 -0.8,1 -0.3,0.3 -0.6,0.7 -0.8,1 -0.6,0.7 -1.1,1.3 -1.7,1.9 -1.2,1.3 -2.6,2.8 -4.1,3.8 -0.9,0.6 -1.8,1.2 -2.6,1.7 -0.8,0.5 -1.7,1.2 -2.6,1.6 0,-0.4 0.5,-0.7 0.8,-0.9 0.6,-0.5 1.2,-1 1.8,-1.6 1.7,-1.7 3.5,-3.4 5.3,-4.9 1.2,-1 2.4,-2 3.5,-3 0.6,-0.5 1.1,-1 1.6,-1.5 0.2,-0.3 0.5,-0.6 0.3,-0.9 -0.1,-0.2 -0.4,-0.3 -0.7,-0.2 -0.2,0.1 -0.4,0.2 -0.6,0.4 -4.2,3.8 -8.4,7.6 -12.6,11.4 -0.2,0.1 -0.3,0.3 -0.4,0.5 -0.1,0.3 0,0.6 0.2,0.7 0.2,0.2 0.5,0.2 0.8,0 -0.2,0.4 -0.5,0.8 -0.9,1.1 -0.4,0.4 -0.8,0.6 -1.2,1 -0.6,0.6 -1.2,1.2 -1.9,1.8 -1.2,1.2 -2.4,2.3 -3.5,3.6 -2.2,2.5 -4.4,5.1 -5.9,8 -0.9,1.7 -0.2,3.6 0.7,5.3 1.3,2.6 3.3,4.6 5.6,6.3 0.1,0.1 0.3,0.2 0.4,0.3 0.2,0.2 0.4,0.3 0.7,0.5 0.5,0.3 0.3,0.6 0.1,0.9 0.1,0.1 0.1,0.2 0,0.3 0,0.1 0,0.2 -0.1,0.3 0,0.1 0,0.3 -0.1,0.4 0,2.1 1,3.4 2.8,4.3 1.2,0.6 2.4,1.3 3.4,2.1 1.5,1.2 1.4,1.6 -0.3,2.5 -2.4,1.3 -3.7,2.7 -4.7,5.3 0,0.1 -0.1,0.2 -0.1,0.4 0,0.1 0,0.3 0.1,0.4 0.6,1.8 1.4,3.6 3.1,4.6 1.5,0.9 3.3,1.2 5,0.8 5.2,-1.2 10.2,-2 15.5,-2.4 5.4,-0.3 10.8,-0.3 16.1,0.1 3,0.2 6.1,0.6 9.1,1 1.5,0.2 3,0.4 4.5,0.7 1.3,0.2 2.7,0.6 4,0.3 0.4,-0.1 0.8,-0.3 1.1,-0.6 0.3,-0.3 0.5,-0.8 0.3,-1.2 0,0.1 0,0.2 0,0.3 0.5,-1.1 1.2,-2.3 1.2,-3.6 0.1,-1.3 -0.6,-2.8 -1.4,-3.7 -0.7,-0.8 -1.8,-1.3 -2.9,-1.4 -0.4,0 -0.9,0.4 -0.7,0.7 2,0 3.9,1.7 4.1,3.7 0.2,2 -1.4,4 -3.4,4.4 -0.2,0 -0.4,0 -0.5,0 -0.6,-0.2 -0.4,-1.3 -0.8,-1.8 -0.4,-0.5 -1.2,-0.5 -1.5,-1 -0.1,-0.2 -0.1,-0.5 0,-0.8 0.1,-0.7 0.2,-1.4 0.3,-2.2 0.1,-0.5 0.1,-0.9 0.3,-1.4 0.2,-0.4 0.6,-0.8 1,-0.9 0.1,0 0.3,0 0.4,-0.1 0.2,-0.1 0.1,-0.4 0,-0.6 -0.2,-0.2 -0.4,-0.2 -0.6,-0.2 -0.9,-0.1 -1.7,0 -2.6,0 -0.5,0 -2.4,-0.1 -2.8,0.2 -0.7,0.6 -1.4,0.7 -2.2,0.2 -4.4,-3.2 -8.7,-6.3 -13.1,-9.5 -1.8,-0.9 -3.3,-2 -4.3,-3.7 -0.2,-0.2 -0.4,-0.3 -0.7,-0.5 -0.2,-0.1 -0.3,-0.2 -0.5,-0.3 -1.7,-0.8 -3.4,-1.5 -5.1,-2.4 -0.9,-0.5 -1.9,-1 -2.1,-2.2 -0.9,-1.3 0.2,-2.9 -0.8,-4.2 -0.1,-0.1 -0.3,-0.2 -0.4,-0.3 -2.2,-1.7 -4.9,-1 -7.5,-1.6 0.4,-0.9 0.8,-1.6 1.7,-2 0.2,-0.3 0.4,-0.7 0.6,-1 0.2,-0.3 0.5,-0.5 0.7,-0.8 0.1,-0.1 0.2,-0.3 0.4,-0.4 0.1,-0.1 0.2,-0.3 0.3,-0.4 0.4,-1 1.1,-1.7 2.1,-2.2 0.6,0.7 -0.4,1.4 0.2,2.2 1.3,-1.2 1,-3 1.9,-4.3 0.2,-1 0.4,-2.1 1.3,-2.9 0.3,-0.4 0.7,-0.8 1.2,-1.5 0.2,1.1 -0.1,1.7 -0.4,2.4 0,0.1 0,0.2 -0.1,0.3 -0.5,0.6 0.5,1.7 1,0.4 0.2,-0.4 0.3,-0.9 0.4,-1.4 0,-0.1 0,-0.1 0,-0.2 0,0 -0.1,-0.1 -0.1,-0.1 0,-0.1 0,-0.2 0,-0.2 0.4,-1.1 0.3,-2.3 0.6,-3.5 0.3,-1.2 1,-2.3 2.1,-2.9 0.2,-0.1 0,1.6 0,1.7 0,0.4 0.1,0.7 0.4,0.5 0.2,-0.2 0.4,-0.9 0.5,-1.2 0.3,-0.8 0.4,-1.7 0.5,-2.5 0,-0.3 0.1,-0.7 0.4,-0.8 0.2,0 0.4,0.1 0.5,0.2 0,0 0.1,0.1 0.1,0.1 0,0.1 0,0.1 0,0.2 -0.4,1.4 -0.4,2.8 -0.6,4.2 0,0 0.6,0 0.7,-0.4 0.1,-1.1 0.3,-2.2 0.5,-3.2 0.1,-0.4 0.2,-0.9 0.2,-1.3 0,-0.4 -0.2,-0.8 -0.2,-1.2 0,-0.9 0.8,-1.1 1.5,-1.4 0.5,-0.2 1,-0.6 1.4,-0.9 1.7,-1 3.9,-1.2 5.7,-2 1.6,-0.7 2.9,-1.9 3.5,-3.6 0.5,0.6 0.8,1 1.1,1.5 1.3,1.2 2.8,2.2 3.8,3.7 2,0.7 3.3,2.4 5.2,3.2 1.3,0.8 2.3,2.6 4.3,1.8 0.1,0 1.3,1 1.5,1.1 0.6,0.3 1.1,0.6 1.6,1 1.2,0.9 2.5,1.7 3.8,2.6 2.5,1.7 5.1,3.5 7.6,5.2 1.1,0.8 2.3,1.5 3.4,2.4 1.7,1.3 3.4,2.6 5,4.1 0.5,0.4 2.4,1.4 2.1,2.2 -0.1,0.4 -0.6,0.2 -0.8,0.2 -1.7,-0.2 -3.5,-0.7 -5.3,-0.7 h -0.1 c -0.2,0.3 -0.3,0.6 -0.5,1 1.6,1.1 3.4,2 5,3.2 4.8,3.4 10,7 15.2,10.6 z m -67.8,-57.1 c 0,0.1 -0.6,0.8 -0.6,0.8 -0.3,0.2 -0.7,0.4 -0.8,0.7 -0.3,0.6 0.3,0.4 0.7,0.3 0.5,-0.2 1.1,-0.4 1.6,-0.6 0.5,-0.2 1.4,-0.7 2,-0.7 0.1,-0.1 0.3,-0.2 0.2,-0.4 0,-0.1 -0.1,-0.1 -0.2,-0.1 -0.4,-0.1 -0.8,-0.2 -1.2,-0.3 1.5,0.2 3,0.4 4.4,1.1 1.7,0.9 2.7,2.4 2.9,4.3 0,0.4 0.1,0.8 0.4,1 0.1,0.2 0.4,0.3 0.6,0.2 0.3,0 0.5,-0.3 0.6,-0.6 0.1,-0.3 0.2,-0.6 0.4,-0.8 -0.1,0.1 0,1.4 -0.1,1.7 -0.1,0.5 -0.4,1.1 -0.7,1.5 -0.6,0.8 -1.4,1.2 -2.2,1.7 -0.4,0.2 -0.8,0.5 -1.2,0.8 -0.4,0.4 -0.8,0.8 -1.2,1.1 -1.1,0.8 -2.6,0.9 -3.9,0.5 -0.8,-0.2 -1.6,-0.6 -2.4,-0.9 -0.3,-0.1 -0.9,-1 -1.2,-0.8 -0.9,0.6 1.6,1.8 2.1,1.9 1.1,0.4 2.3,0.5 3.5,0.6 -0.7,0 -1.4,0.3 -2.1,0.3 -0.7,0 -1.5,-0.1 -2.2,-0.3 -1.9,-0.6 -2.9,-2.4 -3.5,-4.2 -0.4,-1.3 -0.6,-2.7 -0.4,-4 0.2,-1.3 0.8,-2.6 1.7,-3.6 0.7,-0.7 1.7,-1.3 2.8,-1.2 z m 2,24 c 0,0.1 0,0.3 0,0.4 0,-0.2 0,-0.3 0,-0.4 z m 7.6,-8 c -0.3,0.2 -0.7,0.3 -1,0.5 -1.2,0.5 -2.4,1 -3.6,1.3 -0.6,0.2 -1.3,0.3 -1.9,0.4 -0.7,0.1 -0.6,0.5 -1,1.1 -0.7,1.1 -1.6,2.2 -2.4,3.2 -0.7,1 -1.4,2 -2.1,3.1 -0.4,0.5 -0.6,1.2 -1,1.6 -0.5,0.5 -1,0.8 -1.5,1.3 -0.4,0.4 -0.6,1 -0.9,1.5 -0.9,1.9 -2.1,3.6 -3.5,5.2 -1.5,1.6 -2.8,3.3 -4.4,4.8 -1.7,1.6 -3.6,3 -5.8,3.9 -0.3,0.1 -0.7,0.1 -0.7,0.4 -0.1,0.3 0.3,0.5 0.6,0.6 0.3,0.1 0.6,0.1 0.9,0.2 1.6,0.2 3.1,0.7 4.4,1.5 1.5,0.9 0.5,3.5 -0.1,4.8 -0.8,1.7 -2.1,3.1 -3.7,4 -0.3,0.2 -0.6,0.3 -0.9,0.4 -0.4,0.1 -0.7,0.1 -1.1,0.1 -0.8,0.1 -1.5,0.3 -2.3,0.3 -1.3,0.1 -2.6,-0.3 -3.8,-0.8 -1.1,-0.5 -2.1,-1.3 -3.1,-2 -0.9,-0.6 -1.8,-1.2 -2.4,-2.1 -0.7,-0.9 -1.1,-2.1 -1.5,-3.2 -0.2,-0.8 -0.5,-1.6 -0.4,-2.4 0.1,-0.8 0.5,-1.6 0.9,-2.3 0.2,-0.3 0.4,-0.7 0.6,-1 0.1,-0.2 0.3,-0.5 0.4,-0.7 0.1,-0.1 0.2,-0.3 0.3,-0.4 0.1,-0.2 0.2,-0.3 0.3,-0.5 0.6,-1 1.3,-1.7 2.1,-2.6 0.8,-0.9 1.5,-1.8 2.4,-2.6 1.7,-1.6 3.6,-2.9 5.4,-4.3 3,-2.3 6.2,-4.5 9.2,-6.8 0.2,-0.2 0.5,-0.4 0.7,-0.6 1.8,-1.4 3.6,-2.8 5.1,-4.5 1.3,-1.5 3.4,-3.6 3.1,-5.7 2.4,0.3 3,2.5 4.6,3.5 0.3,0 0.6,0 0.7,-0.1 2.1,-2 5.1,-1.7 7.4,-2.9 1,-0.5 0.7,-1.5 1,-2.3 0.2,-0.4 0,-1.1 0.8,-1 0.5,0.1 0.6,0.5 0.7,1 0.4,1.9 -0.9,3.3 -2.5,4.1 z" id="path124"></path> <path fill="#010101" d="m 101.8,138.9 c 6.4,-5.2 12.8,-10.4 19.3,-15.5 1,-0.8 2,-1.6 3,-2.4 0.3,-0.2 0.6,-0.5 1,-0.6 0.1,0 0.3,-0.1 0.4,-0.1 0.1,-0.1 0.3,-0.2 0.2,-0.4 -0.1,-0.5 -0.9,-0.4 -1.3,-0.3 -0.8,0.1 -1.2,0.3 -1.8,0.8 -1.4,1.2 -3,2.1 -4.5,3.2 -1.9,1.3 -3.7,2.5 -5.6,3.8 -0.3,0.2 -0.6,0.4 -0.6,0.8 0,0.3 0.2,0.7 0.1,1 -0.1,0.2 -0.4,0.3 -0.6,0.3 -0.2,0 -0.5,-0.1 -0.7,-0.1 -0.3,0 -0.6,0.1 -0.9,0.3 -0.5,0.3 -1.1,0.5 -1.6,0.8 -0.5,0.2 -0.9,0.5 -1.2,0.9 -0.2,0.3 -0.2,0.7 -0.3,1.1 -0.2,0.8 -0.9,1.1 -1.5,1.6 -0.7,0.5 -1.2,1.2 -1.9,1.7 -6.5,4.8 -12.9,9.8 -19.2,14.8 -1.3,1.1 -2.6,2.2 -4,3.2 -0.3,0.3 -0.8,0.5 -0.6,1 0,0 0,0 0,0.1 0,0 0,0 0.1,0 1.6,0 3.1,0 4.7,0 0.8,0 1.6,0 2.4,0 0.7,0 1.6,-0.1 2.4,0 -0.1,0 -0.2,0.1 -0.3,0.2 -0.5,0.4 -0.9,0.9 -1.3,1.4 -0.6,0.6 -1.2,1.1 -1.8,1.7 -3.5,3.3 -7,6.7 -10.5,10.1 -1.7,1.7 -3.5,3.4 -5.2,5.1 -0.6,0.6 -5.1,5 -6.2,6.2 -0.2,0.2 -0.8,0.7 -0.8,1 0.1,0.4 0.5,0.2 0.7,0 1.6,-1.5 3.2,-2.9 4.8,-4.4 0.1,-0.1 0.2,-0.2 0.4,-0.3 6.1,-5.6 12.2,-11.1 18.3,-16.7 0.9,-0.8 1.9,-1.6 2.7,-2.6 0.9,-1 1.8,-2 2.7,-3 0.1,-0.1 0.8,-0.6 0.7,-0.9 -0.1,-0.3 -1.6,-0.1 -1.9,-0.1 -1.1,0.1 -2.2,0.1 -3.3,0 -0.4,0 -0.9,-0.1 -1.3,-0.2 -0.1,0 -0.7,-0.1 -0.7,-0.1 0.3,-0.5 1,-0.9 1.4,-1.3 4.6,-4.1 9.4,-8.1 14.3,-12.1 z" id="path126"></path> <path fill="#010101" d="m 105.9,128.9 v 0 c 0,-0.5 0.3,-0.8 0.8,-0.8 l 0.1,-0.1 0.1,0.1 c 0.2,-0.4 0.5,-0.7 1,-0.7 l 0.1,-0.1 h 0.1 c 2,-1.4 4.3,-2.4 6.5,-3.4 2.1,-1.1 4.2,-2.2 6.3,-3.4 0.6,-0.3 1.4,-0.4 1.7,-1.2 -0.6,-0.7 -1.1,-0.2 -1.6,0.1 -1.6,0.7 -3.1,1.5 -4.7,2.2 -3.5,1.9 -6.9,3.9 -10.6,5.4 -0.6,0.3 -1.3,0.6 -0.9,1.5 0.2,0.5 0.7,0.4 1.1,0.4 z" id="path128"></path> <path fill="#010101" d="m 118.9,118 c -2.6,0.9 -5.1,1.7 -7.6,2.6 h -0.2 -0.2 c -0.3,0.4 -0.7,0.4 -1.2,0.5 -0.2,0.2 -0.7,0.4 -0.6,0.6 0.1,0.6 0.7,0.5 1,0.4 1.6,-0.5 3.1,-1 4.6,-1.5 0.3,-0.4 0.7,-0.3 1,-0.3 0.1,0 0.3,-0.1 0.4,-0.1 1.9,-0.7 3.8,-1.3 5.6,-2 0.2,-0.7 -0.1,-1.1 -0.7,-1.3 -0.6,-0.1 -0.3,-0.9 -0.7,-1 -1.5,-0.2 -2.9,0.2 -4.3,0.5 -0.1,0 -0.2,0.4 -0.2,0.5 0.2,0.2 0.4,0.3 0.6,0.3 0.7,-0.1 1.3,-0.4 2,-0.4 0.4,0 1.2,-0.3 1.3,0.4 0.4,0.5 -0.3,0.6 -0.8,0.8 z" id="path130"></path> <path fill="#010101" d="m 101.8,119.5 c -0.3,0.2 -0.8,0.2 -0.6,0.7 0.1,0.4 0.6,0.2 0.9,0.3 0.6,-0.4 1.3,-0.3 1.9,-0.4 1.6,-0.5 3.2,-0.9 5,-0.8 1.2,-0.4 2.3,-0.9 3.5,-1.2 0.9,-0.2 2.5,0 2.4,-1 -0.1,-1 -1.6,0.1 -2.4,-0.1 -3.2,0.7 -6.4,1.4 -9.6,2.1 -0.4,0.3 -0.7,0.3 -1.1,0.4 z" id="path132"></path> <path fill="#010101" d="m 105.4,123.4 c -0.8,-0.3 -1.5,0.1 -2.2,0.2 -0.4,0.2 -1.1,0 -1,0.6 0.1,0.6 0.7,0.4 1.1,0.2 0.8,-0.2 1.7,-0.2 2.1,-1 z" id="path134"></path> <path fill="#010101" d="m 170.5,128.9 c 1.5,-1.2 -0.2,-1.2 -0.6,-1.4 -5.3,-2.4 -10.6,-4.6 -15.9,-7 -0.7,-0.3 -1.5,-0.5 -2.2,-0.9 -0.6,-0.3 -0.9,-0.1 -1,0.5 0.9,0.5 1.8,1 2.7,1.4 5.8,2.2 11.3,4.9 17,7.4 z" id="path136"></path> <path fill="#010101" d="m 169.9,123.7 c -3,-1 -6.1,-1.7 -9,-3.1 -0.3,0 -0.5,0 -0.8,0 -1.4,-0.4 -2.9,-0.7 -4.2,-1.5 v 0 c -0.5,0 -0.9,0 -1.3,-0.4 -0.1,0 -0.1,0 -0.2,0 -0.3,0 -0.6,0 -0.8,-0.4 -0.5,0 -0.9,-0.1 -1.2,-0.4 -0.5,0 -1.1,-0.2 -1.2,0.5 -0.1,0.5 0.5,0.6 0.9,0.7 1,0.2 1.9,0.4 2.7,1.1 0.7,0.2 1.5,0.3 2.2,0.5 5.1,1.6 10.2,3.2 15.3,4.8 0,-1.7 -1.5,-1.5 -2.4,-1.8 z" id="path138"></path> <path fill="#010101" d="m 174.6,112.9 c -0.4,-0.1 -0.8,-0.2 -1.2,-0.3 h -0.1 c 0,0 -0.1,0 -0.1,0 -0.3,0.1 -0.6,0.2 -0.9,0.2 -6.5,-0.1 -13,0.1 -19.5,-0.3 -0.6,0 -1.2,-0.1 -1.6,0.6 0.3,0.6 0.9,0.5 1.3,0.6 0.6,0 1.3,-0.1 1.9,-0.1 6.7,0 13.4,-0.1 20.2,-0.1 0,-0.2 0,-0.4 0,-0.6 z" id="path140"></path> <path fill="#010101" d="m 141.1,98.3 c 0.4,0 0.7,0 1.1,-0.1 0.3,-1.6 1.2,-3.1 1,-4.8 -0.3,0 -0.6,0 -0.9,0 -0.1,0.9 -0.3,1.8 -0.8,2.6 -0.1,0.3 -0.1,0.6 -0.2,0.8 -0.1,-0.1 -0.2,-0.1 -0.2,-0.2 -0.1,-0.3 0,-0.6 0.3,-0.7 -0.1,-1 -0.1,-2.1 0.4,-3 0,-0.2 0,-0.4 0,-0.6 v 0 c -0.5,-0.1 -0.9,0.1 -1.2,0.4 -0.4,0.9 -0.3,2.7 -0.6,2.6 -2.5,-0.8 -1,1.5 -1.7,2 0.8,0.4 1.9,0.3 2.8,1 z" id="path142"></path> <path fill="#010101" d="m 149.1,92.6 c -0.1,0.1 -0.3,0.2 -0.4,0.4 -0.2,0.2 -0.5,0.3 -0.7,0.5 -0.1,0.4 0.1,0.9 -0.4,1.2 0,0.1 0,0.2 -0.1,0.2 -0.8,1.5 -1.7,2.9 -2.6,4.4 -0.5,0.8 -0.5,1.3 0.6,1.2 1.4,-2.2 2.1,-4.9 4.6,-6.4 -0.1,-0.5 0.2,-1.1 -0.3,-1.6 -0.2,0.1 -0.5,0.1 -0.7,0.1 z" id="path144"></path> <path fill="#010101" d="m 139.9,85.2 c 0,0 0,-0.1 0,-0.1 0,-0.4 0.1,-0.8 0.1,-1.1 0,-0.8 0,-1.5 0,-2.3 0.4,-1 -0.8,-2 0,-3 -0.2,-0.5 0.3,-1.3 -0.7,-1.5 -0.6,2.7 -0.3,5.5 -0.4,8.2 l -0.1,0.1 c 0.3,-0.2 0.7,-0.3 1.1,-0.3 z" id="path146"></path> <path fill="#010101" d="m 145.2,76.9 c -0.4,-0.8 -0.8,-1 -1.2,-0.1 -0.3,0.7 -0.6,1.5 -0.1,2.3 1.4,-0.2 0.6,-1.6 1.3,-2.2 z" id="path148"></path> <path fill="#010101" d="m 131.4,77.1 c 0,-0.4 -0.1,-0.7 -0.1,-1.1 -0.9,-0.2 -0.9,0.5 -1,1.1 0.1,0.4 0,1 0.6,1 0.7,-0.1 0.6,-0.6 0.5,-1 z" id="path150"></path> <path fill="#010101" d="m 149.6,100 c -0.6,1.1 -2.3,1.4 -2.4,3 0.4,0.1 0.7,-0.1 0.9,-0.3 -0.3,0.2 -0.5,0.4 -0.9,0.3 0,0.1 0,0.2 0.1,0.3 0.8,0 0.7,0.9 1.3,1.1 6.4,-4.2 12.8,-8.4 19.2,-12.6 0.4,-0.3 1.1,-0.5 0.8,-1.1 -0.3,-0.7 -0.9,-0.1 -1.3,0.1 -0.2,0.1 -0.4,0.2 -0.7,0.4 -5.3,3.5 -10.7,7 -16,10.5 -0.5,0.3 -0.8,1.1 -1.6,0.5 3.6,-3.3 7.3,-6.6 10.9,-9.9 1.6,-1.5 3.3,-3 4.9,-4.5 0.3,-0.2 0.7,-0.5 0.4,-0.9 -0.3,-0.5 -0.7,0 -1,0.1 -0.2,0.1 -0.4,0.3 -0.6,0.5 -1.9,1.6 -3.5,3.5 -5.6,4.9 -0.2,0.1 -0.4,0.3 -0.5,0.4 l 0.1,0.1 c -0.3,0.8 -1.1,1 -1.5,1.6 -1.3,1.1 -2.5,2.2 -3.8,3.3 -0.3,0.2 -0.6,0.5 -0.9,0.7 -0.3,0.2 -0.5,0.5 -0.8,0.7 -0.2,0.2 -0.5,0.4 -0.7,0.6 -0.1,0 -0.2,0.1 -0.3,0.2 z" id="path152"></path> <path fill="#010101" d="m 151.6,107.6 c 3.2,-1.2 6.5,-2.4 9.7,-3.6 0.2,0 0.4,0 0.6,-0.1 0.5,-0.7 1.4,-0.8 2.1,-1.2 -0.1,-0.1 -0.2,-0.2 -0.3,-0.3 -0.5,0.1 -1,0.2 -1.5,0.3 -2.4,1 -4.7,2 -7.2,2.5 -1.2,0.7 -2.4,1.2 -3.8,1.5 -0.2,0.3 -0.9,0.3 -0.6,0.8 0.1,0.6 0.6,0.3 1,0.1 z" id="path154"></path> <path fill="#010101" d="m 167.4,105.3 c -1.3,0.3 -4.2,1.1 -3.9,1.6 0.2,0.3 0.7,0.2 1,0.2 2.5,-0.4 4.9,-1.5 7.4,-1.6 0.6,0 1.3,0 1.8,-0.4 0.3,-0.3 0.5,-0.7 0.4,-1.1 0,-0.1 0,-0.1 -0.1,-0.1 0,0 -0.1,0 -0.2,0 -2,0.4 -4,0.8 -6,1.3 0.1,0 -0.1,0.1 -0.4,0.1 z" id="path156"></path> <path fill="#010101" d="m 169.9,95.2 c -2.7,1.3 -5.4,2.7 -8.2,4 -0.3,0.2 -0.6,0.3 -0.4,0.7 0.1,0.3 0.4,0.5 0.8,0.4 0.4,-0.1 0.7,-0.3 1.1,-0.4 0.5,-0.4 1.2,-0.7 1.9,-0.8 1.5,-1.3 3.5,-1.9 5.2,-3 0.3,-0.2 0.6,-0.3 0.5,-0.7 -0.2,-0.4 -0.6,-0.3 -0.9,-0.2 z" id="path158"></path> <path fill="#010101" d="m 165.5,102.2 c 0.1,0.1 0.1,0.1 0.1,0.2 0.2,0.1 0.5,0.1 0.7,0.2 2.2,-1 4.7,-1.5 6.7,-3.1 -2.4,-0.1 -4.4,1.2 -6.6,1.6 -0.4,0.4 -1,0.5 -0.9,1.1 z" id="path160"></path> <path fill="#010101" d="m 154.8,104.3 c 0.4,-0.4 0.9,-0.8 1.4,-0.8 0.8,0.1 1,-0.4 0.9,-0.9 -0.2,-0.8 -0.8,-0.4 -1.2,-0.2 -1.8,0.8 -3.5,1.6 -5.3,2.5 -0.3,0.2 -0.6,0.5 -0.8,0.7 0,0.3 0.1,0.5 0.1,0.8 0.2,0 0.5,0 0.7,0 1.4,-0.7 2.8,-1.4 4.2,-2.1 z" id="path162"></path> <path fill="#010101" d="m 175.3,108.6 c 0,-1.1 -1,-0.4 -1.4,-0.3 -4.9,0.4 -9.7,0.8 -14.6,1.3 -1.3,0.1 -2.5,0.3 -3.8,0.4 -0.3,0 -0.7,0.2 -0.7,0.5 0,0.4 0.3,0.5 0.7,0.5 0.6,0 1.1,0 1.7,-0.1 3.8,-0.4 7.6,-0.7 11.3,-1.1 1.4,-0.1 2.8,-0.2 4.3,-0.4 0.3,-0.2 0.6,-0.2 0.9,-0.1 0.7,0.2 1.6,-0.2 1.6,-0.7 z" id="path164"></path> <path fill="#010101" d="m 171,117.1 c -0.3,-0.7 -1,-0.7 -1.6,-0.8 -5.4,-0.7 -10.7,-1.3 -16.1,-2 -0.6,0.2 -1.7,-0.4 -1.8,0.5 0,1.1 1.2,0.6 1.8,0.7 1.9,0.3 3.7,0.5 5.6,0.8 4,0.4 7.9,0.8 11.9,1.2 0.1,-0.1 0.1,-0.3 0.2,-0.4 z" id="path166"></path> <path fill="#010101" d="m 152.2,109.2 c 2.6,-0.5 5.2,-1.5 7.9,-1.5 0.6,0 1.2,-0.4 1.7,-0.7 0.3,-0.1 0.6,-0.3 0.6,-0.7 -0.1,-0.6 -0.6,-0.3 -0.9,-0.3 -2.4,0.5 -4.8,1 -7.2,1.6 -1.3,0.3 -2.6,0.3 -3.8,1.1 0.4,0.8 1,0.6 1.7,0.5 z" id="path168"></path> <path fill="#010101" d="m 151.5,116.4 c 1.4,0.9 2.9,1.1 4.6,1.1 -1.4,-1.2 -3,-1.1 -4.6,-1.1 z" id="path170"></path> <path fill="#010101" d="m 157.3,118 c 0.7,0.8 1.8,0.3 2.6,0.9 1.2,-1.4 -0.5,-1 -0.9,-1.4 -0.6,0.1 -1.3,-0.4 -1.7,0.5 z" id="path172"></path> <path fill="#010101" d="m 112.4,93 c 0.3,0.4 0.6,0.7 0.9,1.1 0.3,0.2 0.6,0.5 0.7,0.9 0.1,0.1 0.2,0.2 0.2,0.3 0.8,0.1 1.3,0.7 1.8,1.2 0.3,0.3 0.6,0.5 0.9,0.8 0.3,0.3 0.6,0.5 1,0.8 0.9,0.4 1.2,1.5 2.2,1.6 1.3,1 2.8,1.9 3.8,3.3 0.7,0 1.3,-0.2 0.9,-1.1 -0.2,-0.4 0,-0.6 0.3,-0.7 -0.1,-0.4 -0.3,-0.8 -0.4,-1.2 -1,-0.7 -1.9,-1.6 -2.7,-2.6 -0.5,-0.3 -1,-0.6 -1.5,-0.9 -0.8,0.5 0.2,0.9 0.1,1.4 1,0.3 1.5,1.1 2,2 -0.9,-0.4 -1.6,-0.9 -2.2,-1.7 -1.8,-1.1 -3.2,-2.6 -4.9,-3.9 -0.7,-0.5 -1.4,-1 -2,-1.6 -0.6,-0.5 -1,-0.3 -1.1,0.3 z m 11.6,7.9 c 0.1,0 0.1,0.2 0.2,0.3 -0.1,0 -0.2,0.1 -0.3,0.1 -0.1,0 -0.2,-0.1 -0.2,-0.2 0,-0.4 0.2,-0.3 0.3,-0.2 z" id="path174"></path> <path fill="#010101" d="m 104,101.1 c -0.2,-0.1 -0.5,-0.1 -0.7,-0.2 -0.5,-0.1 -1.1,-0.6 -1.3,0.1 -0.2,0.7 0.6,0.6 1,0.8 0.8,0.4 1.6,0.7 2.4,1 0.5,0 1.1,0.4 1.5,-0.3 -0.4,-0.7 -1.3,-0.5 -1.7,-1 v 0 c -0.5,0 -0.9,0 -1.2,-0.4 z" id="path176"></path> <path fill="#010101" d="m 101.9,107 h 0.1 0.1 c 0.4,0 0.8,0 1.1,0 0.3,-0.1 0.8,-0.1 0.7,-0.7 -0.3,-0.1 -0.7,-0.2 -1,-0.3 -0.4,0 -0.8,-0.1 -1.2,-0.1 -0.5,0.6 0,0.8 0.2,1.1 z" id="path178"></path> <path fill="#010101" d="m 155.4,89.2 c 0,0.3 -0.1,1.4 0.9,0.8 0.8,-1.3 2,-2.1 3,-3.1 0.1,-0.1 0.2,-0.2 0.4,-0.4 0.4,-1.2 2,-1.6 2,-3 -0.9,0.1 -6.4,5 -6.3,5.7 z" id="path180"></path> <path fill="#010101" d="m 157,81.5 c -0.4,-0.2 -0.6,0.1 -0.8,0.3 -0.4,0.5 -0.5,1.4 -1.4,1.4 v 0 c 0,0.1 0,0.2 -0.1,0.3 0,1.2 -0.9,1.8 -1.5,2.7 0.1,0.6 -0.4,0.8 -0.7,1.2 0,0.3 -0.4,0.7 0,1 0.2,0 0.5,0.1 0.6,0 1.7,-1.8 2.8,-4.1 4.2,-6.2 0.1,-0.3 0,-0.6 -0.3,-0.7 z" id="path182"></path> <path fill="#010101" d="m 116.1,85.5 c -0.6,-0.9 -1.1,-1.6 -2.4,-1.5 0.5,1.1 0.9,2 2.4,1.5 z" id="path184"></path> <path fill="#010101" d="m 139.3,132.3 c 0.6,0.6 0.3,1.6 1.2,1.8 0.1,-0.1 0.1,-0.2 0.1,-0.3 -0.3,-1.7 -0.7,-3.3 -1.1,-5 -0.1,-0.1 -0.1,-0.1 -0.1,-0.2 -0.1,-0.1 -0.2,-0.1 -0.4,-0.2 -0.1,0 -0.3,-0.1 -0.4,-0.1 -2.4,-0.1 -3,0.6 -3,2.9 0.1,2.5 0.9,4.8 1.5,7.2 -1.4,-0.1 -1.1,1.3 -1.8,1.9 v 0 c 0.7,0.6 0.3,1.3 0.3,1.9 0,0.9 0.2,1.8 -0.3,2.6 0.4,0.5 0.3,1.1 0.1,1.7 0,0.2 -0.1,0.5 -0.1,0.7 0,0.1 0,0.3 0,0.4 0.3,0.9 -0.7,2.2 0.7,2.7 0.1,-0.1 0.2,-0.1 0.3,-0.1 0.1,-2.9 0.3,-5.8 0.4,-8.7 0,-0.6 -0.1,-1.2 0.4,-1.6 0.3,1 0,2.1 0.9,3.6 0,-3.8 0,-7 0,-10.3 0,0 0.1,-0.1 0.1,-0.1 0.1,0.1 0.1,0.3 0.2,0.4 0.8,0.1 0.7,-0.7 1,-1.2 z" id="path186"></path> <path fill="#010101" d="m 144.9,134.6 c 0.5,-0.5 0.6,-1.1 0.6,-1.8 -0.6,0.1 -0.6,-0.5 -0.8,-0.8 -0.9,-1.4 -1.3,-3 -2.8,-4.5 0.4,1.2 0.6,1.9 0.8,2.6 0.7,1.5 1.5,3 2.2,4.5 z" id="path188"></path> <path fill="#010101" d="m 140.8,128.6 c 0.2,2 0.9,3.9 1.7,6.2 0.4,-1.6 0.4,-1.6 -0.5,-4.3 -0.4,-0.7 -0.3,-1.6 -1.2,-1.9 z" id="path190"></path> <path fill="#010101" d="m 162.8,138.8 c 1.1,-0.3 0.9,-0.8 0.3,-1.4 -3.7,-3.6 -7.3,-7.2 -11,-10.7 -1.4,-0.9 -2.1,-2.6 -3.8,-3.2 -0.7,0.8 0,1 0.4,1.5 2.5,2.8 5.6,4.9 7.9,7.9 0.2,0.2 0.3,0.4 0.5,0.7 0.7,0.1 1.2,0.5 1.3,1.2 v 0 c 1.8,0.9 2.9,2.6 4.4,4 z" id="path192"></path> <path fill="#010101" d="m 145.9,129.4 c 0.1,-0.4 -2,-2.7 -2.4,-2.7 -0.3,0.1 -0.6,0.3 -0.4,0.6 0.5,0.8 1.1,1.6 1.8,2.4 0.2,0.3 0.8,0.3 1,-0.3 z" id="path194"></path> <path fill="#010101" d="m 149,127.7 c 0,0.1 0.1,-0.1 0.1,-0.3 0.1,-0.9 -0.9,-1.1 -1.3,-1.8 -0.2,-0.4 -0.6,-0.7 -1.1,-0.5 -0.1,0.1 -0.3,0.3 -0.3,0.4 0,0.4 1.9,2.2 2.6,2.2 z" id="path196"></path> <path fill="#010101" d="m 144.9,125.6 c -0.2,1.2 0.3,1.8 1.7,2.4 -0.4,-1.2 -0.8,-1.9 -1.7,-2.4 z" id="path198"></path> <path fill="#010101" d="m 110.4,114.7 c 0.1,0.8 1.2,0.4 1.8,0.3 2.8,-0.2 5.5,-0.4 8.3,-0.6 0.1,0 0.3,0 0.4,0 0.7,-1.3 -0.3,-1 -0.9,-1 -2.6,0.2 -5.3,0.3 -7.9,0.6 -0.7,0.1 -1.9,-0.3 -1.7,0.7 z" id="path200"></path> <path fill="#010101" d="m 120.7,109.8 c 0,-0.2 -0.1,-0.5 -0.1,-0.7 -1.7,-0.1 -3.4,-0.3 -5.1,-0.4 -0.1,0.3 -0.2,0.5 -0.3,0.8 0.1,0.1 0.1,0.2 0,0.3 v 0 c 0.4,0 0.7,0 1.1,0 0.1,0 0.3,0 0.4,0 0.1,0 0.2,0 0.4,0 0.8,-0.1 1.6,0.1 2.3,0.3 0.4,0 0.9,0 1.3,-0.1 v 0 c 0,0 0,-0.1 0,-0.2 z" id="path202"></path> <path fill="#010101" d="m 113.4,111.8 c 2.2,0.5 4.5,0.4 6.7,0.3 0.2,0 0.4,-0.4 0.6,-0.7 v 0 c -2.5,0 -4.9,-0.2 -7.3,0.4 z" id="path204"></path> <path fill="#010101" d="m 108,114.5 c -0.5,0 -1,0 -1.5,0.1 0,0 -0.1,-0.1 -0.1,-0.1 0,0.1 0,0.2 -0.1,0.3 0.5,1.5 1.7,0.3 2.6,0.7 0.2,-0.8 -0.2,-1 -0.9,-1 z" id="path206"></path> <path fill="#010101" d="m 101.1,114.9 c -0.2,0.3 -0.4,0.6 -0.3,1 1.3,0.9 2.5,0.2 3.6,-0.3 0,-0.1 -0.1,-0.2 -0.1,-0.3 -0.9,-0.4 -2,-0.3 -2.9,-0.4 -0.1,0 -0.2,0 -0.3,0 z" id="path208"></path> <path fill="#010101" d="m 173.8,120.6 c -0.1,0 -0.2,0 -0.3,-0.1 -1.4,-0.1 -2.8,-0.4 -4.1,-0.7 -1,-0.1 -2,-0.2 -3,-0.3 0,0.4 -0.1,0.9 0.4,1 2.1,0.5 4.2,0.9 6.3,1.2 0.6,0.1 0.8,-0.4 0.7,-1.1 z" id="path210"></path> <path fill="#010101" d="m 142.8,98.7 c 0.3,0.5 0.7,0.4 1,-0.1 0.5,-0.9 1,-1.8 1.5,-2.7 0.2,-0.4 0.3,-0.9 -0.4,-0.9 -0.6,0.1 -2.4,3.2 -2.1,3.7 z" id="path212"></path> <path fill="#010101" d="m 133.9,97.2 c 0.1,0 0.2,0 0.3,0.1 0.6,-1.3 0.4,-2.6 -0.4,-3.8 -0.7,0.7 0,1.4 -0.1,2.1 0,0.6 0.1,1.1 0.2,1.6 z" id="path214"></path> <path fill="#010101" d="m 126.4,100.2 c 0.1,-0.1 0.1,-0.2 0.2,-0.3 -0.2,-0.4 -0.3,-0.8 -0.5,-1.1 -0.4,-0.5 -0.9,-0.8 -1.5,-0.7 -0.3,0.8 0.4,1.2 0.7,1.8 0.4,0.3 0.7,0.4 1.1,0.3 z" id="path216"></path> <path fill="#010101" d="m 128.3,98.9 c 0.3,0 0.6,-0.2 0.6,-0.6 -0.1,-0.7 -0.6,-0.9 -1.2,-1 -0.4,0.1 -0.7,0.3 -0.5,0.6 0.2,0.4 0.3,1.2 1.1,1 z" id="path218"></path> <path fill="#010101" d="m 123.8,104.5 c -1.4,-1.4 -3.4,-2.1 -4.9,-3.4 -1.1,0.5 -0.4,1 0,1.6 1.2,0.7 2.6,0.9 3.6,1.8 0.3,0 0.6,0.1 0.9,0.1 0.2,-0.1 0.3,-0.1 0.4,-0.1 z" id="path220"></path> <path fill="#010101" d="m 122.4,105.6 c -0.8,-0.4 -1.8,-0.5 -2.4,-1.4 v 0 c -0.4,0 -0.8,0 -1.1,-0.4 v 0 c -0.1,0 -0.2,0 -0.3,-0.1 -0.2,-0.1 -0.3,-0.2 -0.5,-0.3 -0.5,-0.2 -0.9,-0.3 -1.4,-0.5 -0.5,-0.1 -0.9,-0.2 -1.2,-0.6 -0.1,0 -0.2,0 -0.3,0 -0.1,0 -0.2,0.1 -0.2,0.1 -0.3,0.7 0.3,1 0.7,1.3 2,0.9 4,1.9 6,2.8 0.3,0.2 0.7,0.4 1,0.1 0.2,-0.4 0,-0.7 -0.3,-1 z" id="path222"></path> <path fill="#010101" d="m 121.5,107.8 c 0.1,-0.4 -0.3,-0.5 -0.6,-0.5 -1.6,0.1 -2.8,-1.2 -4.3,-1.5 -0.6,-0.1 -1.2,-0.3 -1.7,-0.4 -0.2,0.7 0.3,1 0.8,1.2 1.6,0.6 3.2,1.2 4.8,1.8 0.3,-0.2 0.9,0 1,-0.6 z" id="path224"></path> </g> <path fill="#bb5064" d="m 111.6,176 c 0.4,0.1 0.7,0.3 1,0.4 0.4,0.1 0.7,0.3 1,0.5 0.7,0.4 1.3,0.8 1.8,1.4 1.1,1.4 1.9,2.9 2.6,4.6 0.1,0.3 0.5,0.6 0.2,0.8 -0.3,0.2 -0.7,0.2 -1.1,0.2 -0.9,-0.2 -1.4,-0.8 -1.7,-1.6 -0.3,-0.6 -0.6,-1.2 -1.2,-1.7 -0.7,-0.6 -1.6,-0.8 -2.3,-0.3 -0.8,0.6 -0.2,1.4 0.1,2 0.2,0.4 0.5,0.7 0.7,1.1 0.3,0.4 0.3,0.9 -0.4,0.9 -1.5,-0.1 -2.9,-0.4 -3.9,-1.6 -0.8,-1.1 -1.3,-2.3 -0.7,-3.7 0.3,-0.7 0.7,-1.4 1.3,-1.9 0.6,-0.5 1.4,-1 2.2,-1 0.2,-0.1 0.3,-0.1 0.4,-0.1 -0.1,0 0,0 0,0 z" id="path228"></path> <path fill="#bb5064" d="m 145.6,176.8 c 0.1,-0.2 0.2,-0.4 0.4,-0.5 0.4,-0.3 0.9,-0.3 1.4,-0.3 2.2,0 4.1,0.5 5.5,2.3 1,1.3 1.9,2.7 2.9,4 0.2,0.3 0.4,0.5 0.1,0.8 -0.5,0.6 -1,0 -1.4,-0.4 -0.5,-0.5 -1,-1 -1.4,-1.5 -0.5,-0.7 -0.9,-1.5 -1.6,-2.2 -0.5,-0.5 -1.2,-1.1 -1.9,-0.9 -0.2,0 -0.3,0.1 -0.5,0.2 -0.5,0.5 0.1,1.1 0.4,1.5 0.5,0.6 0.8,1.2 1.3,1.8 0.3,0.3 0.9,0.8 0.4,1.2 -0.6,0.4 -1.3,-0.2 -1.6,-0.6 -0.6,-0.6 -1.2,-1.2 -1.8,-1.9 -0.5,-0.6 -1,-1.1 -1.5,-1.7 -0.3,-0.5 -0.9,-1.1 -0.7,-1.8 z" id="path230"></path> <path fill="#bb5064" d="m 126,177.8 c -0.2,-0.3 -0.3,-0.6 -0.4,-0.9 -0.1,-0.5 0,-0.9 0.4,-1.1 0.6,-0.3 1.4,-0.3 2,-0.2 2.4,0.1 4.4,1 5.7,3 0.7,1.1 1.8,2 2.8,3 -1.2,0.8 -1.9,0.6 -2.8,-0.2 -0.6,-0.6 -1.2,-1.3 -1.7,-2 -0.8,-0.9 -1.7,-1.8 -2.8,-2.4 -0.1,0 -0.2,-0.1 -0.3,-0.1 -0.1,0 -0.3,0.1 -0.4,0.2 -0.4,0.3 0.1,1 0.2,1.3 0.2,0.5 0.5,1 0.8,1.4 0.2,0.3 0.5,0.6 0.6,1 0.1,0.3 0.2,0.6 0,0.9 -0.2,0.3 -0.6,0.3 -0.9,0.1 -0.8,-0.3 -1.1,-1.1 -1.7,-1.7 -0.3,-0.7 -1,-1.4 -1.5,-2.3 z" id="path232"></path> <path fill="#eca920" d="m 147.9,181.1 c 0.3,0.4 0.9,1.1 0.5,1.4 -0.6,0.4 -1.3,0 -1.7,-0.6 -0.6,-0.9 -1.3,-1.9 -2,-2.8 -0.4,-0.6 -0.9,-1.1 -1.5,-1.4 -0.6,-0.3 -1.6,-0.6 -1.7,-0.3 -0.3,0.5 0.5,1.4 0.7,1.7 0.4,0.5 0.8,0.9 1.1,1.4 0.3,0.4 0.8,0.9 0.5,1.4 -0.4,0.6 -1.1,0.2 -1.6,0 -1,-0.5 -1.7,-1.4 -2.3,-2.3 -0.5,-0.8 -1,-1.6 -1.5,-2.4 -0.2,-0.3 -0.6,-0.9 -0.4,-1.3 0.2,-0.4 1.1,-0.5 1.6,-0.5 1.5,-0.2 3.2,-0.1 4.5,0.8 0.8,0.5 1.3,1.3 1.8,2 0.6,0.8 1.2,1.6 1.9,2.4 -0.1,0.3 0,0.4 0.1,0.5 z" id="path234"></path> <path fill="#eca920" d="m 128.8,181.8 c 0,0.2 -0.2,0.4 -0.3,0.5 -0.4,0.4 -0.8,0.3 -1.2,0.1 -0.4,-0.2 -0.8,-0.4 -1.2,-0.6 -0.6,-0.5 -1,-1.1 -1.4,-1.7 -0.9,-1.2 -1.8,-2.5 -3.8,-2.7 0,0 0.2,0.5 0.3,0.6 0.1,0.2 0.2,0.4 0.3,0.6 0.2,0.4 0.4,0.8 0.6,1.2 0.4,0.8 0.8,1.6 1.1,2.4 -0.2,0.1 -0.4,0.2 -0.6,0.2 -0.2,0 -0.4,0 -0.6,0 -0.4,-0.1 -0.7,-0.4 -0.9,-0.7 -0.9,-1.3 -1.7,-2.7 -2.7,-3.9 -0.3,-0.4 -0.7,-1.1 -0.1,-1.4 0.4,-0.2 0.8,-0.2 1.2,-0.3 0.5,-0.1 1,-0.1 1.5,-0.1 0.8,0 1.6,0.1 2.4,0.4 0.7,0.3 1.2,0.8 1.7,1.3 0.3,0.3 0.6,0.6 0.9,0.9 0.3,0.3 0.6,0.6 0.9,0.9 0.4,0.4 0.7,0.8 1.1,1.2 0.2,0.3 0.5,0.5 0.7,0.8 0,0.1 0,0.2 0.1,0.3 -0.1,0 0,0 0,0 z" id="path236"></path> </g> <path fill="#010101" d="m 145.8,131.7 c 0.3,0.5 0.7,1.4 0.7,1.4 0,0 0.7,-0.1 0.6,-0.7 -0.1,-0.6 -0.7,-1.2 -0.7,-1.2 z" id="path240"></path> <path fill="#010101" d="m 153,132.5 c 0,0 -0.6,0.1 -0.3,0.6 0.3,0.5 1.1,1.1 1.1,1.1 l 0.4,0.3 c 0,0 0.3,-0.9 0,-1 -0.3,-0.1 -1.2,-1 -1.2,-1 z" id="path242"></path> <path fill="#010101" d="m 156.1,137.6 c 0.2,-0.3 -0.1,-0.3 0.4,-0.3 0.4,0 0.9,1.1 0.9,1.1 l 2.2,1.8 c 0,0 1.1,0.4 0.8,0.7 -0.3,0.3 -0.5,0.4 -1,0.3 -0.5,-0.1 -1.7,-1.4 -2,-1.8 -0.3,-0.4 -1.3,-1.4 -1.3,-1.4 z" id="path244"></path> <path fill="#010101" d="m 155.2,141.8 c 0.3,0 0.6,0 0.6,0 0,0 0.9,1.3 1,1.5 0.1,0.2 -0.2,0.5 -0.4,0.5 -0.2,0 -0.6,-0.9 -0.8,-1 -0.2,-0.1 -0.4,-1 -0.4,-1 z" id="path246"></path> <path fill="#010101" d="m 153.2,143.8 c 0.5,0.2 0.6,0.8 0.6,0.8 0,0 0.6,0.5 0.5,0.7 -0.1,0.2 0,0.5 -0.2,0.5 -0.2,0 -0.6,-0.5 -0.6,-0.5 0,0 -0.3,-0.6 -0.3,-0.8 0,-0.1 0,-0.7 0,-0.7 z" id="path248"></path> <path fill="#010101" d="m 147.8,141.2 c 0.2,-0.1 -0.3,-0.7 0.2,-0.1 0.4,0.6 0.4,0.7 0.5,0.9 0.1,0.2 0,0.8 0,0.8 0,0 -0.3,0.3 -0.3,0 0,-0.3 -0.3,-0.8 -0.4,-1 -0.1,-0.2 0,-0.6 0,-0.6 z" id="path250"></path> <path fill="#010101" d="m 145.8,146.9 c 0.3,0.1 0.8,0.4 0.7,0.5 -0.1,0.1 0.2,0.7 0.2,0.7 0,0 0,0.3 -0.2,0.3 -0.2,0 -0.6,0.3 -0.6,0 0,-0.3 -0.4,-0.7 -0.3,-0.9 0,-0.2 0.2,-0.6 0.2,-0.6 z" id="path252"></path> <path fill="#010101" d="m 143.6,147.5 c 0.2,0.4 0.4,0.6 0.4,0.9 0,0.3 0.1,0.6 0,0.8 -0.1,0.1 0,0.4 -0.2,0.4 -0.2,0 -0.7,0.2 -0.7,-0.2 0.1,-0.4 -0.2,-1 0,-1.2 0.2,-0.2 0.5,-0.7 0.5,-0.7 z" id="path254"></path> <path fill="#010101" d="m 140.4,148 c 0.2,0.1 0.2,0.6 0.2,0.6 0,0 0,1 0,1.1 0,0.1 -0.2,0.7 -0.2,0.7 0,0 -0.3,0.1 -0.3,-0.5 0,-0.5 0,-1.3 0,-1.3 -0.1,-0.1 0.3,-0.6 0.3,-0.6 z" id="path256"></path> <path fill="#010101" d="m 137.9,150.1 c 0.1,-0.4 -0.1,-1.6 0,-1.8 0.1,-0.2 -0.1,-1.1 0,-1.4 0.1,-0.3 -0.2,-1.3 0,-1.5 0.2,-0.1 0,-0.8 0,-0.8 0,0 0.1,0 -0.2,0.3 -0.3,0.3 -0.5,0.9 -0.5,1.3 0,0.4 0,1.8 0,2 0,0.2 0,1.2 0,1.5 0,0.3 0,1.1 0,1.1 z" id="path258"></path> <path fill="#010101" d="m 132.7,146.2 c 0.1,0.2 -0.1,0.4 0,0.6 0.1,0.2 0,0.7 0,1.1 0,0.4 0,1.2 0,1.2 0,0 -0.5,0.4 -0.7,0.5 -0.2,0.1 -0.4,-0.1 -0.3,-0.5 0.1,-0.4 0.5,-2 0.5,-2 z" id="path260"></path> <path fill="#010101" d="m 128.3,149.2 c 0.4,-0.1 0.7,-0.3 0.8,-0.6 0.1,-0.3 0.5,-1.4 0.6,-1.7 0.1,-0.3 0,-1 0,-1 -0.5,0.5 -0.9,0.4 -1,1 -0.1,0.6 -0.4,1.7 -0.4,1.7 z" id="path262"></path> <path fill="#010101" d="m 130.1,144.6 c 0.2,-0.3 0.3,-0.8 0.3,-1 0,-0.1 0.1,-0.5 -0.1,-0.2 -0.3,0.2 -0.5,0.6 -0.5,0.6 v 1 z" id="path264"></path> <path fill="#010101" d="m 126.1,147.5 c 0.2,-0.7 0,-1.5 0.2,-1.6 0.2,-0.1 0.6,-0.4 0.6,-0.4 l -0.4,1 c 0,0 0,1 0,1.2 0,0.2 -0.4,0.4 -0.4,0.4 z" id="path266"></path> <path fill="#010101" d="m 126.9,144.4 c 0.1,-0.5 0.5,-1 0.6,-1.1 0.1,-0.2 1,-0.3 0.7,0 -0.2,0.3 -0.3,0.6 -0.4,0.8 -0.1,0.2 0,0.9 -0.3,0.8 -0.3,-0.1 -0.6,-0.5 -0.6,-0.5 z" id="path268"></path> <path fill="#010101" d="m 131.7,136.4 c 0.1,0.5 0.1,1.1 0,1.3 -0.1,0.1 0.6,0.4 0.6,0 0,-0.4 0.1,-0.7 0,-0.9 -0.1,-0.2 -0.3,-0.3 -0.3,-0.3" id="path270"></path> <path fill="#010101" d="m 161.7,132.2 c 0.3,0.1 1.6,0.9 1.6,0.9 0,0 1.6,0.8 1.7,1 0.1,0.2 1.2,1.1 1.2,1.1 0,0 -0.2,-0.2 -0.5,0 -0.3,0.2 -1.7,-0.6 -1.8,-0.7 -0.1,-0.1 -0.7,-0.5 -1.1,-1 -0.3,-0.5 -1.1,-1.3 -1.1,-1.3 z" id="path272"></path> <path fill="#010101" d="m 171.9,117.2 c 0.7,0 1.9,0 1.9,0 l 1.8,0.3 -0.3,0.7 -2.7,-0.5 h -1.1 z" id="path274"></path> <path fill="#010101" d="m 151.2,110.6 c 0.8,-0.1 1.8,0 1.8,0 h 1.3 c 0,0 0.7,0.3 0,0.4 -0.7,0.2 -1.5,0.3 -1.7,0.4 -0.2,0 -0.5,0.1 -0.7,0 -0.2,-0.1 -0.7,-0.8 -0.7,-0.8 z" id="path276"></path> <path fill="#010101" d="m 130.9,116.8 c 0.2,0.1 1.8,1.5 2.1,1.4 0.3,-0.1 1.2,0.1 2.1,0 0.9,-0.1 2.2,-0.3 2.2,-0.3 0,0 1.3,-0.8 1.5,-1.1 0.2,-0.2 1,-1.5 1,-1.6 0,-0.1 0.9,-1.4 0.8,-1.8 -0.1,-0.3 0.3,-2.3 0,-2.4 -0.3,-0.1 -1,-0.4 -1,-0.4 0,0 0.1,1.8 0,2 -0.1,0.2 -0.2,1.7 -0.6,2 -0.3,0.4 -2.2,2.3 -2.2,2.3 0,0 -1.7,0.3 -2.3,0.4 -0.6,0 -2,0 -2.3,0 -0.2,0 -1.3,-0.5 -1.3,-0.5 z" id="path278"></path> <path fill="#010101" d="m 134.9,115.1 c 0.7,0 1.8,-0.2 1.8,-0.2 0,0 0.8,-0.9 0.9,-1.4 0.1,-0.5 -0.2,-1.7 -0.2,-1.7 H 137 c 0,0 0,0.3 0,0.8 0,0.5 0.2,0.6 -0.1,1.2 -0.4,0.6 -1,0.7 -1,0.8 -0.2,0 -1,0.5 -1,0.5 z" id="path280"></path> <path fill="#010101" d="m 135.8,96.8 c -0.4,0.5 -0.5,1.3 -0.5,1.3 l 0.5,0.6 c 0,0 0.3,-0.3 0.3,-0.9 0,-0.6 -0.3,-1 -0.3,-1 z" id="path282"></path> <path fill="#010101" d="m 146.1,101.1 c 0.5,-0.8 1.4,-2.2 1.6,-2.4 0.2,-0.2 0.8,-1.2 1.3,-1.4 0.5,-0.2 1.7,-1.2 1.7,-1.4 0.1,-0.2 1.8,-2.8 1.8,-2.8 0,0 1.4,-0.8 1.4,-0.8 0,0.1 -0.6,1.4 -0.6,1.4 0,0 -2.1,3.4 -2.3,3.5 -0.2,0.1 -2.1,1.7 -2.1,1.7 z" id="path284"></path> <path fill="#010101" d="m 100.4,110.6 c 0.4,0.1 1.4,0 1.8,0 0.4,0 2,0.4 1.7,0.4 -0.3,0.1 -1.3,0.4 -1.7,0.4 -0.4,0 -1.4,-0.4 -1.6,-0.4 -0.1,-0.1 -0.2,-0.4 -0.2,-0.4 z" id="path286"></path> <path fill="#010101" d="m 105.2,111 c 0.2,0.1 1.9,0 1.9,0 0,0 0.7,0.6 0.5,0.6 -0.2,0 -1.5,0.3 -1.7,0.2 -0.3,-0.1 -0.7,-0.8 -0.7,-0.8 z" id="path288"></path> <path fill="#010101" d="m 108.4,89.5 c 0.3,0.7 0.8,1.8 0.8,1.8 0,0 0.7,-0.7 0.4,-1.2 -0.3,-0.5 -1.2,-1.1 -1.2,-1.1 z" id="path290"></path> <path fill="#010101" d="m 111.8,87.4 c 0.6,0.3 0.8,0.3 0.8,0 0,-0.3 -0.4,-1 -0.4,-1 0,0 -0.8,-0.5 -0.8,0 0,0.5 0.4,1 0.4,1 z" id="path292"></path> <path fill="#010101" d="m 122.2,79.1 c 0,0.6 0,1.2 0,1.2 l 0.3,0.3 0.5,-0.7 -0.5,-1.1 z" id="path294"></path> <path fill="#010101" d="m 125.7,76.4 c 0.1,0.2 -0.1,1.1 -0.1,1.4 0,0.2 0.3,0.7 0.5,0.4 0.2,-0.3 0.3,-1.1 0.2,-1.2 0,-0.1 -0.6,-0.6 -0.6,-0.6 z" id="path296"></path> <path fill="#010101" d="m 147.4,77.6 1.2,-0.7 c 0,0 0.6,0 0.5,0.4 -0.1,0.4 -0.4,1 -0.4,1 L 148,79 147.8,77.9 Z" id="path298"></path> <path fill="#010101" d="m 152.4,78.7 -0.2,0.9 v 0.9 c 0,0 -0.1,-0.5 0.2,-0.6 0.3,-0.1 0.6,-0.3 0.5,-0.4 0,-0.1 0,-0.7 0,-0.7 0,0 -0.1,-0.9 -0.4,-0.7 -0.3,0 -0.1,0.6 -0.1,0.6 z" id="path300"></path> </g> </g> </svg> 