<?xml version="1.0" encoding="UTF-8"?><svg id="Layer_1" xmlns="http://www.w3.org/2000/svg" xmlns:xlink="http://www.w3.org/1999/xlink" viewBox="0 0 1441.67 1175"><defs><linearGradient id="linear-gradient" x1="620.82" y1="1074.64" x2="650.12" y2="1129.98" gradientUnits="userSpaceOnUse"><stop offset="0" stop-color="#908e80"/><stop offset="1" stop-color="#69675e"/></linearGradient><linearGradient id="linear-gradient-2" x1="786.26" y1="1015.59" x2="731.99" y2="1022.75" gradientUnits="userSpaceOnUse"><stop offset="0" stop-color="#928f7f"/><stop offset="1" stop-color="#b2af99"/></linearGradient><linearGradient id="linear-gradient-3" x1="759.16" y1="1069.35" x2="805.57" y2="1109.3" gradientUnits="userSpaceOnUse"><stop offset="0" stop-color="#959283"/><stop offset="1" stop-color="#4a4942"/></linearGradient><linearGradient id="linear-gradient-4" x1="685" y1="1062.09" x2="649.99" y2="1113.16" gradientUnits="userSpaceOnUse"><stop offset="0" stop-color="#b3af9a"/><stop offset="1" stop-color="#838173"/></linearGradient><linearGradient id="linear-gradient-5" x1="712.82" y1="1101.45" x2="735.34" y2="1151.31" gradientUnits="userSpaceOnUse"><stop offset="0" stop-color="#969484"/><stop offset="1" stop-color="#5b5950"/></linearGradient></defs><g id="Generative_Object"><path d="M570.15,221.23c-.44-.09-1,.61-1.33-.23-.26,0-1.77-.67-1.62-1.16.2-.62,1.29-1.2,1.58-1.65.57-.87,1.56-.23,1.51.29-.1,1,0,2.44-.14,2.75Z" fill="#5c6b74"/><path d="M900.9,621.32c2.18,4.49,7.02,5.83,10.91,8.71l38.82,28.76c2.18,1.61,16.42,21.26,13.9,23.36-6.77-1.43-10.1,2.62-15.05,7.22-3.08,2.86-7.29-4-7.32-6.81-3.83.48-5.93-.78-1.63-2.35l-1.87-4.34c-.4-.92,1.96-2.09,4.1-3.39-1.41-2.96-4.14-7.87-6.79-9.88-4.05-1.99-9.58-1.21-13.48-.43-.66,1.66,1.19,3.55,1.02,4.35-.24,1.21-2.08,2.26-4.28,2.64,2.65,2.7,2.12,7.27-1.09,8.03-14.21,3.37-26.08.76-39.35-3.4-3.25-1.02-7.64-.91-8.73-4.89l-4.48,1.27c-1.56.44-1.04-3.3-4.72-3.19-1.06-1.78,4.07-2.24,1.13-5.36,3.04-3.2,3.34-8.44,5.51-12.08,4.98-8.33,23.36-30.53,33.39-28.22Z" fill="#e4e3e0"/><path d="M893.06,733.16c-.91,3.79-5.31,8.56-10.07,6.45-7.39-3.27-44.48,43.01-47.85,49.39l-9.15,17.33c-3.07,5.82-6.55,12.06-4.31,19.26,23.58-12.83,32.75-33.09,50.79-46.44-2.04,7.95-7.03,14.45-11.71,21.75-2.91,4.53-3.36,10.93-8.52,13.34-1.7-.54-2.72-2.57-2.88-1.02l-.4,3.9c.14-1.39-44.06,62.54-32.12,59.55-.69,3.5-1.61,8.76-5.89,9.34-.68-6.96-14.83,15.25-14.31,2.83,3.98-11.31,9.31-23.99,10.18-36.37,3.54-50.19,29.91-80.43,61.15-114.96,2.67,3.14,3.75-3.83,6.51-3.81l18.58-.53Z" fill="#323440"/><path d="M810.67,575.6c1.19,2.14-2.85,3.62-2.93,5.46,3.43,4.53,9.65,2.73,14.24.73,1.85,2.51,6.28,3.87,7.37,7.04-7.65,6.09-17.39,8.67-26.2,13.33.51,1.55,1.86,3.41.9,4.2s-3.47.3-4.62.71l-13.58,4.84c-16.02,5.71-32.17,9.35-49.76,10.39,9.79-6.06,20.54-7.58,30.77-12.23l23.47-10.67c1.81-.82-1.72-3.56-2.66-2.76-.69.58-1.71,1.57-3.38,1.68-2.19.15-1.09-1.07-.72-1.61,1.93-2.8,4.9.65,8.14-2.28.57-.52.07-1.47-1.12-2.34-.65-.48-1.48.12-3.21.53l-19.68,4.66c-1.95.46-31.16,11.81-28.51,7.84,2.01-.93,3.7-.51,3.33-2.37l59.13-20.41c-3.64-1.07-7.79-.49-11.03.61-4.1-2.01,19.08-9.67,16.8-10.17.22,1.07.73.9,1.36.19-1.3.69-.55,1,.03,1.74.76.98.81,1.25,1.87.89Z" fill="#e4e3e0"/><path d="M819.97,971.38c-1.01,1.56,1.42,1.68,2.89,2.43-4.88,15.1-7.75,28.58-9.94,42.29-8.24-14.04-22.47-24.71-36.82-33.79,5.13-10.69-2.84-2.76,3.27-12.22.56-.36,2.06.16,1.81.73-.51,1.19-1.49,2.16,1.58,2.64.18-3.65.86-4.02,2.79-.8,1.83-.47,1.88-2.28,2.63-2.63.79-.38,2.55,0,2.13,1.15-3.46,1.67-.96,4.21,1.79,2.02,2.58-.04.57,1.33-.04,1.95-.46.47,2.5,2.5,1.63,3.26-3.1,2.71-5.92,3.76-7.99,6.56,5.46,1.82,8.05-2.78,10.95-5.86,1.46-1.55,5.76-3.63,3.72-5.97-1.35-1.55-3.11-3.01-5.27-4.04,3.61-1.67,7.68,1.35,7.97-2.16,5.53,1.66,11.65,1.78,16.92,4.42Z" fill="#4a4c56"/><path d="M803.05,966.96c-.29,3.5-4.35.49-7.97,2.16,2.16,1.02,3.92,2.49,5.27,4.04,2.04,2.34-2.26,4.42-3.72,5.97-2.9,3.09-5.48,7.68-10.95,5.86,2.07-2.8,4.89-3.86,7.99-6.56.88-.76-2.08-2.8-1.63-3.26.61-.62,2.62-2,.04-1.95-2.75,2.18-5.25-.36-1.79-2.02.42-1.15-1.35-1.52-2.13-1.15s-.8,2.16-2.63,2.63c-1.93-3.21-2.6-2.85-2.79.8-3.06-.48-2.08-1.45-1.58-2.64.24-.57-1.26-1.1-1.81-.73-.84.55-.87-.5-1.33-.69-.84-.36-1.89-1.71-.65-1.75-4.42,1.59-8.38-1.9-11.45-.61-.17-3.93,2.27-7.49,5.79-9.21,1.98-1.29,4.81,2.1,7.02,2.34,6.33-1.21,10.52-19.33,19.18-19.98-3.02,7.57-7.28,13.3-13,21.33l18.12,5.44Z" fill="#e4e3e0"/><path d="M810.94,886.01c-2.77,11.2-8.95,14.31-12.91,24.32-1.97,4.96-10.75,28.78-16.8,20.33,3.53-14.56,10.53-27.99,15.4-41.82-.52,12.43,13.63-9.78,14.31-2.83Z" fill="#4a4c56"/><path d="M821.98,581.79c-4.59,2-10.8,3.8-14.24-.73.08-1.84,4.12-3.32,2.93-5.46,5.82-1.97,15.97,7.89,11.3,6.19Z" fill="#4a4c56"/><path d="M872.46,779.15c-18.03,13.35-27.21,33.61-50.79,46.44-2.23-7.2,1.24-13.44,4.31-19.26l9.15-17.33c3.37-6.38,40.46-52.66,47.85-49.39,4.76,2.1,9.16-2.66,10.07-6.45.93-.26,5.12-1.45,4.5-3.06-1.89-4.87-7.6-6.89-12.11-8.46l-38.46-13.32c16.43-1.17,21.61,6.02,39.05,5.34,11.14-9.67,10.24,2.72,31.2.85,5.41-2.67,4.29-11.16,7.96-15.72,2.57-3.19,11.33-3.08,14.19-.98,2.55,1.88,1.92,6.14,1.49,7.91-1.23,5.02-15.26,3.32-14.97,11.24.11,2.95,3.87,6.16,2.88,8.34-.89,1.96-3.67,7.92-5.58,6.72l-6.22-3.89c-2.11-1.32-5.16,3.27-7.52,4.24-15.09,6.16-3.82,12.97-20.72,41.31-2.91,4.88-7.22,8.56-7.5,14.88-.05,1.04-1.53,2.27-2.15,3.32-.46.78-1.93.85-2.04-.65l8.72-21.44c.43-1.06-.14-2.56-.5-2.99-2.35-2.89-12.21,10-12.81,12.35Z" fill="#c9ccc9"/><path d="M742.53,602.74c-2.14-5.13-8.19-4.28-12.73-1.63-2.85,1.66-7.21-.65-9.14,1.52-2.9,3.26-6.77,1.08-9.47,5.03-2.8,4.09-8.84-7.07-9.69-6.27-1.11,1.04,11.6-6.83,13.06-4.47,6.89.31,72.52-12.76,76.07-13.97,3.24-1.1,7.39-1.68,11.03-.61l-59.13,20.41Z" fill="#1e3a8a"/><path d="M956.97,166.65c2.49-1.02,5.45,1.1,7.39,2,.84.39,1.62,2.87,2.3,2.73l3.66-.75c2.5-.51,5.51,3.8,8.68,3.31,2.2-.34,4.66-2.51,4.19-5.11,19.25.61,12.72-9.3,26.88-5.53.33-6.36,7.26-2.68,9.13-4.58,4.77-4.86,28.41-6.61,27.31-6.36l10.86-2.43c-3.35.75,23.05-.72,26.46-6.72.54-.95,3.7,2,4.42.37,1.1-2.52,22.1-9.26,20.12-8.78,14.19-3.49,17.12-14.33,24.72-22.25-.41,2.31-1.45,7.77,1.28,9.04,9.59-2.97,17.77-4.22,26.8-1.83,1.48.39,5.23-1.9,6.5.46.68,1.27,2.53,3,.97,5.48-2.42-1.02-2.04-3.27-3.84-4.69-.81,2.78.45,4.81-1.67,5.66-1.03.41-2.77-.34-4.01-.98-1.63-.83,1.18-3.76.24-4.34-2.81-1.73-3.92,3.02-5.08,3.84-1.96-.41-2.02-2.67-2.57-3.46-.08-.11-12.6-2.24-13.58,3.01-9.85.33-18.31,5.85-22.53,15.68l-18.2,3.18c-2.61.46-31.49,17.29-33.74,18.82-14.57,9.91-32.42,10.54-49.99,9.45-8.57-.53-15.82,5.12-24.09,5.38.75,9,23.79,15.9,17.5,17.18-.91.18-2.65-.92-3.97-1.48-6.26-2.63-11.67.02-17.27,1.56-13.18,3.62-26.75.35-40.26,1.9.98-12.12,4.24-21.98,11.39-29.78Z" fill="#e4e3e0"/><path d="M280.58,534.44l-38.96,15.39c-2.12.98-6.53-1.82-5.57-4.5,1.31-3.63,5.55-4.98,8.42-6.41,1.28-.64,1.52-.61,2.07-1.88,3.25.01,6.05-2.37,8.94-4.5,6.71-4.95,14.48-6.34,20.82-12-2.82-2.63-5.03.45-7.3,1.17-6.75,2.14-13.41,3.4-19.89,4.73-1.59-.27-2.73-1.61-3.17-2.68-.75-1.83.07-3.69,2.03-4.6l22.92-10.65c11.25-5.23,20.93-11.79,32.68-14.18.58,1.05,1.15,2.89,2.48,3.69s2.49-2.91,3.76-2.8c10.54.92,17.85-8.74,19.97-1.45-3.4.65-5.53,2.74-6.38,5.03-4.07-2.87-3.66,1.29-2.15,3.35,1.66-2.99,5.03-6.24,8.85-3.72l-16.24,13.44c-7.67,6.35-17.93,10.28-23.33,18.77-1.42,2.23-1.04,4.34-3.58,6.2-3.29,2.41-3.27-1.92-6.39-2.41Z" fill="#1e3a8a"/><path d="M571.59,221.06c3.18,15.15,10.06,29.02,14.3,43.87-6.11-3.28-3.45-9.79-7.85-14.35-21.48,15.76-34.63,11.83-53.13,26.85,2.72,4.9,20.52-4.23,26.77-2.88-13.63,6.47-28.1,10.84-43.19,10.43,2.44-10.31,7.62-5.1,13.63-17.14,2.48-4.97,8.67-6.84,10.61-11.89,1.35-3.53,5.6-4.36,7.06-7.55,4.28-9.33,21.75-17.42,29.04-27.4.33.84.89.14,1.33.23.58.12.94.54,1.44-.17Z" fill="#e4e3e0"/><path d="M280.58,534.44c2.9,2.18-12.4,10.54-14.17,12.09-3.35,2.95-15.61,15.61-19.29,16.2-6.57-.59-.99-3.55-5.5-12.91l38.96-15.39Z" fill="#e4e3e0"/><path d="M246.55,537.04c1.47-3.33,2.16-6.98,2.57-10.6,6.48-1.34,13.15-2.59,19.89-4.73,2.26-.72,4.47-3.8,7.3-1.17-6.33,5.66-14.1,7.05-20.82,12-2.89,2.13-5.7,4.52-8.94,4.5Z" fill="#e4e3e0"/><path d="M983.19,168.84c.46,2.6-1.99,4.77-4.19,5.11-3.18.49-6.18-3.82-8.68-3.31l-3.66.75c-.68.14-1.46-2.34-2.3-2.73-2.98-1.2,22.12-1.59,18.83.19Z" fill="#666c76"/><path d="M663.48,167.18c-.56-.14-1.14-.13-1.71-.12-2.03-.04-1.41-.93-.78-1.61,1.55-1.67,1.94-1.57,2.39-.59.57,1.22.72,1.85.09,2.32Z" fill="#535a66"/><path d="M671.15,486.78c4.23,3.55,8.64,6.85,12.8,10.91-4.61-.74-9.04-3.57-12.96-4.61-.98-.26-10.21-7.36-9.16-5.51.81,1.42-.71,2.28-.6,2.85.92,4.86,6.87,5.81,10.15,7.95,8.48,5.53,18.51,5.55,29.25,7.25,28.44,4.51,51.53,22.99,66.25,45-5.91-1.38-8.9-5.07-12.11-7.38-1.71-10.05-26.88-25.25-37.07-29.03-11.77-4.36-23.79-1.03-35.26-2.01-13.66-1.17,6.34,7.62,13.02,8.2-.71.64-1.18,1.59-1.11,2.55-6.89-.75-14.22-2.96-21.72-2.55-11.43.63-22.05-2.35-34.36,1.54,29.15,6.57,52.01,14,77.46,6.11.47.24.74,1.34,2.3,1.21,3.57-.23,3.19,2.77-.17,2.1-3.47,1.87-7.17,1-10.91,1.03s-8.5.39-11.05,2.74c-11.8.94-61.89,10.13-68.57-7.05-1.67-4.29-2.95-8.43-.18-12.3,5.66-7.9,17.89,1.24,28.75-3.93-2.31-5.22-6.15-7.18-9.85-10.13-12.86-10.26-27.89-26.92-21.88-44.58,1.71,10.56,15.57,26.8,23.81,29.92-2.23-6.11-8.76-9.12-11.99-14.64-1.28-2.19,1.87-6.31-2.52-8.56-1.34-.69-.3-4.38-.19-5.32l23.9,28.43c1.29,3.14,4.39.96,2.35-1.85-11.22-13.02-20.5-26.77-23.19-43.2,2.02.51,3.16,2.59,4.18,4.53,8.1,15.51,17.74,29.51,30.62,40.32Z" fill="#e4e3e0"/><path d="M754.76,543.24c-4.78-1.27-10.38-2.9-14.19-6.28s-8.84-8.79-15.21-7.77c.25-.98-.42-.99-.87-1.22-.63-.32-1.91-.76-2.28-.09.04-2.28-26-7.42-26.76-7.49-6.68-.58-26.68-9.37-13.02-8.2,11.47.99,23.49-2.35,35.26,2.01,10.19,3.77,35.36,18.98,37.07,29.03Z" fill="#1e3a8a"/><path d="M670.99,493.08c-1.73-.38-1.84,1.14.13,1.56,1.62,1.29.86,2.65.26,3.73-3.28-2.14-9.22-3.09-10.15-7.95-.11-.57,1.41-1.43.6-2.85-1.05-1.85,8.18,5.25,9.16,5.51Z" fill="#84818c"/><path d="M627.64,404.14c-1.37-.25-1.97,1.04-1.59,2.29.16.55,1.65.69,2.27,2.27,8.24,21.18,20.14,38.89,37.99,52.08,3.53,2.61,6.38,5.37,9.37,7.96-1.21,1.21-2.68,2.39-3.18,4.07-5.51-3.87-10.35-8.38-14.58-13.81-1.57,1.78.09,2.52.4,3.03.74,1.2-.9,1.61-3.05,2.54,5.75,4.7,12.08,8.4,18.8,11.06,1.95-.22,2.92,1.77,3.87,3.35,2.6,4.33-9.65,4.32-6.79,7.79-12.88-10.82-22.52-24.82-30.62-40.32-1.02-1.94-2.16-4.02-4.18-4.53,2.69,16.44,11.97,30.18,23.19,43.2,2.04,2.8-1.06,4.98-2.35,1.85l-23.9-28.43c-.11.94-1.15,4.64.19,5.32,4.38,2.25,1.23,6.37,2.52,8.56,3.23,5.52,9.76,8.53,11.99,14.64-8.24-3.12-22.1-19.36-23.81-29.92-6.02,17.66,9.02,34.32,21.88,44.58,3.7,2.95,7.54,4.91,9.85,10.13-10.86,5.17-23.09-3.97-28.75,3.93-2.78,3.87-1.49,8.01.18,12.3,6.68,17.18,56.78,7.99,68.57,7.05,12.93.27-24.42,5.24-16.2,4.52-6.56.57-12.98,1.39-19.26,2.69-10.59,2.19-21.45,4.3-31.35,10.17-.8.48-2.27.21-2.81.99-.34.49-.19,1.19-.29,1.96-6.87,5.63-16.59,7.08-24.78,12.53-3.22,2.14-5.81,4.69-9.24,4.11-1.3-8.46,2.19-16.35,5.53-24.27l11.77-27.87c2.98-7.06-9.19-25.37,13.66-39.08-9.69-19.36-5.64-46.26-2.53-65.8-9.23-20.45-18.97-40.25-22.25-61.43,4.89,1.87,14.34,22.9,16.61,29.68.75,2.25,6.97,7.69,12.89,20.79Z" fill="#1e3a8a"/><path d="M675.67,468.75c-2.99-2.59-5.84-5.35-9.37-7.96-17.85-13.2-29.75-30.9-37.99-52.08-.62-1.59-2.11-1.73-2.27-2.27-.37-1.25.23-2.54,1.59-2.29,8.95,19.8,22.21,37.7,39.51,52.63,7.71,6.66,14.62,12.17,22.25,21.35-4.14-3.07-9.36-5.6-13.72-9.37Z" fill="#c9ccc9"/><path d="M658.62,546.05c-11.2,1.97-21.69,6.49-32.64,9.42.1-.78-.05-1.47.29-1.96.54-.78,2.01-.52,2.81-.99,9.91-5.88,20.77-7.98,31.35-10.17.7,1.16-.39,3.46-1.82,3.71Z" fill="#c9ccc9"/><path d="M672.49,472.82l1.58,2.82c-6.72-2.66-13.05-6.36-18.8-11.06,2.14-.94,3.79-1.35,3.05-2.54-.32-.51-1.97-1.25-.4-3.03,4.23,5.43,9.07,9.95,14.58,13.81Z" fill="#c9ccc9"/><path d="M616.31,496.29c.12-4.89,4.13-6.94,5.83-10.71,1.88,4.47.83,9.19-5.83,10.71Z" fill="#4a4c56"/><path d="M753.46,78.25c.06.85-.59,1.7-.18,2.4.44.76,1.3,1.15,2.32.77s.92-1.27.68-2.15c-.33-1.27,1.76-2.31,2.51-1.81.94.63,4.5,2.06,4.63,3.71.93,11.41.11,24.37-5.06,35.43-.65,1.39-4.03,1.44-4.5,2.09-.64.87-.47,2.36-.47,3.89s-1.12,4.62,1.29,4.65c-.09.55-.01.99.06,1.53,1.83,13.92-1.52,26.53-8.64,38.96-2.81,4.9-3.89,10.15-7.37,14.34-1.23-.08-1.91-.19-2.08-.91-.19-.81-.12-2.33-.27-3.54l-4.48-35.87c15.17-15.64-1.83-6.61,5.56-29.57-3.8-1.72-7.72-.5-10.95-3.27,17.92-12.78-.63-8.43,11.09-23.8-9.64,2.14,4.65-16.48.07-11.54,2.97-3.2,7.92-6.62,4.65-12.22-3-5.15-1.01-8.66.51-13.7.76-2.51-4.6-7.95-.26-11.01.67-.47,2.32.88,2.81.03.26-.45.17-1.47,1.39-1.11,4.04,13.91,5.62,28.25,6.7,42.71Z" fill="#1e3a8a"/><path d="M758.4,140.81c-4.96,18.09.68,3.16-6.42,20.19.05-.12-18.95,43.96-21.68,33.79,6.6-3.01,5.62-9.34,8.43-12.74,3.48-4.2,4.56-9.44,7.37-14.34,7.12-12.44,10.47-25.04,8.64-38.96,3.03,2.87,2.36,8.51,3.66,12.05Z" fill="#e4e3e0"/><path d="M753.32,91.6c-.26-2.66,2.14-4.09,4.41-5.72.73,3.03-1.05,4.64-4.41,5.72Z" fill="#73797e"/><path d="M746.76,35.54c-1.22-.36-1.14.66-1.39,1.11-.48.85-2.14-.5-2.81-.03-4.34,3.07,1.02,8.5.26,11.01-1.52,5.05-3.51,8.56-.51,13.7,3.27,5.6-1.68,9.02-4.65,12.22,4.59-4.94-9.71,13.68-.07,11.54-11.72,15.37,6.83,11.02-11.09,23.8,3.23,2.77,7.15,1.55,10.95,3.27-7.39,22.96,9.61,13.93-5.56,29.57l4.48,35.87c.15,1.21.08,2.74.27,3.54.17.72.86.83,2.08.91-2.81,3.39-1.83,9.72-8.43,12.74,2.73,10.17,21.73-33.92,21.68-33.79,7.1-17.04,1.46-2.11,6.42-20.19,3.3,2.1,3.35,7.48,3.16,11.2-1.46,27.68,6.72,30.62,3.44.98,1.41-4.61,5.66,1,5.87,3.48l1.56,18.44c4.5-6.66,10.14-2.55,8.39-12.99,2.74.36,5.09,2.21,8.37,1.72s2.68-4.46,2.76-6.61c1.68-.25,2.59-1.67,4.15-2.24s1.92,3.32,3.68,3.82c10.91-6.29,35.19-21.72,43.71-10.62,1.3,0,3.32-.6,4.45.21,1.38.98,1.7,1.94,1.52,3.54-.2,1.82,1.68,1.9,1.56.03-.29-2.04,1.88-2.06,1.65-.22-.37.8.04,1.65.71,1.74.88.12,1.76.1,2.43-.09.95-.27,1.74.12,2.69.11-.93,1.01.13,2.52,1.09,3.03s1.86-.05,2.3-.76c.48-.77.71-1.58.16-2.32,1.8-.02,3.21.71,4.82,1.34.63,1.51-1.97,1.32-1.76,3.3,2.2-1.04,5.53-.15,8.14.22,1.63.23.56,3.63,2.29,6.49,2.33-.02,5.32-.14,7.31,1.26,3.27.96,5.14-5.51,9.02-5.9-1.36,10.85-9.3,17.73-9.41,27.22,7.46-9.76,10.67-20.22,16.17-29.43,2.02-5,6.86,5.46,14.42,1.67-1.66,4.22-6.22,6.75-6.31,12.53,3.67-.89,14.09-8.97,6.31-12.53,1.75-.88,2.48-2.36,4.77-.47,1.72,1.43,2.73,3.43,2.12,5.32-3.67,8.37-8.88,16.78-19.74,18.67-3.49-12.24,3.16-19.08-1.88-17.45-1.32.43-.43,1.67-.61,3.01-2.54,18.24,5.39,17.89-2.13,27.21-3.36,4.17-7.5,7.12-6.83,11.82,7.26-7.46,11.18-13.82,14.14-21.28,5.08-2.14,20.62-16.26,19.14-21.26,4.16.32,9.05,1.72,12.76,3.38.12,1.72-2.51,2.03-1.29,4.96,2.08-1.43,3.68-2.96,4.51-4.77.44-.96.41-3.42,1.74-4.38,3.49-.19,6.65,0,9,1.13.02,1,1.08,2.02,1.56,2.58.84.99,1.38.45,1.58-.18.34-1.06.3-1.77,0-2.27,1.16-.33,2.22-1.38,3.85-.76.65.25,1.42.67,1.22,1.92-7.15,7.8-10.41,17.66-11.39,29.78,13.51-1.55,27.09,1.72,40.26-1.9,5.61-1.54,11.02-4.19,17.27-1.56,1.32.56,3.06,1.66,3.97,1.48,6.29-1.28-16.75-8.18-17.5-17.18,8.27-.26,15.52-5.91,24.09-5.38,17.57,1.09,35.41.46,49.99-9.45,2.25-1.53,31.13-18.36,33.74-18.82l18.2-3.18c4.22-9.83,12.68-15.35,22.53-15.68.98-5.25,13.51-3.12,13.58-3.01.54.79.61,3.05,2.57,3.46,1.16-.82,2.27-5.57,5.08-3.84.95.58-1.87,3.51-.24,4.34,1.24.63,2.98,1.38,4.01.98,2.12-.84.85-2.88,1.67-5.66,1.8,1.42,1.41,3.67,3.84,4.69,1.56-2.48-.29-4.21-.97-5.48-1.27-2.37-5.02-.07-6.5-.46-9.03-2.39-17.21-1.14-26.8,1.83-2.73-1.27-1.7-6.73-1.28-9.04,1.02.19,1.38-.59,1.85-1.32.68-1.05-.55-1.63-.65-2.29-1.09-6.87,4.24-18.73,12.98-18.98,7.6-.22,15.77,2.68,22.83,3.69,6.84.98,10.87,4.72,14.26,9.31,2.38,3.23,8.22,4.4,8.78,9.03.42,3.5,4.23,4.46,4.89,7.66.68,3.3-1.73,6.29-.98,9.06-1.27-.66-1.96.88-1.65,2.35.11.51-.07,1.65,1.09.95-.56,2.3,1.62,2.23,2.9-.22,1.7,2.97.86,5.59-.43,8.55-1.06,2.43-3.94,2.68-6.06,4.69-1.5,1.42-1.68,6.22-5.32,6.04-4.21-.21-5.8-4.6-8.06-7.82-2.48,1.03-8.4,2.5-10.22,4.91-7.55,10.03-21.77,5.65-29.53,9.97-20.69,11.53-36.63,29.23-55.32,43.07-14.92,11.05-29.95,17.76-46.86,24.47-13.65,5.42-24.45,5.1-39.63,3.34-16.53-1.92-34.13,3.91-50.22,3.74-3.95,5.93-5.83,11.85-11.04,15.72-6.46,4.8-15.09-1.66-21.53-.27-7.19,1.55-17.04,3.78-23.74,8.28-19.95,13.37-31.74,37.27-34.82,60.99-4.59,35.29-6.35,69.71-14.53,105.01l-18.19,78.49-12.51,63.69c-.65,3.29-.54,6.31-2.58,8.3-.63.71-1.14.87-1.36-.19-4.2-2.03-5.36-6.03-7.46-10.04l-14.47-27.5c-1.13,3.78-2.93,5.76-5.55,7.19,2.7,1.69,7.83,4.6,7.01,9.94-5.02.23-4.81-5.07-7.43-7.39-3.72-3.29-6.64-6.63-9.56-9.72-1.9-1.52,1.86-2.31,2.44-3.48,3.32-6.65-3.38-11.28-6.63-15.66-5.3-7.12-10.93-11.92-18.29-17.66-21.04-16.38-40.83-33.26-60.01-50.99l-18.32-16.93-37.89-37.91c8.69,16.97,17.02,30.97,29.25,43.48,19.55,19.99,38.39,38.88,59.02,57.86,14.28,13.14,29.1,23.81,41.91,36.99,13.51,13.9,15.33,31.52,27.76,32.95-2.28,2.31-4.39-.63-4.94,2.01,4.98,1.15,9.55.68,13.7,3.98-12.3.27-23.95,2.11-35.62,7l-47.77,20.02c-1.45-2.36-14.17,5.51-13.06,4.47.85-.8,6.89,10.35,9.69,6.27,2.7-3.94,6.57-1.77,9.47-5.03,1.93-2.17,6.3.14,9.14-1.52,4.53-2.65,10.59-3.49,12.73,1.63.37,1.86-1.31,1.44-3.33,2.37-2.65,3.98,26.57-7.38,28.51-7.84l19.68-4.66c1.73-.41,2.56-1.01,3.21-.53,1.18.87,1.69,1.82,1.12,2.34-3.24,2.93-6.21-.52-8.14,2.28-.37.54-1.47,1.76.72,1.61,1.67-.11,2.69-1.1,3.38-1.68.94-.8,4.47,1.94,2.66,2.76l-23.47,10.67c-10.23,4.65-20.98,6.18-30.77,12.23,17.59-1.04,33.74-4.68,49.76-10.39l13.58-4.84c1.15-.41,3.62.11,4.62-.71s-.39-2.64-.9-4.2c8.8-4.66,18.55-7.24,26.2-13.33.95-.76,18-4.69,16.88,3.7-1.83-.4-7.45-.19-7.07,2.63.8,5.86,7.24,1.19,10.05,1.52,4,.47,9.71-1.52,14.14.26,1.71.69,47.79,22.47,37.55,24.39-10.03-2.31-28.41,19.89-33.39,28.22-2.18,3.64-2.47,8.88-5.51,12.08,2.94,3.13-2.19,3.58-1.13,5.36,3.68-.11,3.16,3.63,4.72,3.19l4.48-1.27c1.08,3.98,5.47,3.87,8.73,4.89,13.28,4.16,25.15,6.77,39.35,3.4,3.22-.76,3.75-5.34,1.09-8.03,2.2-.37,4.04-1.43,4.28-2.64.16-.8-1.69-2.69-1.02-4.35,3.9-.79,9.43-1.56,13.48.43,2.65,2.02,5.38,6.92,6.79,9.88-2.14,1.3-4.5,2.48-4.1,3.39l1.87,4.34c-4.3,1.57-2.2,2.83,1.63,2.35.03,2.81,4.24,9.67,7.32,6.81,4.94-4.59,8.28-8.65,15.05-7.22,15.77,3.33,7.02,28.37,1.73,40.38-7.61,17.25-13.29,34.87-24.15,49.78-8.47,11.63-16.46,21.92-21.65,35.81-30.04,80.28-67.45,91.06-96.36,161.71-.81,1.98-2.8,1.46-4.13,1.55-5.27-2.64-11.39-2.76-16.92-4.42l-18.12-5.44c5.73-8.04,9.98-13.76,13-21.33-8.66.65-12.85,18.77-19.18,19.98-2.2-.25-5.04-3.64-7.02-2.34-1.9-9.7,7.29-18.12,9.49-27.17,6.04,8.45,14.83-15.36,16.8-20.33,3.97-10.01,10.14-13.12,12.91-24.32,4.28-.58,5.19-5.85,5.89-9.34,2.45-.38,2.33-3.73,3.49-5.35,11.5-16.07,18.04-32.73,28.94-49.67,1.2-1.86.54-6.27,2.98-7.41,5.16-2.41,5.61-8.81,8.52-13.34,4.68-7.3,9.68-13.79,11.71-21.75.6-2.35,10.47-15.24,12.81-12.35.35.44.93,1.93.5,2.99l-8.72,21.44c.1,1.49,1.58,1.42,2.04.65.62-1.05,2.11-2.28,2.15-3.32.27-6.32,4.59-10,7.5-14.88,16.91-28.35,5.63-35.15,20.72-41.31,2.36-.96,5.41-5.56,7.52-4.24l6.22,3.89c1.91,1.19,4.69-4.76,5.58-6.72.99-2.18-2.77-5.39-2.88-8.34-.29-7.92,13.74-6.22,14.97-11.24.43-1.77,1.06-6.03-1.49-7.91-2.86-2.1-11.62-2.21-14.19.98-3.67,4.56-2.55,13.05-7.96,15.72-20.96,1.87-20.06-10.52-31.2-.85-17.45.68-22.62-6.51-39.05-5.34l38.46,13.32c4.51,1.56,10.21,3.59,12.11,8.46.62,1.61-3.57,2.8-4.5,3.06l-18.58.53c-2.76-.02-3.85,6.94-6.51,3.81l.67-3.77c.71-4.02-45.54-11.67-49.12-9.32-9.96,8.18-17.05,20.42-28.59,26.41-15.12-11.58-30.03-20.52-47.39-27.71l-52.93,96.17-16.86-12c-8.52,12.31-22.2,19.16-32.31,29.58-5.86,6.74-5.37,18.22-11.94,24.94-15.94,16.3-47.14,20.52-59.73,34.42-21.72,23.99-44.58,44.32-71.94,62.03-27.38,17.72-49.91,39.61-64.72,68.07,4.54-.54,10.1-.42,11.04,3.87,1.15,5.24-4.46,9.59-9.87,11.11-.47,6.23,15.06,26.63,7.65,28.11-1.56-6.47-3.23-12.01-6.73-16.71.78-2.02-.68-4.4-1.64-1.46-1.5.19-2.77-1.93-3.74-1.58-1.72.61-1.91,2.85-2.08,4.52-1.22,11.63-3.84,22.25-5.7,33.88-.64,4.01.75,8.38-1.47,11.87-2.24-.39-3.17,2.33-5.15,3.5-3.56-1.16-4.02.68-1.28,2.62,2.6.65,4.92-2.96,6.28-4.79,2.88.32,2.06,3.74,2.39,6.46,1.89,15.65,10.94,43.3-3.72,50.94-14.47,7.55-22.31-9.75-29.78-9.59-1.27-6.8-4.56-11.75-10.45-16.87-1.04-.91.69-4.22-.86-5.41-.9-.69-1.56-1.62-3.86-1.35-1.74.2-2.13-2-2.61-3.1-.71-1.62,1.88-3.33,1.9-5.18.13-18.01-15.56-6.92-4.57-22.09,2.1-2.9-3.19-7.36-3.26-10.22,8.91-8.17.79-48.17-7.51-55.08-2.81.24-6.98,2.18-8.35-.4-4.08-7.67,7.31-11.09-.06-17.97-10.18-9.5-2.92-6.06-5.66-20.13-2.1-10.79,4.67-24.68,16.68-25.03,13.4-.39,15.12,3.18,31.05-2.2,5.07-1.71,10.77.32,12.51,4.32.78,1.8-3.36,2.42-.68,3.26,1.32.41,1.87-.29,2.95-1.49.36-.41,1.2,1.66,1.73,1.39.57-.3,1.12-1.59.71-2.23s-.55-1.35-1.54-1.14c1.64-2.97,4.87-5.18,7.02-6.83,2.45-7.55,9.13-10.44,12.75-16.99,5.2-9.44,29.43-30.51,33.84-49.25,4.22-17.94,12.29-33.92,26.59-46.89,19.53-17.71,43.08-31.57,67.06-41.65-6.72,11.23-7.97,25.18-9.6,38.67,11.62-14.38,15.12-30.93,22.4-46.54,1.72-3.7,16.09-24.74,15.88-29.56-1.74-3.76-7.6-5.82-11.24-8.03-.39-.15-3.01-2.22-2.24-3.69,9.13-17.54,13.81-49.4,27.25-71.51,5.21-8.57.19-8.09,4.07-13.49.98-1.37,2.74-.83,4.35-.88,3.39-.09,6.44,1.23,10.69.87-3.59-4.23-7.74-.88-10.6-3.6-1.66-1.95.18-4.75.29-7.46.06-1.51,2.08-1.92,2.95-1.76.48.09.39.76,1.17.96.36,1.35,1.38,2.89,2.3,1.08-.05-2.42-.12-3.95-1.98-3.56-15.78-24.09-21.1-52.81-17.58-81.6-.24-.88-2.62-1.75-1.64-2.57.48-.4.94-1.24.86-1.77,3.42.57,6.02-1.98,9.24-4.11,8.2-5.45,17.91-6.89,24.78-12.53,10.95-2.93,21.44-7.45,32.64-9.42.32,4.94,9.86,21.67,12.9,25.51,2.3-4.01,4.14-.75,1.21,1.49,17.24,8.98-7.35-20.07-8.09-28.56l60.46-10.41c12.23-2.1-.76.19,15.47,2.87,3.8,3.38,9.4,5.01,14.19,6.28,3.22,2.31,6.2,6,12.11,7.38-14.73-22.02-37.81-40.5-66.25-45-10.73-1.7-20.77-1.72-29.25-7.25.6-1.08,1.35-2.44-.26-3.73-1.96-.41-1.85-1.94-.13-1.56,3.92,1.05,8.35,3.87,12.96,4.61-4.16-4.06-8.57-7.36-12.8-10.91-2.85-3.46,9.39-3.46,6.79-7.79-.95-1.59-1.92-3.57-3.87-3.35l-1.58-2.82c.5-1.68,1.97-2.86,3.18-4.07,4.36,3.77,9.58,6.3,13.72,9.37-7.63-9.18-14.53-14.69-22.25-21.35-17.3-14.93-30.56-32.83-39.51-52.63-5.92-13.1-12.14-18.54-12.89-20.79-2.27-6.78-11.72-27.81-16.61-29.68-.84-5.42-4.33-10.32-6.44-16.32-12.62,4.8-28.25,4.75-39.28,11.96-9.95,6.5-17.15,5.02-27.41,4.93-10.83,2.32-21.83,13.67-34.99,14.9-5.72,5.08-8.17,12.78-13.03,17.98-17.4,18.63-34.75,35.71-55.43,51-28.93,21.39-55.08,45.73-73.02,77.76-.88,1.57-7.91,30.12-25.94,41.96-6.74,4.43-8.93,14.52-16.23,18.79-12.45-5.54,1.7-21.87,8.83-28.75-5.91-4.54-11.87-1.44-17.96-.53-28.87,4.33-47.5,30.21-51.41,19.85-.52-1.37.08-3.4,1.29-4.46,3.68-.59,15.94-13.25,19.29-16.2,1.76-1.56,17.07-9.91,14.17-12.09,3.11.48,3.1,4.82,6.39,2.41,2.54-1.86,2.16-3.97,3.58-6.2,5.4-8.49,15.66-12.42,23.33-18.77l16.24-13.44c-3.82-2.52-7.19.72-8.85,3.72-1.51-2.06-1.92-6.22,2.15-3.35.85-2.29,2.97-4.38,6.38-5.03-2.12-7.3-9.43,2.37-19.97,1.45-1.27-.11-2.45,3.59-3.76,2.8s-1.9-2.64-2.48-3.69c5.37-1.09,10.9-3.31,16.44-5.14,8.94-2.94,7.06-12.16,11.73-10.02.04,1.85,2.3,2.65,3.67,2.59,2.9-.12,4.76-6.97,4.36-7.32-.83-.72-1.73-1.01-2.54-1.47.13-6,7.08-9.49,10.82-15.11l30.88-46.42c18.62-27.99,41.24-53.25,66.95-75.27,7.46-6.39,16.78-8.34,22.69-17.27,4.36-6.59,12.34-11.17,17.42-17.93,2.65-3.52,4.12-10.45,8.73-8.83-1.13,19.26,1.83,22.43,15.5,34.88l-8.95-16.61c-2.99-5.55-1.97-12.39-1.02-18.11.51-3.11,2.89-6.48,6.24-5.99,1.16.32,1.72-.26,1.98-1.33,15.09.41,29.55-3.96,43.19-10.43-6.25-1.36-24.05,7.78-26.77,2.88,18.51-15.02,31.65-11.09,53.13-26.85,4.41,4.56,1.74,11.06,7.85,14.35-4.24-14.85-11.12-28.72-14.3-43.87,2.85-4.12,14.49-6.53,20.41-8.39,6.99-2.2,11.46-10.06,18.62-11.57,20.87-4.41,12.22-16.61,24.78-14.14,1.02.22,1.78-.52,1.55-1.53,2.82.08,5.5-1.99,7.89-2.79,1.93-.64,4.27-1.03,4.93-3.59.84-.55,2.99.19,3.71-1.22s.53-2.54-1.18-3.01c.18-2,.94-4.03,2.07-5.48,1.22-1.57,3.48-1.34,4.46.65,2.93.25,1.49,3.13,2.32,5.25,5.17,13.32,17.16,22.19,29.99,28.12-11.31-9.59-27.15-18.89-26.53-36.13,1.37-.2,2.55-1.5,3.01-2.54,1.53-3.54-3.43-4.71-2.26-9.04.23-.85,1.95-.51,2.77-1.73-4.34-2.62-6.19-6.4-3.66-9.66.87-1.01,0-1.91-1.14-1.57-7.96-20.09-3.77,2.7-8.02-21.28-.28-1.61,2.41-4.73,1.12-6.92-4.54-5.11-6.97-10.77-8.01-19.03-4.76,4.78-.95,9.42-.85,13.56-7.1-4.25-8.54-14.33-9.47-22.66-.1-.88-2.23-1.06-3.09-1.84-.52-.47.03-1.53.14-3.42-.37-3.07-7.98-1.02-10.14-4.96-.33-.6,1.53-1.12,1.12-2.22,2.05.38,1.92-2.18-.04-1.78.32-2.23-2.78-2.07-2.97-4.43,1.72.13,6.72,1.87,6.55-.16-.6-7.19,2.46-12.81,3.36-19.46.72-5.32,5.89-8.65,7.92-14.21,5.6-15.31,8.63-4.94,9.08-16.19,6.5-3.3,13-7.25,18.58-11.57,4.22-3.26,8.37-1.08,11.42-2.26,6.18-2.39,10.95-5.49,17.45-2.81,5.78,2.39,10.16-2.81,19.09,3.55,7.41,5.28,22.11,3.11,30.2,30.95Z" fill="#1e3a8a"/><path d="M420.39,1101.27c-1.36,1.83-3.68,5.44-6.28,4.79-2.74-1.94-2.29-3.79,1.28-2.62,1.98-1.17,2.91-3.89,5.15-3.5.76.48.26.79-.15,1.33Z" fill="#e4e3e0"/><path d="M407.4,968.15c.99-.21,1.15.52,1.54,1.14.41.65-.14,1.93-.71,2.23-.52.28-1.36-1.79-1.73-1.39-1.08,1.2-1.63,1.91-2.95,1.49-2.68-.84,1.46-1.46.68-3.26.95-.61,2.16-.79,3.17-.22Z" fill="#c9ccc9"/><path d="M644.84,182.63c-2.39.8-5.07,2.87-7.89,2.79.78-3.63,4.79-3.51,7.89-2.79Z" fill="#e4e3e0"/><path d="M418.02,987.24c3.21,2.36-4.58,12.19-6.83,11.82-2.59-.43-3.92-1.85-4.12-3.77-.34-3.24,2.78-2.78,4.24-4.24l1.57-10.44c.56,3.74,2.6,4.75,5.14,6.62Z" fill="#73797e"/><path d="M396.33,972.15c-3.08-2.18-.04-3.87.96-6.73,1.01,1.59,2.09,4.34-.96,6.73Z" fill="#8d9298"/><path d="M378.75,1009.95c-1.45-2.17-1.35-4.85-.17-7.89,1.45,2.17,1.35,4.85.17,7.89Z" fill="#4a4c56"/><path d="M554.65,806.54c4.06-6.77,8.78-12.91,10.56-21.89,1.59-8.03,6.29-15.66,6.88-23.57,3.64,2.21,9.5,4.26,11.24,8.03.21,4.82-14.15,25.86-15.88,29.56-7.28,15.61-10.78,32.16-22.4,46.54,1.63-13.48,2.87-27.44,9.6-38.67Z" fill="#e4e3e0"/><path d="M846.23,592.52c-.47,2.21,2.9,2.14,2.98,4.15-2.82-.33-9.26,4.34-10.05-1.52-.38-2.82,5.23-3.03,7.07-2.63Z" fill="#e4e3e0"/><path d="M605.51,671.5c-.88-.83-.81-1.94.09-2.73,2.86,2.72,7.01-.64,10.6,3.6-4.25.36-7.3-.96-10.69-.87Z" fill="#e4e3e0"/><path d="M769.94,535.25c2.93,3.09,5.85,6.43,9.56,9.72,2.62,2.32,2.41,7.62,7.43,7.39.82-5.34-4.31-8.25-7.01-9.94,2.62-1.43,4.43-3.41,5.55-7.19l14.47,27.5c2.11,4,3.26,8.01,7.46,10.04,2.29.5-20.89,8.16-16.8,10.17-3.55,1.21-69.18,14.28-76.07,13.97l47.77-20.02c11.67-4.89,23.32-6.72,35.62-7-4.15-3.3-8.72-2.83-13.7-3.98.55-2.64,2.67.31,4.94-2.01-12.43-1.44-14.26-19.05-27.76-32.95,2.86-.65,6.36,2,8.53,4.3Z" fill="#c9ccc9"/><path d="M722.22,527.89c.49.87-.91,2.08-.68,2.69s2.29.57,2.98.51,1.15-.97.86-1.9c6.37-1.01,11.33,4.33,15.21,7.77-16.23-2.69-3.24-4.98-15.47-2.87l-60.46,10.41c.73,8.49,25.32,37.54,8.09,28.56,2.93-2.24,1.1-5.5-1.21-1.49-3.04-3.84-12.58-20.57-12.9-25.51,1.42-.25,2.52-2.55,1.82-3.71,6.28-1.3,12.7-2.11,19.26-2.69-8.21.72,29.13-4.26,16.2-4.52,2.54-2.35,7.43-2.71,11.05-2.74,1.91,3.03,10.53,3.34,10.91-1.03,3.36.67,3.75-2.33.17-2.1-1.56.13-1.83-.97-2.3-1.21-6.53-3.4-14.04-4.31-21.38-5.11-.07-.95.4-1.91,1.11-2.55.76.07,26.8,5.21,26.76,7.49Z" fill="#8d9298"/><path d="M852.23,814.23c-2.44,1.14-1.78,5.55-2.98,7.41-10.89,16.94-17.44,33.6-28.94,49.67-1.16,1.62-1.04,4.97-3.49,5.35-11.93,2.99,32.27-60.94,32.12-59.55l.4-3.9c.16-1.55,1.18.49,2.88,1.02Z" fill="#4a4c56"/><path d="M708.99,666.42c-7.79.57-15.18,1.74-22.53.12l11.73-1.68c4.45-.64,9.5-.81,14.54-1.22l35.88-2.96c13.31-1.1,25.58-2.83,39.06-4.3-4.86,4.9-11.26,2.05-16.46,3.72-7.13,2.28-13.76,2.76-21,3.29l-41.21,3.04Z" fill="#c9ccc9"/><path d="M754.76,637.95c-1.99,3.41-6.88,3.66-10.93,4.48l-32.49,6.6c-6.22,1.26-11.81,4.52-18.69,2.38,6.27-3.27,13.06-3.27,19.61-4.76l33.24-7.58c3.23-.74,6.5-1.22,9.25-1.13Z" fill="#535a66"/><path d="M626.34,589.11c-.69.02-.28-3.71.54-2.94.76.71,3.23-.9,3.83-.49,6.73,4.62,13.56.08,19.01,1.29,22.28,4.95,28.05-16.95,27.61-6.16-.05,1.31-2.47.19-2.82.93-5.43,11.73-31.26,6.8-48.17,7.37Z" fill="#4a4c56"/><path d="M727.02,714.74c2.16.73.96.93-.1,2.27s-1.49-.43-3.01-.96l-45.35-15.74c8.39-1.52,37.25,10.65,48.46,14.42Z" fill="#4a4c56"/><path d="M764.15,635.1v-1.53c10.77-4.02,22.41-6.66,34.39-7.16-11.9,4.72-23.26,6.28-34.39,8.69Z" fill="#9aa1a2"/><path d="M761.05,638.16c8.75.28,16.62,7.43,25.42,11.69,2.14,4.87-31.13-12.61-25.42-11.69Z" fill="#4a4c56"/><path d="M635.4,680.98c4.68.8,9.41,3.22,12.65,7.32,1.48,3.84-16.92-8.65-12.65-7.32Z" fill="#323440"/><path d="M764.15,633.57v1.53l-3.1,3.06-6.29-.2c-.34-.65-.31-1.36.04-2.11s1.65-.95,2.28-.79c.56.14,1.12,1.56,1.86,1.37,1.16-2.29,3.89-2.36,5.21-2.85Z" fill="#535a66"/><path d="M635.4,680.98c-3.64-.62-7.24-1.92-9.4-6.07,4.56.35,7.92,2.8,9.4,6.07Z" fill="#323440"/><path d="M787.12,643.35c1.23-1.21,3.18-.69,3.27.09.08.67-1.47,1.76-2.2,2.28-1.3.93-3.17-.3-1.06-2.38Z" fill="#4a4c56"/><path d="M898.64,157.77c-5.5,9.21-8.71,19.67-16.17,29.43.11-9.5,8.05-16.38,9.41-27.22-3.88.4-5.75,6.86-9.02,5.9-1.98-1.4-4.98-1.28-7.31-1.26-1.73-2.86-.66-6.26-2.29-6.49-2.61-.37-5.94-1.26-8.14-.22-.21-1.98,2.39-1.79,1.76-3.3,2.23.86,3.67-1.91,5.91-2.67,6.7-2.29,13.09,3.12,18.52,5.19,2.28.87,5.7-1.94,7.33.64Z" fill="#e4e3e0"/><path d="M791.95,157.03c-.08,2.14.38,6.14-2.76,6.61s-5.63-1.36-8.37-1.72c1.75,10.44-3.89,6.33-8.39,12.99l-1.56-18.44c16.68-4.49,14.98,1.46,21.08.57Z" fill="#e4e3e0"/><path d="M922.03,165.02c1.48,5-14.06,19.11-19.14,21.26-2.96,7.46-6.88,13.82-14.14,21.28-.67-4.7,3.47-7.65,6.83-11.82,7.51-9.32-.42-8.98,2.13-27.21.19-1.34-.7-2.59.61-3.01,5.04-1.63-1.61,5.21,1.88,17.45,10.87-1.89,16.08-10.3,19.74-18.67.77.16,1.29.67,2.08.73Z" fill="#e4e3e0"/><path d="M500.26,292.31c-.94,5.72-1.96,12.57,1.02,18.11l8.95,16.61c-13.67-12.46-16.63-15.62-15.5-34.88,1.6.56,3.86-.84,5.53.16Z" fill="#e4e3e0"/><path d="M664.6,167.22c-.63,17.24,15.22,26.54,26.53,36.13-12.84-5.93-24.82-14.79-29.99-28.12-.82-2.12.61-5-2.32-5.25-1.14-1.25.42-1.63,2.12-.99.44.16.81-.47.83-1.92.57-.02,1.15-.02,1.71.12.38.09.74.14,1.12.04Z" fill="#e4e3e0"/><path d="M655.3,121.4c-1.27.87-1.66-.15-1.22-2.11-1.81-3.01-3.45-8.44-6.52-10.28-.1-4.14-3.91-8.78.85-13.56,1.04,8.26,3.47,13.92,8.01,19.03,1.29,2.19-1.41,5.31-1.12,6.92Z" fill="#e4e3e0"/><path d="M765,152.99c3.28,29.64-4.9,26.69-3.44-.98,1.18.24,2.41.21,3.44.98Z" fill="#e4e3e0"/><path d="M331.75,479.18c1.56-2.1,3.23-4.54,5.49-6.2.8.47,1.71.75,2.54,1.47.41.35-1.46,7.19-4.36,7.32-1.37.06-3.63-.73-3.67-2.59Z" fill="#e4e3e0"/><path d="M649.77,179.04c1.09-1.02-1.09-2.02.3-2.76.64-.34,1.24-1.46,2.24-1.46,1.71.47,1.87,1.66,1.18,3.01-.72,1.41-2.87.68-3.71,1.22Z" fill="#e4e3e0"/><path d="M938.02,168.6c-.83,1.81-2.43,3.34-4.51,4.77-1.22-2.94,1.42-3.25,1.29-4.96.97-.51,2.13.28,3.22.2Z" fill="#e4e3e0"/><path d="M862.05,153.27c.55.74.32,1.55-.16,2.32-.44.71-1.32,1.28-2.3.76s-2.02-2.02-1.09-3.03l3.55-.04Z" fill="#e4e3e0"/><path d="M506.51,286.32c-.63-1.49.94-1.36,1.98-1.33-.25,1.08-.82,1.65-1.98,1.33Z" fill="#e4e3e0"/><path d="M610.01,660.52c-1.93-1.09.91-1.28.31-2.48,1.87-.39,1.93,1.15,1.98,3.56-.92,1.81-1.93.27-2.3-1.08Z" fill="#e4e3e0"/><path d="M756.29,79.27c.23.88.32,1.78-.68,2.15s-1.88,0-2.32-.77c-.41-.7.24-1.55.18-2.4,1.01-.53,2.08.38,2.83,1.02Z" fill="#e4e3e0"/><path d="M626.12,73.89c-.2-.54.05-1.21-.04-1.78,1.96-.39,2.09,2.16.04,1.78Z" fill="#e4e3e0"/><path d="M435.18,1052.71c-1.1.64-2.4-.22-1.64-1.46.96-2.94,2.43-.56,1.64,1.46Z" fill="#e4e3e0"/><path d="M635.4,186.95c-.23-1.01.53-1.75,1.55-1.53.23,1.01-.53,1.75-1.55,1.53Z" fill="#e4e3e0"/><path d="M1133.08,112.56c.22-1.25-.39-3.49,1.2-3.61.1.66,1.33,1.24.65,2.29-.47.73-.84,1.5-1.85,1.32Z" fill="#e4e3e0"/><path d="M1196.48,132.02c-1.16.7-.98-.44-1.09-.95-.31-1.48.37-3.02,1.65-2.35.28,1.05.03,2.41-.56,3.3Z" fill="#e4e3e0"/><path d="M855.81,153.2c-.67.19-1.55.21-2.43.09-.67-.09-1.08-.95-.71-1.74.61-.61,1.28-.32,2.2.19.59.32,1.63.48.94,1.46Z" fill="#e4e3e0"/><path d="M849.46,151.74l1.56.03c.12,1.87-1.77,1.78-1.56-.03Z" fill="#e4e3e0"/><path d="M754.68,127.23c-2.41-.02-1.28-3.07-1.29-4.65,2.32.01,1.52,3.16,1.29,4.65Z" fill="#e4e3e0"/><path d="M244.47,538.92c-.29-1.47.82-1.89,2.07-1.88-.56,1.27-.79,1.25-2.07,1.88Z" fill="#e4e3e0"/><path d="M664.46,144.25c-1.28.69-1.72-.49-1.14-1.57,1.14-.34,2.01.57,1.14,1.57Z" fill="#e4e3e0"/><path d="M951.89,165.48c.3.5.34,1.21,0,2.27-.2.63-.73,1.17-1.58.18-.48-.56-1.53-1.59-1.56-2.58.97.23,2.16.42,3.14.14Z" fill="#e4e3e0"/><path d="M731.33,289.66c-4.17,1.9-7.23,6.9-13.28,8.36,6.36,5.78,11.11-3.81,22.51-.82.74,2-.33,3.77-1.77,5.48,7.03,1.66-6.15,9.76-6.58,14.72-1.7.11-3.51-.33-3.61.51-.7,6.25-3.11,2.53-4.02,5.99-.45,1.69.39,2.84,1.54,5.47-.16-3.27,17.96-5.58,19.48-6.36,5.97-3.06,11.04-4.2,17.07-3.14-14.44,10.15-34.01,20.79-54.33,20.37-16.41-.34-32.64,3.26-49.89.72,3.49-6.59,14.77,2.25,26.87-4.52-15.52-7.37-13.44-4.45-19.43-6.03-.93-.24-.23-2.96-1.28-3.41l-31.17,4.88c10.56-5.03,21.8-6.26,33.08-10.05,2.85-5.11-12.71.96-16.93-.8-16.35-6.84,20.08-14.09,18.38-17.71,2.82.37,7.09-2.73,8.23,3.2.15.8,1.15,2.48,1.76,2.34,7.83-1.89,1.24-7.29,15.96-9.4-1.2-2.11-1.18-3.1-.74-4.14.74-1.77,2.95-1.08,4.54-1.7,5.21-2.04-4.12-4.67,16.3-2,1.31-1.19,3.56-2.74,4.48-3.1.61-.24-1.74-1.62-.13-2.73,2.28-1.57,6.42-1.8,7.79-3.34.9-1.01,2.32-2.61,4.28-3.96.91-.63,2.48-.83,2.93,2.06-2.1,2.85-6.34,4.06-9.2,7.1l7.17,2.02Z" fill="#c9ccc9"/><path d="M392.94,410.69c-.79-4.26-24.88,39.48-22.92,27.24,5.06-11.36,12.08-20.94,19.7-30.24,3.34,1.78.97-.67.84-1.42-.26-1.6,1.49-4.51,3.08.21,3.19.29.48-3.64-.12-4.91,12.15-23.38,28.78-32.5,46.71-56.8,13.68-18.55,34.69-3.19,33.94-15.85,4.99.46,10.76-8.05,11.65-1.54.1.75-.46.95-1.24,2.8-6.54,1.97-10.68,7.9-16.56,10.88-8.63,4.36-12.44,12.16-17.39,20.06-7.22,11.54-17.83,21.79-27.66,30.53,7.7-6.85-26.13,28.86-20.57,20.12l-12.84,20.2c.35-6.84,1.95-12.9,3.39-21.31Z" fill="#c9ccc9"/><path d="M732.84,235.93c-13.99,9.58-38.27,9.13-52.99,11.66-12.74,2.19-25.3,3.29-38.14,7.37-1.3.41-2.91-.65-3.33-1.2-.66-.87.52-3.05,2.2-4.01,23.58-13.56,49.59-20.21,76.98-22.8,5.22,3.33,9.95,4.71,15.27,8.98Z" fill="#e4e3e0"/><path d="M648.91,357.25c10.44-.74,18.64,4.25,28.33,6.32,43.99,9.43,63.1-.62,98.94-23.1,3.16,1.71,3.92.78,2.55-2.4,8.15-5.2,8.94-11.39,11.02-10.4,1,.47,1.3,1.87.76,2.32l-2.56,2.12c-.73.6-.12,1.96.03,2.58.33,1.33-2.5,1.8-2.74,2.82-2.98,12.39-30.48,29.33-42.48,35.06-33.27,3.65-64.5-3.04-93.86-15.33Z" fill="#c9ccc9"/><path d="M748.46,392.74c-1.37,1.94-3.17,4.09-1.63,6.35-3.69.86-9.43-.48-9.46,4.81-16.67-5.87-39.79-15.29-55.46-22.52,18.88-2.93,33.53,9.2,51.35,9.1,2.59-.01,5.61,3.04,9.15.84,1.69.14,4.5,1.35,6.05,1.41Z" fill="#4a4c56"/><path d="M1027.95,200.82c2.48-4-13.51,3.86-14.16,4.43,2.72-2.46,1.64-6.84,2.07-10,12.53-7.38,20.09-6.63,34.26-13.5l58.75-28.48c-12.86,10.49-28.47,14.94-42.59,23.73l-23.11,14.39c-5.37,3.34-10.29,6.61-15.23,9.43Z" fill="#535a66"/><path d="M743.92,449.28c-22.96,10.17-75.09-15.25-89.9-38.02,24.57,18.57,49.81,33.44,81.04,38.05,1.98.29,4.34-2.37,8.86-.04Z" fill="#c9ccc9"/><path d="M681.92,381.38c15.67,7.22,38.79,16.64,55.46,22.52.86,3.12,6.21.84,5.71,5.78-29.72-10.14-58.04-21.51-86.16-34.49-4.04-1.86-7.26-5.49-12.32-5.99,0-2.22,1.67-1.65,2.42-1.83-3.37.82,36.73,14.87,34.88,14.02Z" fill="#c9ccc9"/><path d="M639.89,384.41c25.45,15.56,36.63,26.27,65.64,39.41-25.08-5.42-46.36-21.8-65.64-39.41Z" fill="#c9ccc9"/><path d="M746.83,399.09c-1.54-2.26.26-4.41,1.63-6.35,4.65.18,7.64-.14,11.78-2.98,3.56-2.44,33.45-5.07,23.66.64l-37.07,8.69Z" fill="#8d9298"/><path d="M688.22,213.86c-16.77-1.81-6.04,1.79-20.5-.65-7.81-1.32-15.6.73-23.35-3.16,15.43-5.12,30.02-1.28,43.85,3.81Z" fill="#c9ccc9"/><path d="M814.61,520.02c-1.76-17.03-7.84-32.46-16.42-48.94,11.45,12.98,18.38,30.24,16.42,48.94Z" fill="#adb1b4"/><path d="M713.79,154.32c-.25,2.33-6.3,3.51-8.08,6.7,1.49-8.09,1.97-15.77-.49-25.2,4.54-1.86,8.76,16.73,8.57,18.5Z" fill="#4a4c56"/><path d="M313.6,528.05c-.8,3.14-8.45,5.93-10.34,4.52-2.47-1.83,4.8-12.28,9.55-10.75,3.26,1.05,1.17,4.71.79,6.23Z" fill="#4a4c56"/><path d="M810.12,465.07c-4.02-7.42-6.37-16.11-11.85-24.74-3.24-2.98-.12-6.4,1.75-1.95,3.83,8.53,10.94,15.94,10.1,26.69Z" fill="#4a4c56"/><path d="M1027.95,200.82l-11.09,6.35c-3.42,1.96-7.51,2.25-11.5,2.1,2.07-4.6,6.33-2.16,8.43-4.02.64-.57,16.64-8.43,14.16-4.43Z" fill="#73797e"/><path d="M624.18,199.91c15.86-15-18.36,27.17-11.67,19.39.01-7.65,6.27-14.28,11.67-19.39Z" fill="#9aa1a2"/><path d="M913.05,159.44c7.78,3.56-2.64,11.64-6.31,12.53.08-5.78,4.65-8.31,6.31-12.53Z" fill="#c9ccc9"/><path d="M1170.7,115.42c-2.43-4.56-3.94-9.15-2.26-13.93,5.2,3.73,6.45,8.58,2.26,13.93Z" fill="#73797e"/><path d="M1188.33,131.99l2.29-14.05c.28-1.72-3.73-4.68.15-6.22,2.8,6.79,2.5,14.26-2.44,20.27Z" fill="#8d9298"/><path d="M692.14,144.1c-.76-.47,5.51,18.24-.19,16.23.13-6.26-4.53-19.15.19-16.23Z" fill="#73797e"/><path d="M781.99,170.19c2.88-.48.86,11.11-.82,10.64-4.21-1.21,1.32-10.72.82-10.64Z" fill="#73797e"/><path d="M727.04,121.99c-1.05,1.34-1.68,2.13-2.44,2.24-.65.1-1.39-.59-1.8-1.06-1.36-1.55.41-1.92,1.55-2.78.76-.58,2.03-.9,2.55-.69s.67.74.14,2.28Z" fill="#4a4c56"/><path d="M1184.91,136.83c.97-1.04,2.34-.38,2.76.4,1.02,1.94-2.71,3.55-2.33,3.7-1.29-.52-1.19-3.28-.43-4.1Z" fill="#4a4c56"/><path d="M618.33,292.49c.43,1.08-1.08,5.06-2.52,4.05-2.01-1.41,1.18-3.91,2.52-4.05Z" fill="#73797e"/><path d="M777.32,526.73c1.04-.59,1.4,3.65.04,4.3-.45.21-1.18-1.32-1.64-1.51-1.16-.48-.26-1.72,1.6-2.78Z" fill="#666c76"/><ellipse cx="511.51" cy="298.81" rx="1.53" ry="1.51" fill="#666c76"/><path d="M507.33,308.36c-.09-1.48,2.08-.49,2.41.11.28.52.09,1.75-.58,2.21-.56.39-1.74-.86-1.83-2.32Z" fill="#73797e"/><ellipse cx="1195.2" cy="139.33" rx="1.53" ry="1.51" fill="#c9ccc9"/><path d="M762.67,319.85c-6.03-1.06-11.1.09-17.07,3.14-1.53.78-19.64,3.1-19.48,6.36-1.15-2.63-1.99-3.78-1.54-5.47.92-3.45,3.33.27,4.02-5.99.09-.83,1.91-.4,3.61-.51.43-4.97,13.61-13.07,6.58-14.72,1.45-1.71,2.51-3.48,1.77-5.48,12.3-9.69,14.49-4.11,13.94-13.5,1.63-.36,2.3,1.05,2.72.75.96-.67,1.99-1.39,2.12-2.11.26-1.52-1.2-1.86-3.13-2.84,6.64-1.76,3.97-13.12,6.37-10.72-.84-.85-1.32-1.37-1.72-1.73-.77-.68-1.49.03-1.56.51-.11.74,2.03,2.69,1.26,3.4l-6.17,5.7c-6.59,6.09-14.81,9.23-23.06,13l-7.17-2.02c2.86-3.04,7.1-4.26,9.2-7.1-.45-2.89-2.02-2.69-2.93-2.06-1.96,1.35-3.38,2.95-4.28,3.96-1.37,1.54-5.51,1.77-7.79,3.34-1.61,1.11.74,2.49.13,2.73-.91.36-3.17,1.91-4.48,3.1-20.42-2.67-11.09-.04-16.3,2-1.58.62-3.8-.07-4.54,1.7-.43,1.04-.46,2.03.74,4.14-14.72,2.11-8.13,7.51-15.96,9.4-.61.15-1.61-1.54-1.76-2.34-1.14-5.93-5.41-2.84-8.23-3.2-13.5-1.75-38.25,7.25-50.68,13.82-2.24,1.18-3.29,5.23-6.99,2.06l19.67-11.94c5.75-3.49-2.71-14.08,26.51-24.47,3.73-1.32,7.66-1.29,10.38-5.09-12.88-1.5-23.65,1.74-34.5,6.65-4.08,1.85-9.65,7.69-14.03,8.16,15-13.31,28.62-20.27,51.23-23.69,6.14-.93,10.85-4.23,16.19-5.65,17.06-4.53,33.05-10.91,47.19-22.62,1.81-1.5,4.76-2.59,6.38-.28-11.86,11.83-22.77,22.68-36.69,31.77-.13,10.72,38.93-21.02,42.42-24.2.77-.7.67-1.89,1.22-2.29.84-.6,3.14.65,2.74,2.74-.78,4.1-5.17,5.95-7.27,10.61,10.04,4.65,9.13-9.41,17.9-4.5,10.01,5.61,25.26,18.29,34.18,13.53,4.71-2.52,4.21-5.77,4.9-10.18.94-6,4.79-7.4,7.69-10.77-1.55,1.8,5.27-12.63,8.91-14.7.92-.52-1.21-15.2-3.98-12.66.68-7.9,5.61-16.09,7.16-24.56.78-4.25-2.92-8.05-1.27-12.86,12.3,15.68-1.77,31.42,4.5,34.15,3.79-9.33,8.14-17.68,8.25-27.87.05-4.95,5.39-9,9.92-7.07.83.35-1.58,1.45-1.23,1.75.62.52,1.64,2.09,2.34,2.23.74.15.67-3.56,2.6-4.11,2.41,1.57,2.16,8.89-1.29,10.46-1.36.62-2.69-1.07-2.98-1.43-.34-.43-1.9-.04-1.65.54,4.83,11.37-7.23,32.61-10.78,42.88-1.76,5.1-4.17,9.43-6.97,14.46l-6.51,11.69c-13.25,23.79-28.95,44.65-50.75,59.98Z" fill="#c9ccc9"/><path d="M740.57,297.2c-11.4-2.99-16.16,6.6-22.51.82,6.05-1.46,9.11-6.46,13.28-8.36,8.25-3.76,16.47-6.9,23.06-13l6.17-5.7c.77-.72-1.37-2.66-1.26-3.4.07-.48.79-1.19,1.56-.51.4.35.88.88,1.72,1.73-2.4-2.41.27,8.96-6.37,10.72,1.92.98,3.39,1.33,3.13,2.84-.13.72-1.16,1.44-2.12,2.11-.42.3-1.1-1.11-2.72-.75.54,9.39-1.64,3.81-13.94,13.5Z" fill="#4a4c56"/><path d="M806.72,260.23c-1.1-.66-1.54-5.98.68-5.93,3.23.07,2.19,4.76-.68,5.93Z" fill="#4a4c56"/><path d="M694.35,522.95c7.34.8,14.85,1.71,21.38,5.11-25.46,7.89-48.31.46-77.46-6.11,12.31-3.89,22.94-.92,34.36-1.54,7.5-.41,14.83,1.8,21.72,2.55Z" fill="#323440"/><path d="M706.94,532.4c3.74-.03,7.43.84,10.91-1.03-.38,4.37-8.99,4.06-10.91,1.03Z" fill="#4a4c56"/><path d="M769.94,535.25c-2.17-2.29-5.67-4.95-8.53-4.3-12.81-13.18-27.63-23.85-41.91-36.99-20.64-18.98-39.47-37.87-59.02-57.86-12.23-12.51-20.56-26.5-29.25-43.48l37.89,37.91,18.32,16.93c19.19,17.73,38.97,34.61,60.01,50.99,7.37,5.74,13,10.54,18.29,17.66,3.26,4.38,9.96,9.01,6.63,15.66-.58,1.17-4.34,1.96-2.44,3.48Z" fill="#c9ccc9"/><path d="M768.17,527.22c-2.81.82-1.4-4.4-5.1-4.14-.1-1.97,2.55-1.44,3.56-.99,1.66.74,3.65,4.5,1.53,5.13Z" fill="#4a4c56"/><path d="M727.62,494.97c-.09-1.46,2.07-.54,2.41.12.27.51.33,1.57-.68,2.28-.48.34-1.64-.94-1.73-2.39Z" fill="#535062"/><path d="M719.86,488.85c-.08-1.48,2.06-.51,2.42.11.3.51.12,1.73-.65,2.26-.48.33-1.69-.9-1.77-2.37Z" fill="#4a4c56"/><path d="M725.37,529.19c.29.93-.18,1.85-.86,1.9s-2.75.1-2.98-.51,1.17-1.82.68-2.69c.37-.67,1.65-.23,2.28.09.45.23,1.12.24.87,1.22Z" fill="#e4e3e0"/><path d="M666.14,1106.24l14.23,20.01c-1.8,1.2-1.54,3.43-2.34,4.63-1.16,1.75-5.29.55-6.68,1.49-1.42,4.1.03,8.68-.35,13.01,1.93-.96,3.87-1.35,4.87-.8.72.4.96,3.93,2.56,2.94,13.97-8.62,5.47,4.36,12.76-10.65,2.15,1.53,6.71,2.59,7.49,5.98-3.88,3.46-2.44,9.69-5.79,13.81-1.85.2-4.31.49-5.51,1.54-1.47,1.29-.88,2.67-1.27,4.31-3.77-2.25-7.39-2.12-10.36-1.35-1.59-3.19-6.33-2.62-9.17-4.64-6.82-4.84-12.18-11.03-17.62-16.84-15.23-16.3-5.67-12.72-13.2-27.39.17-4.08,2.66-8.83,4.4-12.53,8.84,1.57,18.08,2.91,25.98,6.47Z" fill="#e4e3e0"/><path d="M633.43,1055.81c-1.27,14.92-.6,30.73,6.73,43.96-1.73,3.7-4.22,8.45-4.4,12.53.4.38-1.74,2.32-2.07,1.57-7.04-16.2-9.03-33.69-6.75-50.88.48-3.64,2.04-7.33,5.24-8.39-.58.95.31,1.77,1.25,1.2Z" fill="#1e3a8a"/><path d="M824.8,1049.74c-10.83,12.97-.79-1.68-5.14,16.09-3.34-10.63-2.61-21.51-8.68-29.87,1.67.43,3.26-.82,4.58-2.37-.6.7,1.43-8.79,1.58-8.73.95.05,2.69.06,2.93,1.11.31,1.32-.64,2.32-.45,3.53l1.1,7.14c.66,4.29,2.71,9.03,4.08,13.11Z" fill="#e4e3e0"/><path d="M725.24,1133.36c-8.73,3.5-17.4,7.51-26.56,9.5-.78-3.39-5.34-4.45-7.49-5.98-2.16-4.32-7.3-7.55-10.82-10.63l-14.23-20.01,21.76-30.38,42.25,14.68,6.79,30.58c-2.4,4.07-7.48,10.55-11.69,12.24Z" fill="#1e3a8a"/><path d="M725.62,1019.01c.77,1.66,1.84,3.8,1.67,5.42-.42,3.93-35.34,22.91-40.82,25.28l-25.14-21.6c17.38-27.76,17.73-30.28,52.82-32.86,5.62,8.64,7.93,16.1,11.47,23.76Z" fill="#1e3a8a"/><path d="M779.37,970.09c-6.11,9.45,1.86,1.53-3.27,12.22,14.35,9.08,28.58,19.76,36.82,33.79,1.49,2.53,2.1,6.53,4.21,8.75-.14-.05-2.17,9.44-1.58,8.73-1.32,1.55-2.91,2.8-4.58,2.37-5.08-6.99-13.09-11.22-20.61-17.84l-18.81,11.88c-1.44,1.1-1.69-.45-1.7-1.07l-.06-4.06c-.06-3.92-6.14-1.66-8.1.38l-5.7-.13c1.42-4.31-2.88-2.81-4.25-3.7-2.09-1.36-1.82-11.76-13.51-10.31-5.17-10.83-.38,8.56-12.63,7.9-3.53-7.66-5.85-15.12-11.47-23.76-35.09,2.58-35.44,5.1-52.82,32.86l25.14,21.6c-2.08-3.3-.19,32.39,1.44,26.14l-21.76,30.38c-7.9-3.56-17.14-4.9-25.98-6.47-7.33-13.23-7.99-29.04-6.73-43.96,2.17,0,1.53-3.77.79-4.7,1.56,1.98-2.2-7.74-.49-9.75,3.35-3.95,9.36-30.99,35.33-46.77,3.67-2.23,6.07-2.74,8.84-6.67,2.3-3.26,20.42-10.52,25.76-11.37,30.22-4.76,44.93.9,55.68-.75,3.55-.55,5.19-5.69,5.02-8.62.54.41,1.09.07,1.58-.14,3.07-1.29,7.02,2.2,11.45.61-1.24.04-.19,1.39.65,1.75.45.19.48,1.24,1.33.69Z" fill="#e4e3e0"/><path d="M764.37,967.18c.17,2.93-1.47,8.07-5.02,8.62-2.24-2.28.77-5.24,2.65-7.61.2-2.13,2.07-3.9,2.37-1.01Z" fill="#73797e"/><path d="M633.43,1055.81c-.94.57-1.83-.25-1.25-1.2.26-.92-.05-1.82.11-2.7.15-.78,1.09-1.29,1.93-.81.74.94,1.38,4.7-.79,4.7Z" fill="#e4e3e0"/><path d="M723.92,989.01c-4-.34-3.68-2.86.02-3.39,3.49-3.1,7.13-6.74,12.65-5.83-4.08,3.54-9.23,4.59-12.67,9.22Z" fill="#c9ccc9"/><path d="M691.19,1136.88c-7.29,15,1.22,2.02-12.76,10.65-1.6.99-1.85-2.55-2.56-2.94-1-.56-2.94-.16-4.87.8.39-4.33-1.06-8.91.35-13.01,1.39-.94,5.52.26,6.68-1.49.8-1.2.54-3.43,2.34-4.63,3.51,3.07,8.66,6.31,10.82,10.63Z" fill="#c9ccc9"/><path d="M771.55,1029.99c-4.94,3.12-5.52,30.98-3.01,34.83,6.93,10.64,32.65,16.81,22.93,30.86-17.6,25.43-18.36,15.84-31,25.99-4.31,3.46-13.51,2.2-20.46,2.1-2.62,3.54-7.12,6.73-12.08,9.48.71,3.68-1.63.34-2.69.1,4.21-1.69,9.29-8.17,11.69-12.24l-6.79-30.58-42.25-14.68c-1.63,6.25-3.51-29.45-1.44-26.14,5.48-2.37,40.4-21.35,40.82-25.28.17-1.62-.9-3.77-1.67-5.42,12.25.66,7.46-18.73,12.63-7.9,11.69-1.45,11.42,8.95,13.51,10.31,1.37.89,5.66-.62,4.25,3.7l5.7.13c1.96-2.04,8.04-4.3,8.1-.38l.06,4.06c0,.62.26,2.17,1.7,1.07Z" fill="#c9ccc9"/><path d="M751.67,1041.65c2.95-.31,2.35,4.83,1.6,6.87s-4.36,5.02-5.53,3.03c-1.63-2.78-3.45-3.12-4.28-5.6-2.09-6.31,2.36,3.29.58-6.78-1.35-7.6,2.69,3,7.63,2.48Z" fill="#adb1b4"/></g><g id="Generative_Object-2"><path d="M705.5,1159.4c3.09.22,6.13.08,9.41.09l26.54.11c1.32,0,2.58-.18,3.82-.55l22.45,6.3c.2.05.29.26.11.34-9.77,4.2-19.63,7.43-30.43,8.63-19.27,2.14-39.16-.84-56.34-9.04l21.98-5.72c1.05-.27,1.59-.23,2.45-.17Z" fill="#5d5c54"/><path d="M755.14,972c-.07.16.16.23.28.33l4.53,12.24,31.96,22.31-.87.04c.39.54.74.61.7,1.06l-32.31-22.11-12.58,4.37-21.33,7.3.18,21.29.04,9.34,25.94,18.49c2.99,2.13,5.7,4.67,9.04,6.58l16.48-4.73c.11.25.29.47.46.68-.85.33-1.85.44-2.63.9-1.72.29-3.81.99-5.37,1.59-1.58.29-8.25,2.43-8.45,2.4-.23-.04-.13.41-.16.52-.38.1-.53.44-.68.88l-9.36,28.16-4.21,12.22,8.61,14.87c-.6-.2-.69.4-.98.79l-5.53-9.3c-1.08-1.82-1.87-3.85-3.29-5.52l-26.93-.02-14.82.21-11.96,20.41-2.03,3.24c-.48-.13-.34-.78-.7-1.04l13.54-23.96-5.11-15.05-8.55-25.72c-.76-.27-1.32-.48-2.01-.68.05-.2.24-.22.36-.29.15-.09.47.25.63.22.54-.13.44-.72.35-.99.25.02.64.28,1.05-.02l34.51-24.69-.02-30.77-33.97-11.63-7.9,5.44-17.1,11.9c-.19-.37.08-1.12-.54-1.05l22.97-15.99c.88-.61,1.64-1.14,2.4-1.79l4.37-12.16c11.2-3.17,22.82-4.8,34.61-4.41,9.06.3,17.8,1.91,26.37,4.15Z" fill="#1e3a8a"/><path d="M695.05,1056.32l4.01,10.9c.08.22.52.23.27.48-.11.11-.23.2-.41.13s-.11-.27-.18-.45c-.94-1.45-1.66-2.88-2.33-4.41l-3.47-7.85,10.11-7.46,21.31-15.42c4,2.68,7.7,5.43,11.56,8.29l15.82,11.72c-6.19-3-11.65-6.79-17.29-10.55l-9.84-6.83-29.55,21.46Z" fill="#959ea1"/><path d="M754.37,982.3c.84-.22,1.71-.39,2.39-.09l-32.17,11.23-32.07-11.25c-.16-.31.02-.43.13-.48,1.06-.47,28.3,8.33,31.96,9.59l17.94-5.62,11.82-3.38Z" fill="#959ea1"/><path d="M791.92,1006.87c1.53,1.07,3.51,2.56,5.42,3.16,4.75,1.48,9.55,1.6,14.17,2.7,4.53,6.3,8.06,13.08,11.04,20.19,4.46,10.62,6.65,21.74,7.25,33.05-4.6,2.31-8.88,5.28-13.29,8.07-.41.26-.73.96-.87,1.43l-7.12,22.76c-.14-.17-.58.11-.6.03l-.16-.77,6.97-22.86-22.73-29.17-14.28,4.07c.1-.13.03-.21-.06-.33-.17-.21-.35-.43-.46-.68l14.57-4.33-.03-7.62v-28.59c.04-.45-.31-.52-.71-1.06l.87-.04Z" fill="#1e3a8a"/><path d="M796.14,1041.8l4.9,9.6c-2.28-2.73-4.23-5.63-6.28-8.66l.08-17.79.22-13.86c0-.24,1.07-.24,1.07,0l.07,19.94-.07,10.79Z" fill="#7c8385"/><path d="M664.96,1003.23l-6.86,4.9.08,35.94,21.74,6.52c-.41.05-.34.85-.76.74l-7.51-2.1c-.33-.09-.58-.33-.52.13l-13.19-3.6c-2.62,2.62-4.46,5.59-6.64,8.31l-16.14,20.12c.15.98.41,1.8.66,2.61-.42.03-.73.44-.96.75-.27-.9-.84-1.75-1.05-2.83-4.52-2.88-8.81-5.88-13.42-8.29,0-.19-.05-.24-.25-.2-.13-.98-.01-3.13.09-4.18.68-7.19,1.95-14.24,4.18-21.24,3.28-10.28,8-19.91,14.28-28.57l14.18-2.13,11.55-7.93c.63-.07.35.68.54,1.05Z" fill="#1e3a8a"/><path d="M648.78,1051.83c.1.39-.18.61-.49.62,1.2-3.34,2.56-6.38,4.37-9.51l.13-32.33c.67-.37,1.38-.28,2.21-.09l-.02,32.96-6.19,8.34Z" fill="#959ea1"/><path d="M634.85,1077.55l13.72,45.58c.03.08-.02.23.05.31l-1.88,17.17c-18.23-19.38-27.66-45.39-26.96-71.68.02-.88-.22-1.58.29-2.16.26.05.33-.11.31-.34,4.61,2.41,8.9,5.4,13.42,8.29.21,1.08.78,1.93,1.05,2.83Z" fill="url(#linear-gradient)"/><path d="M620.38,1066.43c.02.22-.05.39-.31.34.15-.17.07-.44.06-.54.2-.04.25.01.25.2Z" fill="#fffefe"/><path d="M644.03,1122.35l-4.59-13.26-7.54-26.95c-1.48-5.29-1.21-4.73-5.73-8.91-1.27-1.6-3.49-2.4-4.1-4.67,2.88,2.35,7.29,4.65,8.87,8.28,2.81,6.51,4.3,13.3,6.52,20.12,2.96,9.12,5.33,18.04,7.44,27.29-.72-.42-.63-1.22-.87-1.9Z" fill="#a09f93"/><path d="M811.51,1012.72c-4.62-1.1-9.43-1.22-14.17-2.7-1.91-.59-3.89-2.09-5.42-3.16l-31.96-22.31-4.53-12.24c-.13-.1-.35-.17-.28-.33.84.22,1.5.5,2.29.75,14.08,4.46,25.81,11.09,37.11,20.78,6.19,5.31,11.39,11.22,16.15,17.7.39.53.82.96.82,1.5Z" fill="#807d70"/><path d="M799.32,1007.21c-4.22-1.9-7.65-4.45-11.41-6.9l-9.42-6.13-16.15-10.72c-1.28-1.9-2.15-4.2-2.87-6.48,1.5,1.46,1.94,3.27,3.15,4.98l28.24,18.91c3.05,2.04,5.87,3.79,8.45,6.34Z" fill="#a09f93"/><path d="M694.16,972.25l-4.37,12.16c-.77.65-1.53,1.17-2.4,1.79l-22.97,15.99-11.55,7.93-14.18,2.13c9.63-15.45,26.82-28.61,43.1-35.59,1.98-.85,3.75-1.81,5.75-2.52,1.6-.56,3.2-.89,4.78-1.6.6-.27,1.34-.73,1.84-.3Z" fill="#bebba4"/><path d="M651.24,1008.26c.06-.04-5.74.58-5.15-.22l3.57-.42c1.32-.16,2.09-1.47,3.25-2.29l32.47-22.98c1.02-.72,1.98-1.06,2.8-2.27-.06,1.22-.45,2.48-1.4,3.15l-16.98,12.07-18.57,12.97Z" fill="#d4d4c2"/><path d="M791.74,1007.97v28.59s.03,7.62.03,7.62l-14.57,4.33-16.48,4.73c-3.34-1.92-6.05-4.45-9.04-6.58-.13-.62.31-1.21.75-1.6l7.88,4.84,13.84-4.14c3.08-.92,6.11-1.72,9.19-2.87,1.66-.62,3.13-1.15,4.91-1.47l.55-6.45c.74-8.75.68-17.36.62-26.18-8.03-5.68-15.42-10.94-23.99-15.42.14-.2-.09-.38-.37-.21-1.06-.66-2.14-1.51-3.46-1.81-.29-.39-.84-.82-1.34-.88-.04-.33-.63-.24-.56-.67.01-.19.26-.28.25-.52-1.89-.48-3.54.23-5.22,1.03-2.51,1.2-5.11,1.87-7.6,2.74.36-.47.33-1.06.03-1.73.14-.47,0-.88-.3-1.09l12.58-4.37,32.31,22.11Z" fill="#908d7d"/><path d="M746.86,990.23c.29.21.44.62.3,1.09.3.66.33,1.26-.03,1.73l-18.92,6.43c-.17,9.63.11,19,.53,28.75l15.6,10.89,8.09,5.93c-.44.39-.88.98-.75,1.6l-25.94-18.49-.04-9.34-.18-21.29,21.33-7.3Z" fill="#bebba4"/><path d="M759.7,989.8c-.06.43.52.34.56.67.12.74.82.76,1.34.88.33.45,3.2,2.75,3.46,1.81.28-.17.51.02.37.21-.21-.03-.49.33-.28.49,2.86,2.15,5.82,3.75,8.76,5.73l13.55,9.12c.84.56,1.16,1.15,1.1,2.22l-.56,15.34c-.18,4.85-.34,9.49-.84,14.28-5.21,1.81-10.34,2.91-15.62,4.47l-11,3.26-15.57-10.41-14.8-10.38-.45-27.09,22.84-8.19,7.15-2.42Z" fill="url(#linear-gradient-2)"/><path d="M752.43,1045.06l-8.09-5.93c-.03-.48.19-.99.61-1.25l15.57,10.41,11-3.26c5.28-1.57,10.42-2.66,15.62-4.47.5-4.79.67-9.44.84-14.28l.56-15.34c.05-1.06-.27-1.65-1.1-2.22l-13.55-9.12c-2.94-1.98-5.9-3.58-8.76-5.73-.21-.16.07-.52.28-.49,8.57,4.48,15.97,9.74,23.99,15.42.07,8.82.13,17.43-.62,26.18l-.55,6.45c-1.78.32-3.25.85-4.91,1.47-3.08,1.14-6.11,1.95-9.19,2.87l-13.84,4.14-7.88-4.84Z" fill="#bebba4"/><path d="M759.7,989.8l-7.15,2.42-22.84,8.19.45,27.09,14.8,10.38c-.42.26-.64.77-.61,1.25l-15.6-10.89c-.42-9.75-.7-19.12-.53-28.75l18.92-6.43c2.49-.87,5.09-1.55,7.6-2.74,1.67-.8,3.32-1.51,5.22-1.03.01.24-.24.33-.25.52Z" fill="#bebba4"/><path d="M765.06,993.15c-.26.94-3.13-1.35-3.46-1.81,1.32.29,2.4,1.15,3.46,1.81Z" fill="#a09f93"/><path d="M761.6,991.35c-.52-.11-1.22-.13-1.34-.88.49.06,1.05.49,1.34.88Z" fill="#a09f93"/><path d="M688.37,1053c-2.78-1.23-5.75-1.59-8.46-2.4l-21.74-6.52-.08-35.94,6.86-4.9,17.1-11.9,7.9-5.44,33.97,11.63.02,30.77-34.51,24.69c-.41.29-.8.03-1.05.02Z" fill="#bebba4"/><path d="M689.79,1050.36l-14.13-4.2-15.19-4.57-.12-18.75-.02-6.37-.1-7.22c9.56-7.48,19.21-14.25,29.37-20.98,4.27,2.06,8.81,3.58,13.54,5.03l18.16,5.55-.03,12.34-.42,16.99-31.06,22.18Z" fill="#d4d4c2"/><path d="M681.54,1046.26l-19.92-5.76-.3-22.41v-8.01s19.63-13.54,19.63-13.54l9.48-6.76c1.65.78,3.19,1.08,4.8,1.66l24.74,7.94-.6,27.77-29.89,21.32-7.94-2.21Z" fill="#bebba4"/><path d="M829.81,1065.96c.45,8.53-.28,16.78-1.81,25.16-3.39,18.69-12.41,35.69-25.25,49.49l-1.69-17.97,7.46-24.43,7.12-22.76c.15-.47.47-1.17.87-1.43,4.42-2.79,8.69-5.76,13.29-8.07Z" fill="#4e4d46"/><path d="M653.31,1054.79l-13.95,18.93c-.67.91-1.42,1.64-.96,3.13l3.84,12.43,4.78,15.06c1.72,5.43,3.81,10.59,5.1,16.17,4.27.48,8.28.55,12.6.49,6.58-.08,13.01-.07,19.54-.57l9.96-17.91c1.24-2.23,2.86-4.37,3.91-6.81l-4.18-14.34c.8.3,1.6-.37,2.38-.57l1.27-.31,5.11,15.05-13.54,23.96-4.16,7.17-24.86-3.97c-3.65-.58-7.01-1.08-10.65-1.45l-13.67-44.44c-.25-.81-.51-1.63-.66-2.61l16.14-20.12c1.15-.2,1.15.69,2.01.72Z" fill="#908d7d"/><path d="M748.9,1102.21l5.53,9.3,8.77,15.26-17.8,24.88c.84.5,1.51.18,2.24.46l-4.3,6.59c-7.42-.45-14.58-.48-21.99-.47-4.47,0-8.7-.05-12.97.29-.74.06-1.47.03-2.34-.04l-19.55-31.79,3.38-6.17,2.03-3.24,1.86,1.29c.12.08.14.58.32.59.16,0,.31-.42.58-.26l-4.99,9.01,6.67,9.28,7.99,10.94c1.59,2.18,3.11,4.24,4.83,6.28.93-.05,1.64-.06,2.48.18,2.23.63,9.7.34,12.65.29,4.54-.08,8.89-.33,13.41-.75,1.04-.1,2.12.65,3.24.19.85-.34,1.36-1.25,1.92-2.05l10.18-14.54,3.37-4.85,3.42-4.69c-.7-1.97-2-3.54-2.88-5.26-2.64-5.22-5.8-10.16-8.82-15.3-.81-1.39-1.62-2.66-2.12-4.04,1.18-.28,1.68-1.57,2.86-1.37Z" fill="#5d5c54"/><path d="M748.9,1102.21c-1.18-.21-1.69,1.08-2.86,1.37-.91-.6-1.1-1.78-1.92-2.59-3.38-.66-6.8-.71-10.46-.8-9.57-.25-19-.21-28.46.52-4.01,5.6-7.08,11.94-10.55,18.2-.27-.15-.42.27-.58.26-.18,0-.21-.51-.32-.59l-1.86-1.29,11.96-20.41,14.82-.21,26.93.02c1.42,1.67,2.22,3.7,3.29,5.52Z" fill="#908d7d"/><path d="M671.13,1049.37l15.9,4.71c.69.2,1.25.41,2.01.68l8.55,25.72-1.27.31c-.78.19-1.59.86-2.38.57l-4.97-15.31-3.1-8.58-27.71-8.52-4.85,5.85c-.86-.02-.86-.92-2.01-.72,2.18-2.72,4.02-5.69,6.64-8.31l13.19,3.6Z" fill="#bebba4"/><path d="M679.92,1050.6c2.71.81,5.68,1.17,8.46,2.4.1.28.2.86-.35.99-.16.04-.48-.31-.63-.22-.12.07-.31.1-.36.29l-15.9-4.71c-.05-.45.19-.22.52-.13l7.51,2.1c.41.12.35-.68.76-.74Z" fill="#1e3a8a"/><path d="M635.82,1076.8l13.67,44.44c3.65.37,7,.86,10.65,1.45l24.86,3.97,4.16-7.17c.37.26.22.9.7,1.04l-3.38,6.17,19.55,31.79c.87.07,1.6.1,2.34.04-.17.08.14.57,0,.58l-2.81.09c-.1,0-.1.16-.07.21-.86-.06-1.4-.1-2.45.17l-21.98,5.72c-14.76-7.04-23.01-12.66-34.32-24.69l1.88-17.17c1.35.5,2.65.95,4.28,1.25l29.87,5.47,4.4,6.84,6.18,9.42c.15.22.26.49.46.49.12,0,.17-.17.25-.22.1-.06.1-.29.01-.45l-4.67-8.85-5.09-8.89-35.75-5.37-13.72-45.58c.24-.31.54-.72.96-.75Z" fill="#1e3a8a"/><path d="M808.52,1098.22l-7.46,24.43,1.69,17.97c-9.95,10.69-21.64,19.38-34.92,25.08.18-.08.09-.28-.11-.34l-22.45-6.3c-1.25.37-2.5.55-3.82.55l-26.54-.11c-3.28-.01-6.32.12-9.41-.09-.03-.04-.03-.2.07-.21l2.81-.09c.14,0-.17-.49,0-.58,4.27-.34,8.5-.28,12.97-.29,7.41-.01,14.57.02,21.99.47l4.3-6.59c-.73-.29-1.4.04-2.24-.46l17.8-24.88-8.77-15.26c.28-.39.38-.99.98-.79l8.83,15.16,15.91-2.13c6.91-.93,13.42-1.91,20.31-2.45l7.32-23.83.16.77c.02.08.46-.19.6-.03Z" fill="#1e3a8a"/><path d="M776.96,1126.68v1.4s-9.52,1.62-9.52,1.62l-1.68,2.6c-2.32,2.67-4.87,5.15-7.87,7.12,2.6-4.09,5.29-7.66,8.2-11.24l10.86-1.5Z" fill="#424647"/><path d="M776.94,1128.08v-1.4s23.07-3.48,23.07-3.48c.44-.07.65.06.62.36-.1.9-21.47,4.15-23.69,4.52Z" fill="#303436"/><path d="M648.62,1123.44c-.07-.08-.03-.22-.05-.31l35.75,5.37,5.09,8.89,4.67,8.85c.09.16.08.39-.01.45-.08.04-.13.22-.25.22-.2,0-.31-.26-.46-.49l-6.18-9.42-4.4-6.84-29.87-5.47c-1.64-.3-2.93-.75-4.28-1.25Z" fill="#656b6c"/><path d="M807.76,1097.47l-7.32,23.83c-6.88.54-13.4,1.52-20.31,2.45l-15.91,2.13-8.83-15.16-8.61-14.87,4.21-12.22,9.36-28.16c.15-.44.31-.78.68-.88l7.65-2.25c.48-.14.77-.39.97-.66.19-.04,5.32-.65,5.37-1.59.9-.15,1.93.1,2.69-.57l14.28-4.07,22.73,29.17-6.97,22.86Z" fill="url(#linear-gradient-3)"/><path d="M769.67,1051.68c-.19.27-.49.52-.97.66l-7.65,2.25c.03-.11-.06-.55.16-.52.2.03,6.87-2.11,8.45-2.4Z" fill="#1e3a8a"/><path d="M775.04,1050.09c-.05.94-5.18,1.55-5.37,1.59,1.56-.6,3.65-1.3,5.37-1.59Z" fill="#1e3a8a"/><path d="M777.67,1049.19c.09.11.16.19.06.33-.76.67-1.79.42-2.69.57.78-.46,1.79-.57,2.63-.9Z" fill="#1e3a8a"/><path d="M755.72,1102.23c-.32.09-.25-.29-.52-.51-.42.37-.18.75-.51.79l-3.14-6.28c-.3-.61-.39-1.28-.17-1.97l3.99-12.41,8.44-23.21c.31-.86.7-1.16,1.61-1.43l26.46-7.92,5.94,7.93,6.09,7.98c.03.29-.09.67-.29.69-.12,0-.38-.16-.53-.35l-11.96-14.79-9.69,3.27-16.82,4.69-4.4,13.91-7.76,22.85c1.77,2.06,2.04,4.76,3.24,6.77Z" fill="#a09f93"/><path d="M755.72,1102.23l9.61,16.03,14.52-.05.05,1.21c-4.17.28-8.31.39-12.66.18-.82-.04-2.12.35-2.83-.24l-5.35-8.73c-1.64-2.68-3.09-5.36-4.36-8.13.33-.04.09-.42.51-.79.27.22.19.6.52.51Z" fill="#807d70"/><path d="M802.79,1103.07c-.56,1.69-.87,3.35-1.44,4.99l-2.46,7.02c-.24.11-.67-.1-.59-.39l2.27-8.2,5.67-19.07,3.93-12.3c.76.22.05.84.13,1.12.23.8.19,1.33,0,2l-2.29,8.12c-1.07,3.79-2.15,7.38-3.37,11.1l-1.85,5.61Z" fill="#5d5c54"/><path d="M781.75,1122.02c-3.02.14-5.86.61-8.86.89l-6.07.57c-.23-.61-.48-1.07-.3-1.6,5.38-.46,13.27-1.53,18.23-.44-.98.66-2,.54-3,.59Z" fill="#656b6c"/><path d="M779.9,1119.43l-.05-1.21c1.01,0,7.96-.66,7.87.3-.08.89-6.6.83-7.82.91Z" fill="#5d5c54"/><path d="M693.94,1081.36l4.18,14.34c-1.05,2.44-2.67,4.58-3.91,6.81l-.76-.5c1.13-1.88,2.02-3.88,3.5-5.89l-3.39-11.14-6.12-19.47-1.98-6.81-26.65-8.19-17.42,21.81c-.59.73-1.06,1.32-1.72,1.64-.2.12-.37-.02-.32-.24l13.95-18.93,4.85-5.85,27.71,8.52,3.1,8.58,4.97,15.31Z" fill="#bebba4"/><path d="M639.67,1073.95c-.01.12-.05.25-.2.54l7.76,26.19,5.36,18.57c6.47.52,12.81.33,19.34.07,3.94-.16,7.62-.07,11.53-.71l10-16.61.76.5-9.96,17.91c-6.53.5-12.96.49-19.54.57-4.31.05-8.33,0-12.6-.49-1.3-5.58-3.38-10.74-5.1-16.17l-4.78-15.06-3.84-12.43c-.46-1.49.29-2.22.96-3.13-.05.22.11.36.32.24Z" fill="#a09f93"/><path d="M756.97,1122.92c.87,1.73,2.18,3.3,2.88,5.26l-3.42,4.69-3.37,4.85-10.18,14.54c-.56.8-1.08,1.71-1.92,2.05-1.12.46-2.2-.29-3.24-.19-4.53.42-8.88.68-13.41.75-2.95.05-10.42.34-12.65-.29.04-.45,0-.49-.67-.12-.32-.33,0-.69.14-.98l25.77-.42c1.06-.02,1.97-.26,2.99.14l6.08-8.69,11.81-16.69-2.24-4.38c.52-.09.96-.37,1.45-.52Z" fill="#656b6c"/><path d="M705.37,1101.75c-4.17,8.73-8.62,17.32-13.7,26l17.86,24.76c.51.7.8,1.12,1.59.97-.13.28-.46.65-.14.98.68-.36.72-.32.67.12-.84-.24-1.56-.23-2.48-.18-1.72-2.04-3.24-4.1-4.83-6.28l-7.99-10.94-6.67-9.28,4.99-9.01c3.47-6.26,6.54-12.61,10.55-18.2.06.35-.05.75.16,1.06Z" fill="#908d7d"/><path d="M746.04,1103.57c.5,1.38,1.3,2.66,2.12,4.04,3.02,5.14,6.18,10.09,8.82,15.3-.49.15-.93.44-1.45.52-3.72-7.26-8.18-14.22-11.89-21.49.01-.17-.02-.53.12-.71.08-.1.54.12.37-.26.82.81,1.01,1.99,1.92,2.59Z" fill="#908d7d"/><path d="M744.12,1100.99c.17.38-.29.16-.37.26-.14.17-.1.53-.12.71-1.28-.21-2.58-.22-4.08-.23l-30.27-.15c-1.44,0-2.71-.08-3.92.18-.21-.31-.1-.7-.16-1.06,9.46-.72,18.89-.76,28.46-.52,3.66.09,7.08.14,10.46.8Z" fill="#bebba4"/><path d="M693.45,1102.01l-10,16.61c-3.91.64-7.58.55-11.53.71-6.52.26-12.87.45-19.34-.07l-5.36-18.57-7.76-26.19c.16-.29.19-.42.2-.54.65-.32,1.13-.9,1.72-1.64l17.42-21.81,26.65,8.19,1.98,6.81,6.12,19.47,3.39,11.14c-1.48,2.01-2.37,4.01-3.5,5.89Z" fill="url(#linear-gradient-4)"/><path d="M743.64,1101.95c3.71,7.28,8.17,14.23,11.89,21.49l2.24,4.38-11.81,16.69-6.08,8.69c-1.02-.4-1.94-.16-2.99-.14l-25.77.42c-.78.15-1.08-.26-1.59-.97l-17.86-24.76c5.08-8.68,9.53-17.27,13.7-26,1.21-.26,2.48-.19,3.92-.18l30.27.15c1.49,0,2.8.01,4.08.23Z" fill="url(#linear-gradient-5)"/></g><text transform="translate(1.5 623.09) scale(1.01 1)" font-family="Impact, Impact" font-size="126" stroke="#ccc" stroke-miterlimit="10" stroke-width="3"><tspan x="0" y="0">JT FOOTBALL PHYSIOTHERAPY</tspan></text></svg>